G04 PROTEUS GERBER X2 FILE*
%TF.GenerationSoftware,Labcenter,Proteus,8.12-SP2-Build31155*%
%TF.CreationDate,2022-01-10T11:38:20+00:00*%
%TF.FileFunction,Copper,L1,Top*%
%TF.FilePolarity,Positive*%
%TF.Part,Single*%
%TF.SameCoordinates,{77801cfb-34c7-4bc7-9940-2a46c461fd0e}*%
%FSLAX45Y45*%
%MOMM*%
G01*
%TA.AperFunction,Conductor*%
%ADD10C,1.016000*%
%ADD11C,0.508000*%
%TA.AperFunction,ViaPad*%
%ADD12C,0.762000*%
%ADD13C,1.016000*%
%TA.AperFunction,ComponentPad*%
%ADD14C,1.778000*%
%AMDIL005*
4,1,8,
-0.762000,0.965200,-0.457200,1.270000,0.457200,1.270000,0.762000,0.965200,0.762000,-0.965200,
0.457200,-1.270000,-0.457200,-1.270000,-0.762000,-0.965200,-0.762000,0.965200,
0*%
%TA.AperFunction,ComponentPad*%
%ADD15DIL005*%
%AMDIL006*
4,1,8,
-1.270000,0.457200,-0.965200,0.762000,0.965200,0.762000,1.270000,0.457200,1.270000,-0.457200,
0.965200,-0.762000,-0.965200,-0.762000,-1.270000,-0.457200,-1.270000,0.457200,
0*%
%TA.AperFunction,ComponentPad*%
%ADD16DIL006*%
%TA.AperFunction,ComponentPad*%
%ADD17C,2.032000*%
%TA.AperFunction,ComponentPad*%
%ADD18C,3.048000*%
%AMDIL009*
4,1,8,
-0.725000,0.710000,-0.435000,1.000000,0.435000,1.000000,0.725000,0.710000,0.725000,-0.710000,
0.435000,-1.000000,-0.435000,-1.000000,-0.725000,-0.710000,-0.725000,0.710000,
0*%
%TA.AperFunction,WasherPad*%
%ADD19DIL009*%
%AMPPAD010*
4,1,34,
0.000010,1.000000,
0.148250,0.985570,
0.285330,0.944070,
0.408610,0.878130,
0.515430,0.790430,
0.603130,0.683610,
0.669070,0.560330,
0.710570,0.423250,
0.725000,0.275010,
0.725000,-0.275010,
0.710570,-0.423250,
0.669070,-0.560330,
0.603130,-0.683610,
0.515430,-0.790430,
0.408610,-0.878130,
0.285330,-0.944070,
0.148250,-0.985570,
-0.000010,-1.000000,
-0.148250,-0.985570,
-0.285330,-0.944070,
-0.408610,-0.878130,
-0.515430,-0.790430,
-0.603130,-0.683610,
-0.669070,-0.560330,
-0.710570,-0.423250,
-0.725000,-0.275010,
-0.725000,0.275010,
-0.710570,0.423250,
-0.669070,0.560330,
-0.603130,0.683610,
-0.515430,0.790430,
-0.408610,0.878130,
-0.285330,0.944070,
-0.148250,0.985570,
0.000010,1.000000,
0*%
%ADD70PPAD010*%
%TA.AperFunction,WasherPad*%
%ADD71R,2.250000X2.250000*%
%TA.AperFunction,ComponentPad*%
%ADD20C,2.250000*%
%TA.AperFunction,Profile*%
%ADD21C,0.203200*%
%TD.AperFunction*%
G36*
X+7743640Y-3613640D02*
X+5904584Y-3613640D01*
X+5909962Y-3609225D01*
X+5936757Y-3587225D01*
X+5965108Y-3552694D01*
X+5969826Y-3543873D01*
X+5975782Y-3532735D01*
X+5986340Y-3512994D01*
X+5999573Y-3469287D01*
X+6003600Y-3465063D01*
X+6003600Y-3174238D01*
X+6016300Y-3161538D01*
X+6016300Y-3066850D01*
X+5949345Y-2999895D01*
X+5874109Y-2999895D01*
X+5874109Y-2795729D01*
X+5886809Y-2783029D01*
X+5886809Y-2700298D01*
X+6128918Y-2700297D01*
X+7178072Y-2700298D01*
X+7198424Y-2694701D01*
X+7257042Y-2676953D01*
X+7310153Y-2648549D01*
X+7317888Y-2642199D01*
X+7356305Y-2610657D01*
X+7363166Y-2602300D01*
X+7394197Y-2564505D01*
X+7400215Y-2553251D01*
X+7422601Y-2511394D01*
X+7440349Y-2452776D01*
X+7445946Y-2432424D01*
X+7445946Y+2811118D01*
X+7437784Y+2857838D01*
X+7434874Y+2867451D01*
X+7412650Y+2940854D01*
X+7372517Y+3015896D01*
X+7319021Y+3081051D01*
X+7253865Y+3134547D01*
X+7178819Y+3174681D01*
X+7095810Y+3199815D01*
X+7049087Y+3207977D01*
X+6810963Y+3207977D01*
X+6732057Y+3212385D01*
X+6702117Y+3221450D01*
X+6674075Y+3236447D01*
X+6649910Y+3256288D01*
X+6630069Y+3280453D01*
X+6615072Y+3308495D01*
X+6606007Y+3338435D01*
X+6601599Y+3417341D01*
X+6601599Y+4142084D01*
X+6598840Y+4159246D01*
X+6590330Y+4216875D01*
X+6585739Y+4235229D01*
X+6576414Y+4272516D01*
X+6557340Y+4325811D01*
X+6533353Y+4376475D01*
X+6504741Y+4424157D01*
X+6471749Y+4468599D01*
X+6434673Y+4509493D01*
X+6393776Y+4546572D01*
X+6349340Y+4579556D01*
X+6345066Y+4582121D01*
X+6301661Y+4608168D01*
X+6250995Y+4632156D01*
X+6197700Y+4651230D01*
X+6142063Y+4665145D01*
X+6084438Y+4673655D01*
X+6067268Y+4676415D01*
X+3948671Y+4676415D01*
X+3911477Y+4669180D01*
X+3901864Y+4666270D01*
X+3837274Y+4646714D01*
X+3770147Y+4610813D01*
X+3762415Y+4604465D01*
X+3711859Y+4562956D01*
X+3664003Y+4504669D01*
X+3659283Y+4495844D01*
X+3628102Y+4437542D01*
X+3605636Y+4363339D01*
X+3598401Y+4326145D01*
X+3598401Y+4223199D01*
X+3547601Y+4223199D01*
X+3547601Y+3816801D01*
X+4118170Y+3816801D01*
X+4118170Y+3673901D01*
X+4124498Y+3646022D01*
X+4144355Y+3580442D01*
X+4148650Y+3572410D01*
X+2293273Y+3572410D01*
X+2204204Y+3574898D01*
X+2160734Y+3581317D01*
X+2118324Y+3591925D01*
X+2077933Y+3606381D01*
X+2039734Y+3624466D01*
X+2003854Y+3645996D01*
X+1970474Y+3670773D01*
X+1939786Y+3698597D01*
X+1911962Y+3729285D01*
X+1887185Y+3762665D01*
X+1865655Y+3798545D01*
X+1861746Y+3806801D01*
X+2626399Y+3806801D01*
X+2626399Y+4213199D01*
X+1051601Y+4213199D01*
X+1051601Y+3806801D01*
X+1642467Y+3806801D01*
X+1659625Y+3758858D01*
X+1686282Y+3702554D01*
X+1718082Y+3649562D01*
X+1721052Y+3645560D01*
X+1754727Y+3600192D01*
X+1795932Y+3554743D01*
X+1841381Y+3513538D01*
X+1890751Y+3476893D01*
X+1895026Y+3474327D01*
X+1943743Y+3445093D01*
X+2000047Y+3418436D01*
X+2004062Y+3416999D01*
X-223001Y+3416999D01*
X-223001Y+3873711D01*
X-131401Y+3965311D01*
X-131401Y+4154689D01*
X-265311Y+4288599D01*
X-454689Y+4288599D01*
X-588599Y+4154689D01*
X-588599Y+3965311D01*
X-476999Y+3853711D01*
X-476999Y+3416999D01*
X-1652605Y+3416999D01*
X-1657857Y+3411747D01*
X-2183114Y+3411746D01*
X-2765509Y+3411747D01*
X-3914086Y+3411747D01*
X-3920178Y+3405655D01*
X-3966389Y+3391664D01*
X-4012728Y+3366881D01*
X-4053037Y+3333785D01*
X-4086133Y+3293476D01*
X-4110916Y+3247137D01*
X-4124907Y+3200926D01*
X-4130999Y+3194834D01*
X-4130999Y+3044447D01*
X-4131000Y+3044446D01*
X-4184353Y+3097799D01*
X-4331647Y+3097799D01*
X-4435799Y+2993647D01*
X-4435799Y+2846353D01*
X-4371599Y+2782153D01*
X-4371599Y+2417916D01*
X-4365007Y+2387322D01*
X-4344389Y+2319229D01*
X-4311429Y+2257601D01*
X-4267479Y+2204071D01*
X-4213947Y+2160119D01*
X-4152321Y+2127161D01*
X-4084228Y+2106543D01*
X-4053634Y+2099951D01*
X-2352799Y+2099951D01*
X-2352799Y+1759801D01*
X-777999Y+1759801D01*
X-777999Y+1664316D01*
X-773872Y+1660189D01*
X-760975Y+1617598D01*
X-740026Y+1578425D01*
X-712049Y+1544351D01*
X-677975Y+1516374D01*
X-638802Y+1495425D01*
X-596211Y+1482528D01*
X-592084Y+1478401D01*
X+3456752Y+1478401D01*
X+3515055Y+1475912D01*
X+3525126Y+1472863D01*
X+3535684Y+1467216D01*
X+3544698Y+1459815D01*
X+3552099Y+1450801D01*
X+3557746Y+1440243D01*
X+3560795Y+1430172D01*
X+3563284Y+1371869D01*
X+3563284Y+1332489D01*
X+3568848Y+1312470D01*
X+3572720Y+1299682D01*
X+3586504Y+1254154D01*
X+3614765Y+1201312D01*
X+3652458Y+1155404D01*
X+3698366Y+1117711D01*
X+3751208Y+1089450D01*
X+3809524Y+1071794D01*
X+3829543Y+1066230D01*
X+4461351Y+1066230D01*
X+4464206Y+1063375D01*
X+4558894Y+1063375D01*
X+4625849Y+1130330D01*
X+4625849Y+1225018D01*
X+4558894Y+1291973D01*
X+4464206Y+1291973D01*
X+4441661Y+1269428D01*
X+3913711Y+1269428D01*
X+3847276Y+1272670D01*
X+3829316Y+1278107D01*
X+3811845Y+1287451D01*
X+3796832Y+1299778D01*
X+3784505Y+1314791D01*
X+3775161Y+1332262D01*
X+3769724Y+1350222D01*
X+3766482Y+1416657D01*
X+3766482Y+1456037D01*
X+3761728Y+1467732D01*
X+3758818Y+1477345D01*
X+3746401Y+1518358D01*
X+3721845Y+1564272D01*
X+3715494Y+1572008D01*
X+3689072Y+1604189D01*
X+3649155Y+1636962D01*
X+3640334Y+1641680D01*
X+3603241Y+1661518D01*
X+3552615Y+1676845D01*
X+3540920Y+1681599D01*
X-507916Y+1681599D01*
X-558336Y+1683367D01*
X-560688Y+1684079D01*
X-564501Y+1686119D01*
X-567675Y+1688725D01*
X-570281Y+1691899D01*
X-572321Y+1695712D01*
X-573033Y+1698064D01*
X-574801Y+1748484D01*
X-574801Y+1759801D01*
X+237999Y+1759801D01*
X+237999Y+2166199D01*
X+138387Y+2166199D01*
X+112171Y+2215217D01*
X+57526Y+2281772D01*
X+52018Y+2286295D01*
X+101700Y+2285056D01*
X+133637Y+2280340D01*
X+165073Y+2272477D01*
X+194953Y+2261784D01*
X+223210Y+2248405D01*
X+249731Y+2232491D01*
X+274374Y+2214199D01*
X+297057Y+2193633D01*
X+317603Y+2170971D01*
X+335913Y+2146304D01*
X+339601Y+2140158D01*
X+339601Y+1759801D01*
X+2422399Y+1759801D01*
X+2422399Y+2129486D01*
X+2625601Y+2129486D01*
X+2625601Y+1759801D01*
X+4708399Y+1759801D01*
X+4708399Y+2166199D01*
X+4472500Y+2166199D01*
X+4476708Y+2171868D01*
X+4497357Y+2194643D01*
X+4520134Y+2215294D01*
X+4544892Y+2233671D01*
X+4571524Y+2249653D01*
X+4599903Y+2263089D01*
X+4629920Y+2273832D01*
X+4661482Y+2281726D01*
X+4693574Y+2286464D01*
X+4771084Y+2288401D01*
X+6103512Y+2288401D01*
X+6139826Y+2295551D01*
X+6213220Y+2317772D01*
X+6279605Y+2353275D01*
X+6337262Y+2400614D01*
X+6384601Y+2458271D01*
X+6420104Y+2524656D01*
X+6442325Y+2598050D01*
X+6449475Y+2634364D01*
X+6449475Y+2773316D01*
X+6462030Y+2785871D01*
X+6462030Y+1968216D01*
X+6449126Y+1981120D01*
X+6354438Y+1981120D01*
X+6342029Y+1968711D01*
X+6318631Y+1970724D01*
X+6316327Y+1997510D01*
X+6310608Y+2019132D01*
X+6292502Y+2078928D01*
X+6263532Y+2133096D01*
X+6224889Y+2180161D01*
X+6177824Y+2218804D01*
X+6123658Y+2247773D01*
X+6063856Y+2265879D01*
X+6042238Y+2271599D01*
X+5137916Y+2271599D01*
X+5106022Y+2264880D01*
X+5036728Y+2243898D01*
X+5027870Y+2239161D01*
X+5007595Y+2228317D01*
X+4974020Y+2210361D01*
X+4966284Y+2204010D01*
X+4919551Y+2165640D01*
X+4874836Y+2111177D01*
X+4870116Y+2102353D01*
X+4841295Y+2048466D01*
X+4820313Y+1979164D01*
X+4813594Y+1947277D01*
X+4813594Y+1800611D01*
X+4810352Y+1734174D01*
X+4804915Y+1716216D01*
X+4795571Y+1698744D01*
X+4783243Y+1683730D01*
X+4768233Y+1671406D01*
X+4750759Y+1662060D01*
X+4732799Y+1656623D01*
X+4666364Y+1653381D01*
X+4433764Y+1653381D01*
X+4421064Y+1666081D01*
X+4326376Y+1666081D01*
X+4259421Y+1599126D01*
X+4259421Y+1504438D01*
X+4326376Y+1437483D01*
X+4421064Y+1437483D01*
X+4433764Y+1450183D01*
X+4750532Y+1450183D01*
X+4770551Y+1455747D01*
X+4783339Y+1459619D01*
X+4828867Y+1473403D01*
X+4881706Y+1501663D01*
X+4927619Y+1539359D01*
X+4933953Y+1547073D01*
X+4965311Y+1585265D01*
X+4993571Y+1638105D01*
X+5011228Y+1696425D01*
X+5016792Y+1716443D01*
X+5016792Y+1863109D01*
X+5021123Y+1941199D01*
X+5029949Y+1970353D01*
X+5044575Y+1997697D01*
X+5063927Y+2021268D01*
X+5087491Y+2040615D01*
X+5114840Y+2055242D01*
X+5143998Y+2064070D01*
X+5188027Y+2066512D01*
X+5152901Y+2031386D01*
X+5152901Y+1894614D01*
X+5211515Y+1836000D01*
X+5152901Y+1777386D01*
X+5152901Y+1640614D01*
X+5211515Y+1582000D01*
X+5152901Y+1523386D01*
X+5152901Y+1386614D01*
X+5211515Y+1328000D01*
X+5152901Y+1269386D01*
X+5152901Y+1132614D01*
X+5211515Y+1074000D01*
X+5152901Y+1015386D01*
X+5152901Y+878614D01*
X+5211515Y+820000D01*
X+5152901Y+761386D01*
X+5152901Y+624614D01*
X+5211515Y+566000D01*
X+5152901Y+507386D01*
X+5152901Y+370614D01*
X+5211515Y+312000D01*
X+5152901Y+253386D01*
X+5152901Y+116614D01*
X+5211515Y+58000D01*
X+5152901Y-614D01*
X+5152901Y-137386D01*
X+5211515Y-196000D01*
X+5152901Y-254614D01*
X+5152901Y-391386D01*
X+5211515Y-450000D01*
X+5152901Y-508614D01*
X+5152901Y-645386D01*
X+5211515Y-704000D01*
X+5152901Y-762614D01*
X+5152901Y-899386D01*
X+5211515Y-958000D01*
X+5152901Y-1016614D01*
X+5152901Y-1153386D01*
X+5211515Y-1212000D01*
X+5152901Y-1270614D01*
X+5152901Y-1407386D01*
X+5211515Y-1466000D01*
X+5152901Y-1524614D01*
X+5152901Y-1661386D01*
X+5211515Y-1720000D01*
X+5152901Y-1778614D01*
X+5152901Y-1915386D01*
X+5211515Y-1974000D01*
X+5152901Y-2032614D01*
X+5152901Y-2169386D01*
X+5211515Y-2228000D01*
X+5152901Y-2286614D01*
X+5152901Y-2423386D01*
X+5226615Y-2497100D01*
X+5163932Y-2497100D01*
X+5079229Y-2492146D01*
X+5043760Y-2481407D01*
X+5010826Y-2463794D01*
X+4982421Y-2440472D01*
X+4959098Y-2412065D01*
X+4941483Y-2379129D01*
X+4930745Y-2343662D01*
X+4925791Y-2258959D01*
X+4925790Y-1214598D01*
X+4925791Y-86068D01*
X+4923424Y-76998D01*
X+4922696Y-72065D01*
X+4916073Y-27210D01*
X+4904045Y+20881D01*
X+4886702Y+69339D01*
X+4883164Y+75955D01*
X+4842353Y+152263D01*
X+4781657Y+226188D01*
X+4707732Y+286884D01*
X+4624808Y+331233D01*
X+4617743Y+333762D01*
X+4576350Y+348576D01*
X+4570520Y+350034D01*
X+4528267Y+360602D01*
X+4478465Y+367957D01*
X+4469401Y+370322D01*
X+2373199Y+370322D01*
X+2373199Y+1437399D01*
X+1966801Y+1437399D01*
X+1966801Y-112001D01*
X+1488395Y-112001D01*
X+1471027Y-118210D01*
X+1459009Y-121848D01*
X+1405209Y-138138D01*
X+1394131Y-144062D01*
X+1345522Y-170059D01*
X+1293650Y-212648D01*
X+1251058Y-264522D01*
X+1241654Y-282105D01*
X+1219139Y-324206D01*
X+1199210Y-390027D01*
X+1193001Y-407395D01*
X+1189088Y-488948D01*
X+1182726Y-509960D01*
X+1171718Y-530543D01*
X+1157211Y-548211D01*
X+1139543Y-562718D01*
X+1118960Y-573726D01*
X+1097948Y-580088D01*
X+1016395Y-584001D01*
X+973199Y-584001D01*
X+973199Y-304601D01*
X+566801Y-304601D01*
X+566801Y-605059D01*
X+469507Y-605059D01*
X+366349Y-599124D01*
X+324596Y-586482D01*
X+285726Y-565694D01*
X+252202Y-538169D01*
X+224678Y-504646D01*
X+203890Y-465776D01*
X+191248Y-424021D01*
X+185313Y-320865D01*
X+185313Y+734977D01*
X+182497Y+743407D01*
X+181586Y+749579D01*
X+173722Y+802832D01*
X+159357Y+860264D01*
X+157249Y+866156D01*
X+139664Y+915293D01*
X+114883Y+967636D01*
X+85313Y+1016915D01*
X+51224Y+1062836D01*
X+47041Y+1067451D01*
X+12897Y+1105111D01*
X-29376Y+1143437D01*
X-75300Y+1177526D01*
X-124579Y+1207097D01*
X-176921Y+1231878D01*
X-209984Y+1243710D01*
X-231953Y+1251573D01*
X-289370Y+1265934D01*
X-295569Y+1266850D01*
X-348806Y+1274711D01*
X-357238Y+1277528D01*
X-1607938Y+1277528D01*
X-1682332Y+1203134D01*
X-1682332Y+1097924D01*
X-1607938Y+1023530D01*
X-462448Y+1023530D01*
X-372305Y+1021430D01*
X-338866Y+1016493D01*
X-305749Y+1008209D01*
X-274277Y+996946D01*
X-244566Y+982879D01*
X-216680Y+966146D01*
X-190756Y+946903D01*
X-166921Y+925293D01*
X-145314Y+901460D01*
X-126068Y+875534D01*
X-109333Y+847645D01*
X-95268Y+817937D01*
X-84003Y+786461D01*
X-75724Y+753356D01*
X-70784Y+719905D01*
X-68685Y+629767D01*
X-68685Y-426075D01*
X-59736Y-471582D01*
X-56101Y-483590D01*
X-31934Y-563411D01*
X-26010Y-574488D01*
X+12500Y-646493D01*
X+71734Y-718637D01*
X+143878Y-777871D01*
X+226963Y-822305D01*
X+318790Y-850108D01*
X+364297Y-859057D01*
X+566801Y-859057D01*
X+566801Y-1148420D01*
X+374818Y-1148420D01*
X+356341Y-1153834D01*
X+346728Y-1156744D01*
X+299447Y-1171059D01*
X+290587Y-1175797D01*
X+247889Y-1198632D01*
X+240154Y-1204982D01*
X+203085Y-1235417D01*
X+194334Y-1246075D01*
X+166300Y-1280221D01*
X+138727Y-1331779D01*
X+121502Y-1388673D01*
X+116088Y-1407150D01*
X+116088Y-2004798D01*
X+110733Y-2093751D01*
X+98767Y-2133273D01*
X+79239Y-2169786D01*
X+53363Y-2201303D01*
X+21846Y-2227179D01*
X-14667Y-2246707D01*
X-54189Y-2258673D01*
X-143142Y-2264028D01*
X-402123Y-2264028D01*
X-413393Y-2268740D01*
X-463622Y-2283948D01*
X-472482Y-2288686D01*
X-509184Y-2308315D01*
X-548791Y-2340834D01*
X-581313Y-2380444D01*
X-586031Y-2389265D01*
X-605679Y-2426003D01*
X-620887Y-2476234D01*
X-625599Y-2487504D01*
X-625599Y-2659801D01*
X-903001Y-2659801D01*
X-903001Y-1806289D01*
X-801401Y-1704689D01*
X-801401Y-1515311D01*
X-935311Y-1381401D01*
X-1124689Y-1381401D01*
X-1246289Y-1503001D01*
X-2025711Y-1503001D01*
X-2127311Y-1401401D01*
X-2316689Y-1401401D01*
X-2450599Y-1535311D01*
X-2450599Y-1724689D01*
X-2339744Y-1835544D01*
X-2339744Y-2133728D01*
X-2343436Y-2212891D01*
X-2349099Y-2231595D01*
X-2359022Y-2250148D01*
X-2372082Y-2266055D01*
X-2387989Y-2279115D01*
X-2406542Y-2289038D01*
X-2425246Y-2294701D01*
X-2504409Y-2298393D01*
X-3156218Y-2298393D01*
X-3247358Y-2293586D01*
X-3277603Y-2284429D01*
X-3306323Y-2269069D01*
X-3331034Y-2248779D01*
X-3351324Y-2224068D01*
X-3366684Y-2195348D01*
X-3375841Y-2165103D01*
X-3380648Y-2073963D01*
X-3383631Y-2062098D01*
X-3392897Y-1999351D01*
X-3408058Y-1938741D01*
X-3410168Y-1932844D01*
X-3428849Y-1880644D01*
X-3431527Y-1874987D01*
X-3454991Y-1825426D01*
X-3486196Y-1773424D01*
X-3522170Y-1724962D01*
X-3526349Y-1720352D01*
X-3562607Y-1680360D01*
X-3567215Y-1676182D01*
X-3579158Y-1665355D01*
X-3607209Y-1639923D01*
X-3612204Y-1636215D01*
X-3655671Y-1603949D01*
X-3707673Y-1572744D01*
X-3762891Y-1546602D01*
X-3820988Y-1525811D01*
X-3827066Y-1524290D01*
X-3852801Y-1517853D01*
X-3852801Y-711001D01*
X-4259199Y-711001D01*
X-4259199Y-3231733D01*
X-4425091Y-3231733D01*
X-4464070Y-3230619D01*
X-4465184Y-3191640D01*
X-4465184Y+579015D01*
X-4462219Y+642477D01*
X-4457651Y+657564D01*
X-4449653Y+672518D01*
X-4439125Y+685341D01*
X-4426301Y+695870D01*
X-4411347Y+703868D01*
X-4396260Y+708436D01*
X-4332798Y+711401D01*
X-4259199Y+711401D01*
X-4259199Y-609399D01*
X-3852801Y-609399D01*
X-3852801Y+457401D01*
X-881084Y+457401D01*
X-814196Y+454117D01*
X-795805Y+448549D01*
X-777946Y+438998D01*
X-762601Y+426399D01*
X-750002Y+411054D01*
X-740451Y+393195D01*
X-734883Y+374804D01*
X-731599Y+307916D01*
X-731598Y+103407D01*
X-731599Y-185271D01*
X-726675Y-198721D01*
X-710857Y-250960D01*
X-685522Y-298332D01*
X-678662Y-306687D01*
X-651715Y-339509D01*
X-643997Y-345846D01*
X-610538Y-373316D01*
X-563166Y-398651D01*
X-510927Y-414469D01*
X-497477Y-419393D01*
X-334897Y-419393D01*
X-322197Y-432093D01*
X-227509Y-432093D01*
X-160554Y-365138D01*
X-160554Y-270450D01*
X-227509Y-203495D01*
X-322197Y-203495D01*
X-334897Y-216195D01*
X-413309Y-216195D01*
X-473315Y-213549D01*
X-485054Y-209995D01*
X-497065Y-203571D01*
X-507341Y-195135D01*
X-515777Y-184859D01*
X-522201Y-172848D01*
X-525755Y-161109D01*
X-528401Y-101103D01*
X-528402Y+103407D01*
X-528401Y+392084D01*
X-534010Y+412563D01*
X-551797Y+471311D01*
X-580259Y+524529D01*
X-618227Y+570773D01*
X-664471Y+608741D01*
X-717689Y+637203D01*
X-727659Y+640222D01*
X-776437Y+654990D01*
X-796916Y+660599D01*
X-3852801Y+660599D01*
X-3852801Y+1473399D01*
X-4259199Y+1473399D01*
X-4259199Y+1422599D01*
X-4586299Y+1422599D01*
X-4613469Y+1416340D01*
X-4678392Y+1396682D01*
X-4687252Y+1391944D01*
X-4737176Y+1365245D01*
X-4788239Y+1323319D01*
X-4830165Y+1272256D01*
X-4861602Y+1213472D01*
X-4881260Y+1148549D01*
X-4887519Y+1121379D01*
X-4887519Y-3415259D01*
X-4882501Y-3429668D01*
X-4866415Y-3482795D01*
X-4840653Y-3530962D01*
X-4828385Y-3545905D01*
X-4806281Y-3572826D01*
X-4798561Y-3579165D01*
X-4764410Y-3607204D01*
X-4752377Y-3613640D01*
X-5083640Y-3613640D01*
X-5083640Y+5513640D01*
X+7743640Y+5513640D01*
X+7743640Y-3613640D01*
G37*
%LPC*%
G36*
X+973199Y+1168601D02*
X+973199Y-101399D01*
X+566801Y-101399D01*
X+566801Y+1473399D01*
X+973199Y+1473399D01*
X+973199Y+1168601D01*
G37*
G36*
X-3033001Y+342605D02*
X-3031101Y+283116D01*
X-3030207Y+281444D01*
X-3029001Y+279975D01*
X-3027532Y+278769D01*
X-3025860Y+277875D01*
X-2966371Y+275975D01*
X-2680071Y+275975D01*
X-2677316Y+273220D01*
X-2627645Y+265885D01*
X-2621571Y+264366D01*
X-2577522Y+253349D01*
X-2526520Y+235096D01*
X-2518243Y+230670D01*
X-2440442Y+189061D01*
X-2363274Y+125702D01*
X-2299915Y+48534D01*
X-2253880Y-37544D01*
X-2235627Y-88546D01*
X-2223091Y-138669D01*
X-2215756Y-188340D01*
X-2213001Y-191095D01*
X-2213001Y-1049433D01*
X-782665Y-1049433D01*
X-746427Y-1057479D01*
X-734414Y-1061116D01*
X-663159Y-1082690D01*
X-587791Y-1122999D01*
X-522322Y-1176751D01*
X-514401Y-1186398D01*
X-468566Y-1242223D01*
X-428258Y-1317593D01*
X-403047Y-1400859D01*
X-401675Y-1407037D01*
X-293401Y-1515311D01*
X-293401Y-1704689D01*
X-427311Y-1838599D01*
X-616689Y-1838599D01*
X-750599Y-1704689D01*
X-750599Y-1515311D01*
X-660927Y-1425639D01*
X-664078Y-1415234D01*
X-680749Y-1384062D01*
X-702787Y-1357221D01*
X-729630Y-1335181D01*
X-760803Y-1318510D01*
X-793833Y-1308509D01*
X-887875Y-1303431D01*
X-2357859Y-1303431D01*
X-2453160Y-1308627D01*
X-2487396Y-1318993D01*
X-2519634Y-1336234D01*
X-2547400Y-1359032D01*
X-2570198Y-1386798D01*
X-2587439Y-1419036D01*
X-2594466Y-1442246D01*
X-2501401Y-1535311D01*
X-2501401Y-1724689D01*
X-2635311Y-1858599D01*
X-2824689Y-1858599D01*
X-2958599Y-1724689D01*
X-2958599Y-1535311D01*
X-2854311Y-1431023D01*
X-2848827Y-1405842D01*
X-2845191Y-1393831D01*
X-2823258Y-1321391D01*
X-2782381Y-1244958D01*
X-2727868Y-1178564D01*
X-2661474Y-1124051D01*
X-2585041Y-1083174D01*
X-2500590Y-1057605D01*
X-2466999Y-1050289D01*
X-2466999Y-296305D01*
X-2468730Y-213920D01*
X-2472535Y-188152D01*
X-2478992Y-162336D01*
X-2486707Y-140780D01*
X-2512093Y-93312D01*
X-2543742Y-54766D01*
X-2582288Y-23117D01*
X-2629756Y+2269D01*
X-2651312Y+9984D01*
X-2677128Y+16441D01*
X-2702896Y+20246D01*
X-2785281Y+21977D01*
X-3071581Y+21977D01*
X-3077763Y+28159D01*
X-3084614Y+30233D01*
X-3123293Y+41944D01*
X-3169380Y+66592D01*
X-3209469Y+99507D01*
X-3242384Y+139596D01*
X-3267032Y+185683D01*
X-3280817Y+231213D01*
X-3286999Y+237395D01*
X-3286999Y+342605D01*
X-3212605Y+416999D01*
X-3107395Y+416999D01*
X-3033001Y+342605D01*
G37*
G36*
X-80599Y+3965311D02*
X-80599Y+4154689D01*
X+53311Y+4288599D01*
X+242689Y+4288599D01*
X+376599Y+4154689D01*
X+376599Y+3965311D01*
X+242689Y+3831401D01*
X+53311Y+3831401D01*
X-80599Y+3965311D01*
G37*
G36*
X-2881301Y+4911301D02*
X-2933001Y+4911301D01*
X-2933001Y+4437395D01*
X-2947269Y+4404888D01*
X-2994680Y+4333880D01*
X-3065688Y+4286469D01*
X-3098195Y+4272201D01*
X-3253001Y+4272201D01*
X-3253001Y+3896289D01*
X-3121401Y+3764689D01*
X-3121401Y+3575311D01*
X-3255311Y+3441401D01*
X-3444689Y+3441401D01*
X-3578599Y+3575311D01*
X-3578599Y+3764689D01*
X-3506999Y+3836289D01*
X-3506999Y+4272201D01*
X-4251805Y+4272201D01*
X-4268571Y+4283382D01*
X-4326883Y+4322317D01*
X-4365818Y+4380629D01*
X-4376999Y+4397395D01*
X-4376999Y+4503801D01*
X-4568699Y+4503801D01*
X-4568699Y+4856199D01*
X-3591301Y+4856199D01*
X-3591301Y+4526199D01*
X-3203405Y+4526199D01*
X-3188108Y+4527308D01*
X-3186999Y+4542605D01*
X-3186999Y+4911301D01*
X-3258699Y+4911301D01*
X-3258699Y+5288699D01*
X-2881301Y+5288699D01*
X-2881301Y+4911301D01*
G37*
G36*
X-4232201Y+3993647D02*
X-4232201Y+3846353D01*
X-4285554Y+3793000D01*
X-4232201Y+3739647D01*
X-4232201Y+3592353D01*
X-4336353Y+3488201D01*
X-4483647Y+3488201D01*
X-4587799Y+3592353D01*
X-4587799Y+3739647D01*
X-4534446Y+3793000D01*
X-4587799Y+3846353D01*
X-4587799Y+3993647D01*
X-4483647Y+4097799D01*
X-4336353Y+4097799D01*
X-4232201Y+3993647D01*
G37*
G36*
X-278699Y+5021838D02*
X-278699Y+5178162D01*
X-168162Y+5288699D01*
X-11838Y+5288699D01*
X+98699Y+5178162D01*
X+98699Y+5021838D01*
X-11838Y+4911301D01*
X-168162Y+4911301D01*
X-278699Y+5021838D01*
G37*
G36*
X-1598201Y+3723647D02*
X-1598201Y+3576353D01*
X-1702353Y+3472201D01*
X-1849647Y+3472201D01*
X-1903000Y+3525554D01*
X-1956353Y+3472201D01*
X-2103647Y+3472201D01*
X-2207799Y+3576353D01*
X-2207799Y+3723647D01*
X-2103647Y+3827799D01*
X-1956353Y+3827799D01*
X-1903000Y+3774446D01*
X-1849647Y+3827799D01*
X-1702353Y+3827799D01*
X-1598201Y+3723647D01*
G37*
G36*
X-2613401Y+3764689D02*
X-2613401Y+3764084D01*
X-2548386Y+3829099D01*
X-2411614Y+3829099D01*
X-2314901Y+3732386D01*
X-2314901Y+3595614D01*
X-2411614Y+3498901D01*
X-2548386Y+3498901D01*
X-2619098Y+3569614D01*
X-2747311Y+3441401D01*
X-2936689Y+3441401D01*
X-3070599Y+3575311D01*
X-3070599Y+3764689D01*
X-2936689Y+3898599D01*
X-2747311Y+3898599D01*
X-2613401Y+3764689D01*
G37*
G36*
X-2411614Y+4514901D02*
X-2548386Y+4514901D01*
X-2645099Y+4611614D01*
X-2645099Y+4748386D01*
X-2548386Y+4845099D01*
X-2411614Y+4845099D01*
X-2314901Y+4748386D01*
X-2314901Y+4611614D01*
X-2411614Y+4514901D01*
G37*
G36*
X-1158386Y+4845099D02*
X-1021614Y+4845099D01*
X-924901Y+4748386D01*
X-924901Y+4611614D01*
X-1021614Y+4514901D01*
X-1158386Y+4514901D01*
X-1255099Y+4611614D01*
X-1255099Y+4748386D01*
X-1158386Y+4845099D01*
G37*
G36*
X-1158386Y+3829099D02*
X-1021614Y+3829099D01*
X-924901Y+3732386D01*
X-924901Y+3595614D01*
X-1021614Y+3498901D01*
X-1158386Y+3498901D01*
X-1255099Y+3595614D01*
X-1255099Y+3732386D01*
X-1158386Y+3829099D01*
G37*
%LPD*%
G36*
X+4874610Y+3161750D02*
X+4875861Y+3116689D01*
X+4875861Y+3065585D01*
X+4823647Y+3117799D01*
X+4676353Y+3117799D01*
X+4572201Y+3013647D01*
X+4572201Y+2866353D01*
X+4676353Y+2762201D01*
X+4823647Y+2762201D01*
X+4877000Y+2815554D01*
X+4930353Y+2762201D01*
X+5077647Y+2762201D01*
X+5131000Y+2815554D01*
X+5184353Y+2762201D01*
X+5331647Y+2762201D01*
X+5407847Y+2838401D01*
X+6233577Y+2838401D01*
X+6233577Y+2786016D01*
X+6246277Y+2773316D01*
X+6246277Y+2718532D01*
X+6241536Y+2636086D01*
X+6231450Y+2602774D01*
X+6214854Y+2571742D01*
X+6192888Y+2544988D01*
X+6166134Y+2523022D01*
X+6135102Y+2506426D01*
X+6101790Y+2496340D01*
X+6019344Y+2491599D01*
X+4686916Y+2491599D01*
X+4674720Y+2489081D01*
X+4621903Y+2481283D01*
X+4570883Y+2468521D01*
X+4521998Y+2451026D01*
X+4475539Y+2429029D01*
X+4431792Y+2402777D01*
X+4391021Y+2372512D01*
X+4387335Y+2369171D01*
X+4353503Y+2338497D01*
X+4319485Y+2300976D01*
X+4316517Y+2296978D01*
X+4289223Y+2260208D01*
X+4262972Y+2216462D01*
X+4240972Y+2169995D01*
X+4239613Y+2166199D01*
X+3220827Y+2166199D01*
X+3231185Y+2169906D01*
X+3277475Y+2191822D01*
X+3281762Y+2194394D01*
X+3321064Y+2217979D01*
X+3337639Y+2230282D01*
X+3361686Y+2248133D01*
X+3399066Y+2282023D01*
X+3432954Y+2319401D01*
X+3435923Y+2323400D01*
X+3463107Y+2360021D01*
X+3465672Y+2364295D01*
X+3489262Y+2403606D01*
X+3511176Y+2449892D01*
X+3512866Y+2454613D01*
X+3528608Y+2498600D01*
X+3529825Y+2503464D01*
X+3541322Y+2549427D01*
X+3549091Y+2602047D01*
X+3551599Y+2614039D01*
X+3551599Y+2790153D01*
X+3577000Y+2815554D01*
X+3630353Y+2762201D01*
X+3777647Y+2762201D01*
X+3831000Y+2815554D01*
X+3884353Y+2762201D01*
X+4031647Y+2762201D01*
X+4135799Y+2866353D01*
X+4135799Y+3013647D01*
X+4031647Y+3117799D01*
X+3884353Y+3117799D01*
X+3831000Y+3064446D01*
X+3830999Y+3064447D01*
X+3830999Y+3163001D01*
X+4829549Y+3163001D01*
X+4874610Y+3161750D01*
G37*
G36*
X-296998Y+3058444D02*
X-336353Y+3097799D01*
X-483647Y+3097799D01*
X-587799Y+2993647D01*
X-587799Y+2846353D01*
X-582333Y+2840887D01*
X-779486Y+2840886D01*
X-1009667Y+2840887D01*
X-994201Y+2856353D01*
X-994201Y+3003647D01*
X-1098353Y+3107799D01*
X-1245647Y+3107799D01*
X-1299000Y+3054446D01*
X-1299001Y+3054447D01*
X-1299001Y+3163001D01*
X-296999Y+3163001D01*
X-296998Y+3058444D01*
G37*
G36*
X+3467395Y+3163001D02*
X+3513487Y+3163001D01*
X+3572080Y+3161165D01*
X+3572893Y+3160731D01*
X+3573902Y+3159902D01*
X+3574731Y+3158893D01*
X+3575165Y+3158080D01*
X+3577001Y+3099487D01*
X+3577001Y+3064447D01*
X+3577000Y+3064446D01*
X+3523647Y+3117799D01*
X+3376353Y+3117799D01*
X+3272201Y+3013647D01*
X+3272201Y+2866353D01*
X+3348401Y+2790153D01*
X+3348401Y+2698207D01*
X+3346474Y+2620899D01*
X+3341765Y+2589009D01*
X+3333917Y+2557632D01*
X+3323240Y+2527798D01*
X+3309886Y+2499592D01*
X+3294001Y+2473121D01*
X+3275735Y+2448513D01*
X+3255211Y+2425876D01*
X+3232571Y+2405350D01*
X+3207960Y+2387081D01*
X+3181492Y+2371198D01*
X+3153291Y+2357847D01*
X+3123452Y+2347168D01*
X+3092077Y+2339320D01*
X+3060185Y+2334611D01*
X+2982878Y+2332684D01*
X+1527916Y+2332684D01*
X+1506098Y+2322091D01*
X+1452669Y+2286416D01*
X+1416994Y+2232987D01*
X+1406401Y+2211169D01*
X+1406401Y+2166199D01*
X+554296Y+2166199D01*
X+553135Y+2169444D01*
X+531197Y+2215779D01*
X+505010Y+2259419D01*
X+474840Y+2300062D01*
X+440903Y+2337495D01*
X+403492Y+2371413D01*
X+399487Y+2374386D01*
X+362823Y+2401601D01*
X+319195Y+2427781D01*
X+314676Y+2429921D01*
X+272860Y+2449719D01*
X+224099Y+2467169D01*
X+219238Y+2468385D01*
X+173233Y+2479892D01*
X+120549Y+2487673D01*
X+108500Y+2490183D01*
X-1519756Y+2490183D01*
X-1568542Y+2491803D01*
X-1569285Y+2492028D01*
X-1571696Y+2493317D01*
X-1573657Y+2494927D01*
X-1575267Y+2496888D01*
X-1576556Y+2499299D01*
X-1576781Y+2500042D01*
X-1578401Y+2548828D01*
X-1578401Y+2780153D01*
X-1553000Y+2805554D01*
X-1552999Y+2805553D01*
X-1552999Y+2765802D01*
X-1544617Y+2757420D01*
X-1535847Y+2728454D01*
X-1514520Y+2688577D01*
X-1486019Y+2653864D01*
X-1451309Y+2625368D01*
X-1438186Y+2618349D01*
X-1411432Y+2604038D01*
X-1382467Y+2595270D01*
X-1374086Y+2586889D01*
X-1268876Y+2586889D01*
X-779486Y+2586890D01*
X-184886Y+2586889D01*
X-156042Y+2600439D01*
X-87990Y+2645878D01*
X-73937Y+2666924D01*
X-42551Y+2713930D01*
X-29001Y+2742774D01*
X-29001Y+2795553D01*
X-29000Y+2795554D01*
X+24353Y+2742201D01*
X+171647Y+2742201D01*
X+275799Y+2846353D01*
X+275799Y+2993647D01*
X+171647Y+3097799D01*
X+24353Y+3097799D01*
X-29000Y+3044446D01*
X-43002Y+3058448D01*
X-43001Y+3163001D01*
X+917395Y+3163001D01*
X+979623Y+3160864D01*
X+981788Y+3160208D01*
X+985872Y+3158024D01*
X+989250Y+3155250D01*
X+992024Y+3151872D01*
X+994208Y+3147788D01*
X+994864Y+3145623D01*
X+997001Y+3083395D01*
X+997001Y+3054447D01*
X+997000Y+3054446D01*
X+943647Y+3107799D01*
X+796353Y+3107799D01*
X+692201Y+3003647D01*
X+692201Y+2856353D01*
X+796353Y+2752201D01*
X+943647Y+2752201D01*
X+997000Y+2805554D01*
X+1050353Y+2752201D01*
X+1197647Y+2752201D01*
X+1251000Y+2805554D01*
X+1304353Y+2752201D01*
X+1451647Y+2752201D01*
X+1555799Y+2856353D01*
X+1555799Y+3003647D01*
X+1451647Y+3107799D01*
X+1304353Y+3107799D01*
X+1251000Y+3054446D01*
X+1250999Y+3054447D01*
X+1250999Y+3163001D01*
X+2212580Y+3163001D01*
X+2261758Y+3161590D01*
X+2263170Y+3112411D01*
X+2263170Y+3058276D01*
X+2213647Y+3107799D01*
X+2066353Y+3107799D01*
X+1962201Y+3003647D01*
X+1962201Y+2856353D01*
X+2066353Y+2752201D01*
X+2213647Y+2752201D01*
X+2267000Y+2805554D01*
X+2320353Y+2752201D01*
X+2467647Y+2752201D01*
X+2521000Y+2805554D01*
X+2574353Y+2752201D01*
X+2721647Y+2752201D01*
X+2825799Y+2856353D01*
X+2825799Y+3003647D01*
X+2721647Y+3107799D01*
X+2574353Y+3107799D01*
X+2521000Y+3054446D01*
X+2517166Y+3058280D01*
X+2517166Y+3112411D01*
X+2517167Y+3112412D01*
X+2517167Y+3163001D01*
X+2892592Y+3163002D01*
X+3467395Y+3163001D01*
G37*
G36*
X-1600720Y+3157749D02*
X-1554302Y+3156446D01*
X-1552999Y+3110028D01*
X-1552999Y+3054447D01*
X-1553000Y+3054446D01*
X-1606353Y+3107799D01*
X-1753647Y+3107799D01*
X-1857799Y+3003647D01*
X-1857799Y+2856353D01*
X-1781599Y+2780153D01*
X-1781599Y+2464660D01*
X-1776976Y+2460037D01*
X-1765212Y+2421186D01*
X-1760002Y+2411443D01*
X-2780861Y+2411443D01*
X-2829431Y+2413043D01*
X-2829957Y+2413203D01*
X-2832178Y+2414390D01*
X-2833977Y+2415867D01*
X-2835454Y+2417667D01*
X-2836640Y+2419883D01*
X-2836801Y+2420415D01*
X-2838401Y+2468983D01*
X-2838401Y+2780153D01*
X-2813000Y+2805554D01*
X-2759647Y+2752201D01*
X-2612353Y+2752201D01*
X-2559000Y+2805554D01*
X-2505647Y+2752201D01*
X-2358353Y+2752201D01*
X-2254201Y+2856353D01*
X-2254201Y+3003647D01*
X-2358353Y+3107799D01*
X-2505647Y+3107799D01*
X-2559000Y+3054446D01*
X-2559001Y+3054447D01*
X-2559001Y+3157749D01*
X-2183114Y+3157750D01*
X-1600720Y+3157749D01*
G37*
G36*
X-2814689Y+3156059D02*
X-2812999Y+3100029D01*
X-2812999Y+3054447D01*
X-2813000Y+3054446D01*
X-2866353Y+3107799D01*
X-3013647Y+3107799D01*
X-3117799Y+3003647D01*
X-3117799Y+2856353D01*
X-3041599Y+2780153D01*
X-3041599Y+2384815D01*
X-3036910Y+2380126D01*
X-3025298Y+2341778D01*
X-3005193Y+2304186D01*
X-3004342Y+2303149D01*
X-3969466Y+2303149D01*
X-4046275Y+2307359D01*
X-4074206Y+2315816D01*
X-4100476Y+2329866D01*
X-4123105Y+2348445D01*
X-4141686Y+2371076D01*
X-4155733Y+2397341D01*
X-4164191Y+2425275D01*
X-4168401Y+2502084D01*
X-4168401Y+2758153D01*
X-4131000Y+2795554D01*
X-4077647Y+2742201D01*
X-3930353Y+2742201D01*
X-3877000Y+2795554D01*
X-3823647Y+2742201D01*
X-3676353Y+2742201D01*
X-3572201Y+2846353D01*
X-3572201Y+2993647D01*
X-3676353Y+3097799D01*
X-3823647Y+3097799D01*
X-3877000Y+3044446D01*
X-3877001Y+3044447D01*
X-3877001Y+3089624D01*
X-3875070Y+3149544D01*
X-3873955Y+3151629D01*
X-3872569Y+3153317D01*
X-3870881Y+3154703D01*
X-3868796Y+3155818D01*
X-3808876Y+3157749D01*
X-2870719Y+3157749D01*
X-2814689Y+3156059D01*
G37*
G36*
X-208702Y+2202353D02*
X-163797Y+2188757D01*
X-122501Y+2166671D01*
X-121925Y+2166199D01*
X-895701Y+2166199D01*
X-895701Y+2208245D01*
X-303328Y+2208245D01*
X-208702Y+2202353D01*
G37*
G36*
X+5465515Y+1836000D02*
X+5445000Y+1815485D01*
X+5424485Y+1836000D01*
X+5445000Y+1856515D01*
X+5465515Y+1836000D01*
G37*
G36*
X+5465515Y+1582000D02*
X+5445000Y+1561485D01*
X+5424485Y+1582000D01*
X+5445000Y+1602515D01*
X+5465515Y+1582000D01*
G37*
G36*
X+5465515Y+1328000D02*
X+5445000Y+1307485D01*
X+5424485Y+1328000D01*
X+5445000Y+1348515D01*
X+5465515Y+1328000D01*
G37*
G36*
X-4259199Y+1168601D02*
X-4259199Y+1168599D01*
X-4461789Y+1168599D01*
X-4489972Y+1162241D01*
X-4499587Y+1159330D01*
X-4555845Y+1142295D01*
X-4564703Y+1137558D01*
X-4615475Y+1110404D01*
X-4623206Y+1104057D01*
X-4667269Y+1067880D01*
X-4683760Y+1047795D01*
X-4680426Y+1110655D01*
X-4672945Y+1135364D01*
X-4660420Y+1158783D01*
X-4643865Y+1178945D01*
X-4623703Y+1195500D01*
X-4600284Y+1208025D01*
X-4575575Y+1215506D01*
X-4502131Y+1219401D01*
X-4259199Y+1219401D01*
X-4259199Y+1168601D01*
G37*
G36*
X+5465515Y+1074000D02*
X+5445000Y+1053485D01*
X+5424485Y+1074000D01*
X+5445000Y+1094515D01*
X+5465515Y+1074000D01*
G37*
G36*
X-4259199Y+914601D02*
X-4259199Y+914599D01*
X-4416966Y+914599D01*
X-4433951Y+909331D01*
X-4489462Y+892523D01*
X-4539771Y+865617D01*
X-4561045Y+848151D01*
X-4560802Y+852676D01*
X-4553031Y+878342D01*
X-4540053Y+902608D01*
X-4522897Y+923504D01*
X-4501996Y+940664D01*
X-4477732Y+953641D01*
X-4452067Y+961412D01*
X-4377621Y+965401D01*
X-4259199Y+965401D01*
X-4259199Y+914601D01*
G37*
G36*
X+5465515Y+820000D02*
X+5445000Y+799485D01*
X+5424485Y+820000D01*
X+5445000Y+840515D01*
X+5465515Y+820000D01*
G37*
G36*
X+5465515Y+566000D02*
X+5445000Y+545485D01*
X+5424485Y+566000D01*
X+5445000Y+586515D01*
X+5465515Y+566000D01*
G37*
G36*
X+5465515Y+312000D02*
X+5445000Y+291485D01*
X+5424485Y+312000D01*
X+5445000Y+332515D01*
X+5465515Y+312000D01*
G37*
G36*
X+5465515Y+58000D02*
X+5445000Y+37485D01*
X+5424485Y+58000D01*
X+5445000Y+78515D01*
X+5465515Y+58000D01*
G37*
G36*
X+6065539Y+4471046D02*
X+6102476Y+4465591D01*
X+6138662Y+4456540D01*
X+6173107Y+4444213D01*
X+6205660Y+4428801D01*
X+6236239Y+4410451D01*
X+6264670Y+4389347D01*
X+6290820Y+4365638D01*
X+6314530Y+4339486D01*
X+6335634Y+4311056D01*
X+6353986Y+4280473D01*
X+6369397Y+4247923D01*
X+6381724Y+4213478D01*
X+6390775Y+4177290D01*
X+6396230Y+4140355D01*
X+6398401Y+4057916D01*
X+6398401Y+3333173D01*
X+6405201Y+3300448D01*
X+6426417Y+3230380D01*
X+6460323Y+3166982D01*
X+6466674Y+3159246D01*
X+6505536Y+3111914D01*
X+6560604Y+3066701D01*
X+6569425Y+3061983D01*
X+6624002Y+3032795D01*
X+6633618Y+3029883D01*
X+6694070Y+3011579D01*
X+6726795Y+3004779D01*
X+6964919Y+3004779D01*
X+7057626Y+2999069D01*
X+7100711Y+2986024D01*
X+7140393Y+2964802D01*
X+7174647Y+2936677D01*
X+7202770Y+2902425D01*
X+7223995Y+2862739D01*
X+7237038Y+2819659D01*
X+7242748Y+2726950D01*
X+7242748Y-2348256D01*
X+7239476Y-2415012D01*
X+7233944Y-2433285D01*
X+7224452Y-2451032D01*
X+7211931Y-2466283D01*
X+7196680Y-2478804D01*
X+7178933Y-2488296D01*
X+7160660Y-2493828D01*
X+7093904Y-2497100D01*
X+6128918Y-2497101D01*
X+6003405Y-2497100D01*
X+6016300Y-2484205D01*
X+6016300Y-2389517D01*
X+6003600Y-2376817D01*
X+6003600Y-1372917D01*
X+5995584Y-1327698D01*
X+5992674Y-1318085D01*
X+5970870Y-1246072D01*
X+5966132Y-1237212D01*
X+5931402Y-1172275D01*
X+5878797Y-1108204D01*
X+5814723Y-1055597D01*
X+5805902Y-1050879D01*
X+5740930Y-1016131D01*
X+5734743Y-1014258D01*
X+5678485Y-958000D01*
X+5737099Y-899386D01*
X+5737099Y-762614D01*
X+5678485Y-704000D01*
X+5737099Y-645386D01*
X+5737099Y-508614D01*
X+5678485Y-450000D01*
X+5737099Y-391386D01*
X+5737099Y-254614D01*
X+5678485Y-196000D01*
X+5737099Y-137386D01*
X+5737099Y-614D01*
X+5678485Y+58000D01*
X+5737099Y+116614D01*
X+5737099Y+253386D01*
X+5678485Y+312000D01*
X+5737099Y+370614D01*
X+5737099Y+507386D01*
X+5678485Y+566000D01*
X+5737099Y+624614D01*
X+5737099Y+761386D01*
X+5678485Y+820000D01*
X+5737099Y+878614D01*
X+5737099Y+1015386D01*
X+5678485Y+1074000D01*
X+5737099Y+1132614D01*
X+5737099Y+1269386D01*
X+5678485Y+1328000D01*
X+5737099Y+1386614D01*
X+5737099Y+1523386D01*
X+5678485Y+1582000D01*
X+5737099Y+1640614D01*
X+5737099Y+1777386D01*
X+5678485Y+1836000D01*
X+5737099Y+1894614D01*
X+5737099Y+2031386D01*
X+5700084Y+2068401D01*
X+5958070Y+2068401D01*
X+6026074Y+2065013D01*
X+6045543Y+2059119D01*
X+6064349Y+2049061D01*
X+6080515Y+2035787D01*
X+6093789Y+2019621D01*
X+6103846Y+2000816D01*
X+6109742Y+1981343D01*
X+6113129Y+1913342D01*
X+6125775Y+1881054D01*
X+6167087Y+1819180D01*
X+6183925Y+1807937D01*
X+6228961Y+1777868D01*
X+6261249Y+1765222D01*
X+6341738Y+1765222D01*
X+6354438Y+1752522D01*
X+6449126Y+1752522D01*
X+6462030Y+1765426D01*
X+6462030Y+1275687D01*
X+6464576Y+1262926D01*
X+6465304Y+1257995D01*
X+6472454Y+1209574D01*
X+6485345Y+1158038D01*
X+6487032Y+1153323D01*
X+6503016Y+1108662D01*
X+6505159Y+1104135D01*
X+6525237Y+1061726D01*
X+6527806Y+1057444D01*
X+6551753Y+1017536D01*
X+6582325Y+976354D01*
X+6585665Y+972669D01*
X+6616680Y+938459D01*
X+6620370Y+935113D01*
X+6654582Y+904095D01*
X+6695763Y+873528D01*
X+6700038Y+870962D01*
X+6739958Y+847006D01*
X+6786891Y+824787D01*
X+6792801Y+822672D01*
X+6792801Y-28999D01*
X+7199199Y-28999D01*
X+7199199Y+2561799D01*
X+6792801Y+2561799D01*
X+6792801Y+1054555D01*
X+6783692Y+1061317D01*
X+6760539Y+1082308D01*
X+6739546Y+1105464D01*
X+6720860Y+1130636D01*
X+6704610Y+1157717D01*
X+6690956Y+1186556D01*
X+6680034Y+1217074D01*
X+6672010Y+1249154D01*
X+6667191Y+1281793D01*
X+6665228Y+1359855D01*
X+6665228Y+2895058D01*
X+6652704Y+2926723D01*
X+6611726Y+2988097D01*
X+6550352Y+3029075D01*
X+6518687Y+3041599D01*
X+5407847Y+3041599D01*
X+5331647Y+3117799D01*
X+5184353Y+3117799D01*
X+5131000Y+3064446D01*
X+5129859Y+3065587D01*
X+5129859Y+3221899D01*
X+5122452Y+3229306D01*
X+5122008Y+3230773D01*
X+5111458Y+3265621D01*
X+5088661Y+3308244D01*
X+5080722Y+3317914D01*
X+5058202Y+3345342D01*
X+5044597Y+3356512D01*
X+5061475Y+3356512D01*
X+5128430Y+3423467D01*
X+5128430Y+3518155D01*
X+5061475Y+3585110D01*
X+4966787Y+3585110D01*
X+4954087Y+3572410D01*
X+4739537Y+3572409D01*
X+4507027Y+3572410D01*
X+4432887Y+3576370D01*
X+4407508Y+3584054D01*
X+4383501Y+3596894D01*
X+4362826Y+3613868D01*
X+4345852Y+3634543D01*
X+4333012Y+3658550D01*
X+4325328Y+3683929D01*
X+4321368Y+3758069D01*
X+4321368Y+3816801D01*
X+5630399Y+3816801D01*
X+5630399Y+4223199D01*
X+3801599Y+4223199D01*
X+3801599Y+4241977D01*
X+3806421Y+4325289D01*
X+3816759Y+4359435D01*
X+3833743Y+4391190D01*
X+3856233Y+4418582D01*
X+3883626Y+4441073D01*
X+3915381Y+4458057D01*
X+3949527Y+4468395D01*
X+4032839Y+4473217D01*
X+5983100Y+4473217D01*
X+6065539Y+4471046D01*
G37*
%LPC*%
G36*
X+7199199Y-645399D02*
X+7199199Y-2423399D01*
X+6792801Y-2423399D01*
X+6792801Y-340601D01*
X+7199199Y-340601D01*
X+7199199Y-645399D01*
G37*
%LPD*%
G36*
X+5465515Y-196000D02*
X+5445000Y-216515D01*
X+5424485Y-196000D01*
X+5445000Y-175485D01*
X+5465515Y-196000D01*
G37*
G36*
X+5465515Y-450000D02*
X+5445000Y-470515D01*
X+5424485Y-450000D01*
X+5445000Y-429485D01*
X+5465515Y-450000D01*
G37*
G36*
X+5465515Y-704000D02*
X+5445000Y-724515D01*
X+5424485Y-704000D01*
X+5445000Y-683485D01*
X+5465515Y-704000D01*
G37*
G36*
X+5465515Y-958000D02*
X+5445000Y-978515D01*
X+5424485Y-958000D01*
X+5445000Y-937485D01*
X+5465515Y-958000D01*
G37*
G36*
X+5465515Y-1212000D02*
X+5445000Y-1232515D01*
X+5424485Y-1212000D01*
X+5445000Y-1191485D01*
X+5465515Y-1212000D01*
G37*
G36*
X+5465515Y-1466000D02*
X+5445000Y-1486515D01*
X+5424485Y-1466000D01*
X+5445000Y-1445485D01*
X+5465515Y-1466000D01*
G37*
G36*
X+5465515Y-1720000D02*
X+5445000Y-1740515D01*
X+5424485Y-1720000D01*
X+5445000Y-1699485D01*
X+5465515Y-1720000D01*
G37*
G36*
X+4459646Y+165336D02*
X+4488662Y+161051D01*
X+4517332Y+153880D01*
X+4542211Y+144976D01*
X+4594257Y+117141D01*
X+4637283Y+81814D01*
X+4672610Y+38788D01*
X+4700445Y-13258D01*
X+4709349Y-38137D01*
X+4716518Y-66799D01*
X+4720804Y-95828D01*
X+4722593Y-170236D01*
X+4722594Y-1214598D01*
X+4722593Y-2343127D01*
X+4729966Y-2381734D01*
X+4734337Y-2396170D01*
X+4752828Y-2457244D01*
X+4789351Y-2525536D01*
X+4838045Y-2584844D01*
X+4897354Y-2633539D01*
X+4946460Y-2659801D01*
X+3159001Y-2659801D01*
X+3159001Y-3066199D01*
X+5241799Y-3066199D01*
X+5241799Y-2700298D01*
X+5658211Y-2700298D01*
X+5658211Y-2783029D01*
X+5670911Y-2795729D01*
X+5670911Y-3343013D01*
X+5658211Y-3355713D01*
X+5658211Y-3450401D01*
X+5658680Y-3450870D01*
X+5377597Y-3450870D01*
X+5380043Y-3448862D01*
X+5420439Y-3399660D01*
X+5450733Y-3343017D01*
X+5469669Y-3280474D01*
X+5475678Y-3255886D01*
X+5475678Y-3171718D01*
X+5475677Y-2965063D01*
X+5478417Y-2962323D01*
X+5478417Y-2867635D01*
X+5411462Y-2800680D01*
X+5316774Y-2800680D01*
X+5249819Y-2867635D01*
X+5249819Y-2962323D01*
X+5272481Y-2984985D01*
X+5272480Y-3171718D01*
X+5268821Y-3242633D01*
X+5262076Y-3264910D01*
X+5250699Y-3286181D01*
X+5235667Y-3304490D01*
X+5217363Y-3319519D01*
X+5196085Y-3330898D01*
X+5173812Y-3337643D01*
X+5102897Y-3341301D01*
X-856641Y-3341301D01*
X-856641Y-3295949D01*
X-923596Y-3228994D01*
X-1018284Y-3228994D01*
X-1021023Y-3231733D01*
X-3852801Y-3231733D01*
X-3852801Y-1785060D01*
X-3827651Y-1796967D01*
X-3797046Y-1815333D01*
X-3768593Y-1836453D01*
X-3742425Y-1860178D01*
X-3718700Y-1886346D01*
X-3697580Y-1914799D01*
X-3679214Y-1945404D01*
X-3663772Y-1978021D01*
X-3651424Y-2012526D01*
X-3642341Y-2048839D01*
X-3636906Y-2085639D01*
X-3634646Y-2179173D01*
X-3626887Y-2212459D01*
X-3602503Y-2292993D01*
X-3563510Y-2365902D01*
X-3511501Y-2429246D01*
X-3501856Y-2437166D01*
X-3448157Y-2481255D01*
X-3437133Y-2487151D01*
X-3375248Y-2520248D01*
X-3294714Y-2544632D01*
X-3261428Y-2552391D01*
X-2399199Y-2552391D01*
X-2378132Y-2545821D01*
X-2362075Y-2540959D01*
X-2308902Y-2524861D01*
X-2246154Y-2491301D01*
X-2191614Y-2446523D01*
X-2146836Y-2391983D01*
X-2113276Y-2329235D01*
X-2092316Y-2260005D01*
X-2085746Y-2238938D01*
X-2085746Y-1817034D01*
X-2025711Y-1756999D01*
X-1206289Y-1756999D01*
X-1156999Y-1806289D01*
X-1156999Y-2659801D01*
X-1438399Y-2659801D01*
X-1438399Y-3066199D01*
X+644399Y-3066199D01*
X+644399Y-2659801D01*
X-422401Y-2659801D01*
X-422401Y-2571672D01*
X-419951Y-2513785D01*
X-417024Y-2504118D01*
X-411567Y-2493915D01*
X-404419Y-2485210D01*
X-395709Y-2478058D01*
X-385510Y-2472603D01*
X-375842Y-2469676D01*
X-317955Y-2467226D01*
X-58974Y-2467226D01*
X-16053Y-2459434D01*
X+63441Y-2435364D01*
X+135325Y-2396919D01*
X+143056Y-2390572D01*
X+197737Y-2345677D01*
X+248979Y-2283265D01*
X+253699Y-2274440D01*
X+287424Y-2211381D01*
X+290335Y-2201768D01*
X+311494Y-2131887D01*
X+319286Y-2088966D01*
X+319286Y-1491318D01*
X+322387Y-1426390D01*
X+327384Y-1409887D01*
X+336045Y-1393694D01*
X+347459Y-1379791D01*
X+361362Y-1368377D01*
X+377555Y-1359716D01*
X+394058Y-1354719D01*
X+458986Y-1351618D01*
X+566801Y-1351618D01*
X+566801Y-2387399D01*
X+973199Y-2387399D01*
X+973199Y-837999D01*
X+1121605Y-837999D01*
X+1145113Y-831191D01*
X+1157123Y-827555D01*
X+1198348Y-815073D01*
X+1198348Y-906755D01*
X+1211048Y-919455D01*
X+1211048Y-1044682D01*
X+1215966Y-1058072D01*
X+1231766Y-1110254D01*
X+1257074Y-1157577D01*
X+1290847Y-1198711D01*
X+1331981Y-1232484D01*
X+1379306Y-1257793D01*
X+1431484Y-1273591D01*
X+1444876Y-1278510D01*
X+1728260Y-1278510D01*
X+1757527Y-1266456D01*
X+1816965Y-1226771D01*
X+1856653Y-1167329D01*
X+1868706Y-1138064D01*
X+1868706Y-901495D01*
X+1871089Y-873982D01*
X+1898602Y-871599D01*
X+1966801Y-871599D01*
X+1966801Y-2423399D01*
X+2373199Y-2423399D01*
X+2373199Y-871599D01*
X+2840103Y-871599D01*
X+2852803Y-884299D01*
X+2947491Y-884299D01*
X+3014446Y-817344D01*
X+3014446Y-722656D01*
X+2947491Y-655701D01*
X+2852803Y-655701D01*
X+2840103Y-668401D01*
X+1814434Y-668401D01*
X+1781829Y-681109D01*
X+1719699Y-722592D01*
X+1708456Y-739430D01*
X+1678216Y-784722D01*
X+1665508Y-817327D01*
X+1665508Y-1053896D01*
X+1663923Y-1073727D01*
X+1644092Y-1075312D01*
X+1529044Y-1075312D01*
X+1469095Y-1072672D01*
X+1457412Y-1069134D01*
X+1445454Y-1062739D01*
X+1435221Y-1054337D01*
X+1426819Y-1044104D01*
X+1420423Y-1032145D01*
X+1416886Y-1020464D01*
X+1414246Y-960514D01*
X+1414246Y-919455D01*
X+1426946Y-906755D01*
X+1426946Y-812067D01*
X+1359991Y-745112D01*
X+1317663Y-745112D01*
X+1337678Y-728678D01*
X+1345598Y-719033D01*
X+1383900Y-672383D01*
X+1390665Y-659735D01*
X+1418546Y-607604D01*
X+1440191Y-536113D01*
X+1446999Y-512605D01*
X+1450357Y-437046D01*
X+1454960Y-421844D01*
X+1463238Y-406366D01*
X+1474116Y-393118D01*
X+1487369Y-382236D01*
X+1502843Y-373961D01*
X+1518046Y-369357D01*
X+1593605Y-365999D01*
X+1966801Y-365999D01*
X+1966801Y-645399D01*
X+2373199Y-645399D01*
X+2373199Y-368161D01*
X+3020574Y-368161D01*
X+3110576Y-370254D01*
X+3143888Y-375173D01*
X+3176876Y-383424D01*
X+3208208Y-394637D01*
X+3237815Y-408655D01*
X+3265589Y-425321D01*
X+3291413Y-444490D01*
X+3315147Y-466007D01*
X+3336678Y-489756D01*
X+3355837Y-515567D01*
X+3372506Y-543346D01*
X+3386521Y-572947D01*
X+3397740Y-604294D01*
X+3405989Y-637274D01*
X+3410908Y-670586D01*
X+3413001Y-760588D01*
X+3413001Y-1403711D01*
X+3311401Y-1505311D01*
X+3311401Y-1694689D01*
X+3445311Y-1828599D01*
X+3634689Y-1828599D01*
X+3768599Y-1694689D01*
X+3768599Y-1505311D01*
X+3666999Y-1403711D01*
X+3666999Y-655378D01*
X+3664189Y-647085D01*
X+3663278Y-640914D01*
X+3655434Y-587795D01*
X+3651967Y-573935D01*
X+3641103Y-530497D01*
X+3621451Y-475584D01*
X+3596729Y-423367D01*
X+3567225Y-374200D01*
X+3563506Y-369189D01*
X+3533206Y-328369D01*
X+3529027Y-323759D01*
X+3494972Y-286197D01*
X+3452784Y-247949D01*
X+3406965Y-213938D01*
X+3399467Y-209438D01*
X+3357794Y-184432D01*
X+3305586Y-159714D01*
X+3250662Y-140058D01*
X+3193367Y-125728D01*
X+3134077Y-116973D01*
X+3125784Y-114163D01*
X+2373199Y-114163D01*
X+2373199Y+167124D01*
X+4385233Y+167124D01*
X+4459646Y+165336D01*
G37*
%LPC*%
G36*
X+2930399Y-3066199D02*
X+847601Y-3066199D01*
X+847601Y-2659801D01*
X+2930399Y-2659801D01*
X+2930399Y-3066199D01*
G37*
G36*
X+3819401Y-1694689D02*
X+3819401Y-1505311D01*
X+3953311Y-1371401D01*
X+4142689Y-1371401D01*
X+4276599Y-1505311D01*
X+4276599Y-1694689D01*
X+4142689Y-1828599D01*
X+3953311Y-1828599D01*
X+3819401Y-1694689D01*
G37*
%LPD*%
G36*
X+5465515Y-1974000D02*
X+5445000Y-1994515D01*
X+5424485Y-1974000D01*
X+5445000Y-1953485D01*
X+5465515Y-1974000D01*
G37*
G36*
X+5465515Y-2228000D02*
X+5445000Y-2248515D01*
X+5424485Y-2228000D01*
X+5445000Y-2207485D01*
X+5465515Y-2228000D01*
G37*
G36*
X+5480615Y-2497100D02*
X+5409385Y-2497100D01*
X+5445000Y-2461485D01*
X+5480615Y-2497100D01*
G37*
G36*
X+5701252Y-1225343D02*
X+5734423Y-1252578D01*
X+5761660Y-1285751D01*
X+5782214Y-1324184D01*
X+5794832Y-1365858D01*
X+5800402Y-1457085D01*
X+5800402Y-2376817D01*
X+5787702Y-2389517D01*
X+5787702Y-2484205D01*
X+5800597Y-2497100D01*
X+5663385Y-2497100D01*
X+5737099Y-2423386D01*
X+5737099Y-2286614D01*
X+5678485Y-2228000D01*
X+5737099Y-2169386D01*
X+5737099Y-2032614D01*
X+5678485Y-1974000D01*
X+5737099Y-1915386D01*
X+5737099Y-1778614D01*
X+5678485Y-1720000D01*
X+5737099Y-1661386D01*
X+5737099Y-1524614D01*
X+5678485Y-1466000D01*
X+5737099Y-1407386D01*
X+5737099Y-1270614D01*
X+5680993Y-1214508D01*
X+5701252Y-1225343D01*
G37*
D10*
X-4250000Y+4680000D02*
X-4250000Y+4450000D01*
X-4246081Y+4430007D01*
X-4235316Y+4413884D01*
X-4219193Y+4403119D01*
X-4199200Y+4399200D01*
X-4004000Y+2920000D02*
X-4004000Y+3142229D01*
X-4001164Y+3171369D01*
X-3993005Y+3198318D01*
X-3980044Y+3222552D01*
X-3962803Y+3243551D01*
X-3941804Y+3260792D01*
X-3917570Y+3273753D01*
X-3890621Y+3281912D01*
X-3861481Y+3284748D01*
X-2818114Y+3284748D02*
X-2791101Y+3282119D01*
X-2766120Y+3274556D01*
X-2743654Y+3262541D01*
X-2724189Y+3246559D01*
X-2708207Y+3227093D01*
X-2696192Y+3204628D01*
X-2688629Y+3179647D01*
X-2686000Y+3152634D01*
X-2686000Y+2930000D01*
X-2890000Y+3284748D02*
X-2818114Y+3284748D01*
X-1548115Y+3284748D01*
X-1523146Y+3282318D01*
X-1500056Y+3275327D01*
X-1479291Y+3264221D01*
X-1461299Y+3249449D01*
X-1446526Y+3231457D01*
X-1435421Y+3210692D01*
X-1428430Y+3187601D01*
X-1426000Y+3162633D01*
X-1426000Y+2930000D01*
X-3861481Y+3284748D02*
X-2890000Y+3284748D01*
X-350000Y+3290000D02*
X-350000Y+4050000D01*
X-360000Y+4060000D01*
X-1600000Y+3290000D02*
X-350000Y+3290000D01*
X-300000Y+3290000D01*
X+970000Y+3290000D02*
X+1001488Y+3286936D01*
X+1030607Y+3278119D01*
X+1056794Y+3264114D01*
X+1079484Y+3245484D01*
X+1098114Y+3222794D01*
X+1112119Y+3196607D01*
X+1120936Y+3167488D01*
X+1124000Y+3136000D01*
X+1124000Y+2930000D01*
X+2265185Y+3290000D02*
X+2290740Y+3287513D01*
X+2314372Y+3280358D01*
X+2335625Y+3268991D01*
X+2354040Y+3253872D01*
X+2369159Y+3235457D01*
X+2380526Y+3214204D01*
X+2387681Y+3190572D01*
X+2390168Y+3165017D01*
X+2390168Y+3031600D01*
X+2394000Y+2930000D01*
X+2210000Y+3290000D02*
X+2265185Y+3290000D01*
X+3566092Y+3290000D02*
X+3594290Y+3287256D01*
X+3620366Y+3279361D01*
X+3643817Y+3266819D01*
X+3664136Y+3250136D01*
X+3680819Y+3229817D01*
X+3693361Y+3206366D01*
X+3701256Y+3180290D01*
X+3704000Y+3152092D01*
X+3704000Y+2940000D01*
X+970000Y+3290000D02*
X+2210000Y+3290000D01*
X+3520000Y+3290000D02*
X+3566092Y+3290000D01*
X+4882154Y+3290000D01*
X+4906834Y+3287598D01*
X+4929658Y+3280688D01*
X+4950183Y+3269710D01*
X+4967968Y+3255108D01*
X+4982570Y+3237324D01*
X+4993548Y+3216798D01*
X+5000458Y+3193974D01*
X+5002860Y+3169294D01*
X+5002860Y+3041600D01*
X+5004000Y+2940000D01*
X+2265185Y+3290000D02*
X+3520000Y+3290000D01*
X-170000Y+3290000D02*
X-170000Y+2934000D01*
X-156000Y+2920000D01*
X-300000Y+3290000D02*
X-170000Y+3290000D01*
X+970000Y+3290000D01*
X-1426000Y+2930000D02*
X-1426000Y+2818407D01*
X-1423920Y+2797036D01*
X-1417936Y+2777273D01*
X-1408431Y+2759500D01*
X-1395787Y+2744100D01*
X-1380387Y+2731457D01*
X-1362615Y+2721951D01*
X-1342852Y+2715968D01*
X-1321481Y+2713888D01*
X-237491Y+2713888D01*
X-205420Y+2720175D01*
X-179556Y+2737444D01*
X-162287Y+2763308D01*
X-156000Y+2795379D01*
X-156000Y+2920000D01*
X-3169811Y+4399200D02*
X-3150800Y+4399200D01*
X-3115065Y+4406205D01*
X-3086247Y+4425447D01*
X-3067005Y+4454265D01*
X-3060000Y+4490000D01*
D11*
X+5014131Y+3470811D02*
X+4464943Y+3470811D01*
X+4414813Y+3475689D01*
X+4368453Y+3489726D01*
X+4326763Y+3512022D01*
X+4290639Y+3541681D01*
X+4260980Y+3577805D01*
X+4238684Y+3619495D01*
X+4224647Y+3665855D01*
X+4219769Y+3715985D01*
X+4219769Y+3893000D01*
X+4208000Y+4020000D01*
X+6347876Y+2833360D02*
X+6347876Y+2676448D01*
X+6342176Y+2617879D01*
X+6325777Y+2563715D01*
X+6299727Y+2515006D01*
X+6265075Y+2472801D01*
X+6222870Y+2438149D01*
X+6174161Y+2412099D01*
X+6119997Y+2395700D01*
X+6061428Y+2390000D01*
X+4790000Y+2390000D01*
X+4729000Y+2390000D01*
X+4684623Y+2387843D01*
X+4641692Y+2381504D01*
X+4600403Y+2371177D01*
X+4560952Y+2357058D01*
X+4523533Y+2339342D01*
X+4488343Y+2318225D01*
X+4455577Y+2293903D01*
X+4425430Y+2266570D01*
X+4398097Y+2236423D01*
X+4373775Y+2203656D01*
X+4352658Y+2168466D01*
X+4334942Y+2131048D01*
X+4320823Y+2091596D01*
X+4310496Y+2050308D01*
X+4304157Y+2007377D01*
X+4302000Y+1963000D01*
X+5258000Y+2940000D02*
X+6476603Y+2940000D01*
X+6510852Y+2933286D01*
X+6538473Y+2914844D01*
X+6556915Y+2887223D01*
X+6563629Y+2852974D01*
X+6563629Y+1317771D01*
X+6565813Y+1272836D01*
X+6572232Y+1229365D01*
X+6582689Y+1187557D01*
X+6596986Y+1147609D01*
X+6614924Y+1109720D01*
X+6636306Y+1074087D01*
X+6660935Y+1040909D01*
X+6688611Y+1010382D01*
X+6719137Y+982706D01*
X+6752316Y+958078D01*
X+6787949Y+936695D01*
X+6825838Y+918757D01*
X+6865786Y+904460D01*
X+6907594Y+894003D01*
X+6951065Y+887584D01*
X+6996000Y+885400D01*
X+4373720Y+1551782D02*
X+4708448Y+1551782D01*
X+4750721Y+1555896D01*
X+4789813Y+1567732D01*
X+4824969Y+1586534D01*
X+4855431Y+1611544D01*
X+4880441Y+1642005D01*
X+4899243Y+1677161D01*
X+4911079Y+1716254D01*
X+4915193Y+1758527D01*
X+4915193Y+1905193D01*
X+4920462Y+1959337D01*
X+4935622Y+2009409D01*
X+4959705Y+2054437D01*
X+4991739Y+2093454D01*
X+5030755Y+2125488D01*
X+5075784Y+2149570D01*
X+5125855Y+2164731D01*
X+5180000Y+2170000D01*
X+6000154Y+2170000D01*
X+6044027Y+2165730D01*
X+6084600Y+2153446D01*
X+6121087Y+2133932D01*
X+6152702Y+2107974D01*
X+6178660Y+2076359D01*
X+6198174Y+2039872D01*
X+6210459Y+1999299D01*
X+6214728Y+1955426D01*
X+6221564Y+1920555D01*
X+6240340Y+1892433D01*
X+6268462Y+1873657D01*
X+6303333Y+1866821D01*
X+6401782Y+1866821D01*
X-676400Y+1963000D02*
X-676400Y+1706400D01*
X-673885Y+1680555D01*
X-666648Y+1656655D01*
X-655153Y+1635161D01*
X-639862Y+1616538D01*
X-621239Y+1601247D01*
X-599745Y+1589752D01*
X-575845Y+1582515D01*
X-550000Y+1580000D01*
X+3498836Y+1580000D01*
X+3532787Y+1576696D01*
X+3564184Y+1567190D01*
X+3592420Y+1552089D01*
X+3616885Y+1532002D01*
X+3636972Y+1507537D01*
X+3652073Y+1479301D01*
X+3661579Y+1447904D01*
X+3664883Y+1413953D01*
X+3664883Y+1374573D01*
X+3668997Y+1332300D01*
X+3680833Y+1293208D01*
X+3699635Y+1258052D01*
X+3724645Y+1227591D01*
X+3755106Y+1202581D01*
X+3790262Y+1183779D01*
X+3829354Y+1171943D01*
X+3871627Y+1167829D01*
X+4501705Y+1167829D01*
X+4511550Y+1177674D01*
X-1010000Y+2201550D02*
X-4011550Y+2201550D01*
X-4064395Y+2206692D01*
X-4113264Y+2221489D01*
X-4157212Y+2244993D01*
X-4195292Y+2276258D01*
X-4226557Y+2314338D01*
X-4250061Y+2358285D01*
X-4264858Y+2407155D01*
X-4270000Y+2460000D01*
X-4270000Y+2818400D01*
X-4258000Y+2920000D01*
X-2940000Y+2930000D02*
X-2940000Y+2426899D01*
X-2937671Y+2402965D01*
X-2930969Y+2380831D01*
X-2920324Y+2360927D01*
X-2906164Y+2343680D01*
X-2888917Y+2329520D01*
X-2869012Y+2318875D01*
X-2846879Y+2312173D01*
X-2822945Y+2309844D01*
X-261244Y+2309844D01*
X-190326Y+2302943D01*
X-124742Y+2283085D01*
X-65763Y+2251543D01*
X-14660Y+2209584D01*
X+27299Y+2158480D01*
X+58842Y+2099502D01*
X+78699Y+2033918D01*
X+85600Y+1963000D01*
X-1680000Y+2930000D02*
X-1680000Y+2506744D01*
X-1677649Y+2482584D01*
X-1670884Y+2460242D01*
X-1660138Y+2440149D01*
X-1645844Y+2422740D01*
X-1628435Y+2408446D01*
X-1608342Y+2397700D01*
X-1586000Y+2390935D01*
X-1561840Y+2388584D01*
X+66416Y+2388584D01*
X+110646Y+2386435D01*
X+153434Y+2380116D01*
X+194586Y+2369823D01*
X+233907Y+2355751D01*
X+271201Y+2338094D01*
X+306275Y+2317047D01*
X+338933Y+2292806D01*
X+368980Y+2265564D01*
X+396222Y+2235516D01*
X+420463Y+2202859D01*
X+441510Y+2167785D01*
X+459167Y+2130491D01*
X+473239Y+2091170D01*
X+483532Y+2050018D01*
X+489851Y+2007230D01*
X+492000Y+1963000D01*
X+3450000Y+2940000D02*
X+3450000Y+2656123D01*
X+3447853Y+2611950D01*
X+3441543Y+2569216D01*
X+3431263Y+2528117D01*
X+3417209Y+2488847D01*
X+3399575Y+2451601D01*
X+3378555Y+2416572D01*
X+3354344Y+2383956D01*
X+3327137Y+2353948D01*
X+3297128Y+2326741D01*
X+3264512Y+2302530D01*
X+3229484Y+2281510D01*
X+3192237Y+2263876D01*
X+3152967Y+2249822D01*
X+3111868Y+2239542D01*
X+3069135Y+2233232D01*
X+3024962Y+2231085D01*
X+1570000Y+2231085D01*
X+1545600Y+2226302D01*
X+1525922Y+2213163D01*
X+1512783Y+2193485D01*
X+1508000Y+2169085D01*
X+1508000Y+1963000D01*
X+4464943Y+3470811D02*
X+2251189Y+3470811D01*
X+2195152Y+3473534D01*
X+2140942Y+3481539D01*
X+2088805Y+3494580D01*
X+2038989Y+3512409D01*
X+1991739Y+3534779D01*
X+1947303Y+3561444D01*
X+1905927Y+3592156D01*
X+1867859Y+3626670D01*
X+1833345Y+3664738D01*
X+1802633Y+3706114D01*
X+1775968Y+3750550D01*
X+1753598Y+3797800D01*
X+1735769Y+3847616D01*
X+1722729Y+3899753D01*
X+1714723Y+3953963D01*
X+1712000Y+4010000D01*
D10*
X-1032000Y-2863000D02*
X-778000Y-2863000D01*
X-1030000Y-1610000D02*
X-1030000Y-2861000D01*
X-1032000Y-2863000D01*
X-2222000Y-1630000D02*
X-1050000Y-1630000D01*
X-1030000Y-1610000D01*
X-2730000Y-1630000D02*
X-2730000Y-1495968D01*
X-2723642Y-1430633D01*
X-2705348Y-1370213D01*
X-2676289Y-1315878D01*
X-2637634Y-1268798D01*
X-2590554Y-1230143D01*
X-2536219Y-1201084D01*
X-2475799Y-1182790D01*
X-2410464Y-1176432D01*
X-835270Y-1176432D02*
X-771216Y-1182665D01*
X-711981Y-1200600D01*
X-658711Y-1229090D01*
X-612554Y-1266986D01*
X-574657Y-1313143D01*
X-546168Y-1366413D01*
X-528233Y-1425648D01*
X-522000Y-1489702D01*
X-522000Y-1610000D01*
X+3540000Y-1600000D02*
X+3540000Y-707983D01*
X+3537642Y-659467D01*
X+3530711Y-612533D01*
X+3519421Y-567394D01*
X+3503985Y-524263D01*
X+3484617Y-483355D01*
X+3461531Y-444883D01*
X+3434941Y-409061D01*
X+3405059Y-376102D01*
X+3372100Y-346221D01*
X+3336278Y-319630D01*
X+3297806Y-296544D01*
X+3256898Y-277176D01*
X+3213768Y-261741D01*
X+3168629Y-250451D01*
X+3121695Y-243520D01*
X+3073179Y-241162D01*
X+2297000Y-241162D01*
X+2170000Y-239000D01*
D11*
X+2170000Y+15000D02*
X+2170000Y-239000D01*
D10*
X+770000Y-711000D02*
X+1069000Y-711000D01*
X+1120321Y-706006D01*
X+1167782Y-691636D01*
X+1210463Y-668809D01*
X+1247445Y-638445D01*
X+1277809Y-601463D01*
X+1300636Y-558782D01*
X+1315006Y-511321D01*
X+1320000Y-460000D01*
X+1324397Y-414812D01*
X+1337050Y-373024D01*
X+1357148Y-335444D01*
X+1383883Y-302883D01*
X+1416445Y-276148D01*
X+1454024Y-256050D01*
X+1495812Y-243397D01*
X+1541000Y-239000D01*
X+2170000Y-239000D01*
D11*
X+3700000Y+4020000D02*
X+3700000Y+4284061D01*
X+3705785Y+4343511D01*
X+3722431Y+4398489D01*
X+3748873Y+4447930D01*
X+3784046Y+4490769D01*
X+3826886Y+4525943D01*
X+3876327Y+4552385D01*
X+3931305Y+4569031D01*
X+3990755Y+4574816D01*
X+6025184Y+4574816D01*
X+6074531Y+4572418D01*
X+6122269Y+4565368D01*
X+6168181Y+4553885D01*
X+6212050Y+4538185D01*
X+6253659Y+4518485D01*
X+6292789Y+4495004D01*
X+6329225Y+4467958D01*
X+6362748Y+4437564D01*
X+6393141Y+4404041D01*
X+6420188Y+4367606D01*
X+6443669Y+4328475D01*
X+6463369Y+4286866D01*
X+6479069Y+4242997D01*
X+6490552Y+4197085D01*
X+6497602Y+4149346D01*
X+6500000Y+4100000D01*
X+6500000Y+3375257D01*
X+6505350Y+3320280D01*
X+6520744Y+3269438D01*
X+6545196Y+3223717D01*
X+6577723Y+3184101D01*
X+6617339Y+3151574D01*
X+6663060Y+3127122D01*
X+6713902Y+3111728D01*
X+6768879Y+3106378D01*
X+7007003Y+3106378D01*
X+7075979Y+3099666D01*
X+7139766Y+3080352D01*
X+7197130Y+3049674D01*
X+7246834Y+3008864D01*
X+7287643Y+2959161D01*
X+7318322Y+2901797D01*
X+7337635Y+2838010D01*
X+7344347Y+2769034D01*
X+7344347Y-2390340D01*
X+7340201Y-2432942D01*
X+7328272Y-2472340D01*
X+7309324Y-2507770D01*
X+7284118Y-2538470D01*
X+7253418Y-2563676D01*
X+7217988Y-2582624D01*
X+7178590Y-2594553D01*
X+7135988Y-2598699D01*
X+5121848Y-2598699D01*
X+5060987Y-2592776D01*
X+5004704Y-2575735D01*
X+4954089Y-2548666D01*
X+4910233Y-2512658D01*
X+4874225Y-2468801D01*
X+4847156Y-2418187D01*
X+4830115Y-2361904D01*
X+4824192Y-2301043D01*
X+4824192Y-128152D01*
X+4822187Y-86906D01*
X+4816295Y-47004D01*
X+4806697Y-8628D01*
X+4793574Y+28040D01*
X+4757481Y+95526D01*
X+4709470Y+154001D01*
X+4650995Y+202012D01*
X+4583509Y+238105D01*
X+4546841Y+251228D01*
X+4508465Y+260826D01*
X+4468563Y+266719D01*
X+4427317Y+268723D01*
X+2170277Y+268723D01*
X+2170000Y+269000D01*
D10*
X-4056000Y-1625400D02*
X-4008815Y-1625400D01*
X-3956730Y-1627931D01*
X-3906342Y-1635372D01*
X-3857882Y-1647493D01*
X-3811578Y-1664064D01*
X-3767660Y-1684857D01*
X-3726357Y-1709642D01*
X-3687900Y-1738189D01*
X-3652516Y-1770269D01*
X-3620436Y-1805653D01*
X-3591889Y-1844110D01*
X-3567104Y-1885413D01*
X-3546311Y-1929331D01*
X-3529740Y-1975635D01*
X-3517619Y-2024095D01*
X-3510178Y-2074483D01*
X-3507647Y-2126568D01*
X-3501701Y-2187668D01*
X-3484593Y-2244171D01*
X-3457417Y-2294985D01*
X-3421268Y-2339013D01*
X-3377240Y-2375162D01*
X-3326426Y-2402338D01*
X-3269923Y-2419446D01*
X-3208823Y-2425392D01*
X-2621137Y-2425392D01*
X-2451804Y-2425392D01*
X-2402924Y-2420635D01*
X-2357721Y-2406949D01*
X-2317071Y-2385208D01*
X-2281848Y-2356289D01*
X-2252929Y-2321066D01*
X-2231188Y-2280416D01*
X-2217502Y-2235213D01*
X-2212745Y-2186333D01*
X-2212745Y-1782400D01*
X-2222000Y-1630000D01*
X-1555333Y+1150529D02*
X-409843Y+1150529D01*
X-361188Y+1148164D01*
X-314120Y+1141214D01*
X-268851Y+1129891D01*
X-225597Y+1114411D01*
X-184572Y+1094988D01*
X-145990Y+1071836D01*
X-110065Y+1045169D01*
X-77012Y+1015202D01*
X-47045Y+982149D01*
X-20378Y+946225D01*
X+2774Y+907642D01*
X+22197Y+866617D01*
X+37677Y+823363D01*
X+48999Y+778095D01*
X+55950Y+731026D01*
X+58314Y+682372D01*
X+58314Y-373470D01*
X+65449Y-446789D01*
X+85978Y-514594D01*
X+118589Y-575569D01*
X+161968Y-628403D01*
X+214802Y-671782D01*
X+275778Y-704393D01*
X+343582Y-724923D01*
X+416902Y-732058D01*
X+748942Y-732058D01*
X+770000Y-711000D01*
D11*
X-524000Y-2863000D02*
X-524000Y-2529588D01*
X-520738Y-2496063D01*
X-511351Y-2465060D01*
X-496440Y-2437179D01*
X-476605Y-2413022D01*
X-452447Y-2393187D01*
X-424567Y-2378276D01*
X-393564Y-2368889D01*
X-360039Y-2365627D01*
X-101058Y-2365627D01*
X-35885Y-2359285D01*
X+24386Y-2341036D01*
X+78586Y-2312049D01*
X+125550Y-2273490D01*
X+164109Y-2226526D01*
X+193096Y-2172326D01*
X+211345Y-2112055D01*
X+217687Y-2046882D01*
X+217687Y-1449234D01*
X+221651Y-1408501D01*
X+233056Y-1370832D01*
X+251173Y-1336956D01*
X+275272Y-1307604D01*
X+304624Y-1283505D01*
X+338500Y-1265388D01*
X+376169Y-1253983D01*
X+416902Y-1250019D01*
X+738981Y-1250019D01*
X+770000Y-1219000D01*
X-4056000Y+1321000D02*
X-4544215Y+1321000D01*
X-4593636Y+1316191D01*
X-4639339Y+1302353D01*
X-4680440Y+1280372D01*
X-4716052Y+1251132D01*
X-4745292Y+1215520D01*
X-4767273Y+1174419D01*
X-4781111Y+1128716D01*
X-4785920Y+1079295D01*
X-4785920Y-3373175D01*
X-4782353Y-3409835D01*
X-4772088Y-3443737D01*
X-4755782Y-3474224D01*
X-4734092Y-3500642D01*
X-4707675Y-3522331D01*
X-4677188Y-3538637D01*
X-4643286Y-3548901D01*
X-4606626Y-3552469D01*
X+5772511Y-3552469D01*
X+5798987Y-3549892D01*
X+5823472Y-3542479D01*
X+5845491Y-3530703D01*
X+5864570Y-3515038D01*
X+5880235Y-3495959D01*
X+5892011Y-3473940D01*
X+5899424Y-3449455D01*
X+5902001Y-3422979D01*
X+5902001Y-3114194D01*
X+5902001Y-2436861D02*
X+5902001Y-1415001D01*
X+5895435Y-1347526D01*
X+5876542Y-1285127D01*
X+5846531Y-1229013D01*
X+5806610Y-1180391D01*
X+5757988Y-1140470D01*
X+5701873Y-1110459D01*
X+5639474Y-1091566D01*
X+5572000Y-1085000D01*
X-4056000Y+1067000D02*
X-4419705Y+1067000D01*
X-4470144Y+1062092D01*
X-4516789Y+1047968D01*
X-4558736Y+1025534D01*
X-4595083Y+995692D01*
X-4624925Y+959346D01*
X-4647359Y+917398D01*
X-4661482Y+870753D01*
X-4666391Y+820314D01*
X-4666391Y-3253645D01*
X-4662625Y-3292341D01*
X-4651790Y-3328127D01*
X-4634579Y-3360308D01*
X-4611684Y-3388193D01*
X-4583799Y-3411088D01*
X-4551618Y-3428299D01*
X-4515832Y-3439134D01*
X-4477136Y-3442900D01*
X+5144981Y-3442900D01*
X+5191824Y-3438342D01*
X+5235143Y-3425225D01*
X+5274100Y-3404391D01*
X+5307855Y-3376676D01*
X+5335569Y-3342921D01*
X+5356404Y-3303964D01*
X+5369520Y-3260645D01*
X+5374079Y-3213802D01*
X+5374079Y-2924940D01*
X+5364118Y-2914979D01*
X-4056000Y+813000D02*
X-4374882Y+813000D01*
X-4414119Y+809182D01*
X-4450405Y+798195D01*
X-4483037Y+780743D01*
X-4511312Y+757528D01*
X-4534526Y+729254D01*
X-4551978Y+696622D01*
X-4562965Y+660336D01*
X-4566783Y+621099D01*
X-4566783Y-3233724D01*
X-4564801Y-3254090D01*
X-4559098Y-3272925D01*
X-4537990Y-3304539D01*
X-4506376Y-3325647D01*
X-4487541Y-3331350D01*
X-4467175Y-3333332D01*
X-980901Y-3333332D01*
X-970940Y-3343293D01*
X+5772510Y-3403057D02*
X+5772510Y-2735685D01*
D10*
X-2340000Y-1176432D02*
X-2340000Y-243700D01*
X-2341983Y-202890D01*
X-2347813Y-163410D01*
X-2357310Y-125440D01*
X-2370294Y-89160D01*
X-2406005Y-22388D01*
X-2453508Y+35468D01*
X-2511364Y+82971D01*
X-2578136Y+118682D01*
X-2614416Y+131666D01*
X-2652386Y+141163D01*
X-2691866Y+146993D01*
X-2732676Y+148976D01*
X-3018976Y+148976D01*
X-3047811Y+151782D01*
X-3074477Y+159856D01*
X-3098457Y+172681D01*
X-3119235Y+189741D01*
X-3136295Y+210519D01*
X-3149120Y+234499D01*
X-3157194Y+261165D01*
X-3160000Y+290000D01*
X-2410464Y-1176432D02*
X-2340000Y-1176432D01*
X-835270Y-1176432D01*
D11*
X-3060000Y+4520000D02*
X-3060000Y+4490000D01*
D10*
X-3060000Y+4520000D02*
X-3060000Y+4987500D01*
X-3070000Y+5100000D01*
D11*
X-4056000Y+559000D02*
X-839000Y+559000D01*
X-796266Y+554841D01*
X-756747Y+542876D01*
X-721208Y+523869D01*
X-690414Y+498586D01*
X-665131Y+467792D01*
X-646124Y+432253D01*
X-634159Y+392734D01*
X-630000Y+350000D01*
X-630000Y-143187D01*
X-626526Y-178888D01*
X-616529Y-211904D01*
X-600650Y-241595D01*
X-579528Y-267322D01*
X-553801Y-288444D01*
X-524110Y-304323D01*
X-491094Y-314320D01*
X-455393Y-317794D01*
X-274853Y-317794D01*
X+1312647Y-859411D02*
X+1312647Y-1002598D01*
X+1316115Y-1038239D01*
X+1326095Y-1071200D01*
X+1341947Y-1100841D01*
X+1363034Y-1126524D01*
X+1388717Y-1147611D01*
X+1418358Y-1163463D01*
X+1451318Y-1173443D01*
X+1486960Y-1176911D01*
X+1686176Y-1176911D01*
X+1718027Y-1170667D01*
X+1743713Y-1153517D01*
X+1760863Y-1127830D01*
X+1767107Y-1095980D01*
X+1767107Y-859411D01*
X+1774005Y-824223D01*
X+1792952Y-795845D01*
X+1821330Y-776898D01*
X+1856518Y-770000D01*
X+2240000Y-770000D01*
X+2887696Y-770000D01*
X+2900147Y-770000D01*
D10*
X-3380000Y+4399200D02*
X-3380000Y+3700000D01*
X-3350000Y+3670000D01*
X-4199200Y+4399200D02*
X-3515274Y+4399200D01*
X-3380000Y+4399200D01*
X-3169811Y+4399200D01*
D12*
X+5014131Y+3470811D03*
X+6347876Y+2833360D03*
X+4373720Y+1551782D03*
X+6401782Y+1866821D03*
X+4511550Y+1177674D03*
X-1010000Y+2201550D03*
D13*
X-1555333Y+1150529D03*
D12*
X+5902001Y-3114194D03*
X+5902001Y-2436861D03*
X+5364118Y-2914979D03*
X-970940Y-3343293D03*
X+5772510Y-3403057D03*
X+5772510Y-2735685D03*
D13*
X-3160000Y+290000D03*
D12*
X-274853Y-317794D03*
X+1312647Y-859411D03*
X+2900147Y-770000D03*
D11*
X+7743640Y-3613640D02*
X+5904584Y-3613640D01*
X+5909962Y-3609225D01*
X+5936757Y-3587225D01*
X+5965108Y-3552694D01*
X+5969826Y-3543873D01*
X+5975782Y-3532735D01*
X+5986340Y-3512994D01*
X+5999573Y-3469287D01*
X+6003600Y-3465063D01*
X+6003600Y-3174238D01*
X+6016300Y-3161538D01*
X+6016300Y-3066850D01*
X+5949345Y-2999895D01*
X+5874109Y-2999895D01*
X+5874109Y-2795729D01*
X+5886809Y-2783029D01*
X+5886809Y-2700298D01*
X+6128918Y-2700297D01*
X+7178072Y-2700298D01*
X+7198424Y-2694701D01*
X+7257042Y-2676953D01*
X+7310153Y-2648549D01*
X+7317888Y-2642199D01*
X+7356305Y-2610657D01*
X+7363166Y-2602300D01*
X+7394197Y-2564505D01*
X+7400215Y-2553251D01*
X+7422601Y-2511394D01*
X+7440349Y-2452776D01*
X+7445946Y-2432424D01*
X+7445946Y+2811118D01*
X+7437784Y+2857838D01*
X+7434874Y+2867451D01*
X+7412650Y+2940854D01*
X+7372517Y+3015896D01*
X+7319021Y+3081051D01*
X+7253865Y+3134547D01*
X+7178819Y+3174681D01*
X+7095810Y+3199815D01*
X+7049087Y+3207977D01*
X+6810963Y+3207977D01*
X+6732057Y+3212385D01*
X+6702117Y+3221450D01*
X+6674075Y+3236447D01*
X+6649910Y+3256288D01*
X+6630069Y+3280453D01*
X+6615072Y+3308495D01*
X+6606007Y+3338435D01*
X+6601599Y+3417341D01*
X+6601599Y+4142084D01*
X+6598840Y+4159246D01*
X+6590330Y+4216875D01*
X+6585739Y+4235229D01*
X+6576414Y+4272516D01*
X+6557340Y+4325811D01*
X+6533353Y+4376475D01*
X+6504741Y+4424157D01*
X+6471749Y+4468599D01*
X+6434673Y+4509493D01*
X+6393776Y+4546572D01*
X+6349340Y+4579556D01*
X+6345066Y+4582121D01*
X+6301661Y+4608168D01*
X+6250995Y+4632156D01*
X+6197700Y+4651230D01*
X+6142063Y+4665145D01*
X+6084438Y+4673655D01*
X+6067268Y+4676415D01*
X+3948671Y+4676415D01*
X+3911477Y+4669180D01*
X+3901864Y+4666270D01*
X+3837274Y+4646714D01*
X+3770147Y+4610813D01*
X+3762415Y+4604465D01*
X+3711859Y+4562956D01*
X+3664003Y+4504669D01*
X+3659283Y+4495844D01*
X+3628102Y+4437542D01*
X+3605636Y+4363339D01*
X+3598401Y+4326145D01*
X+3598401Y+4223199D01*
X+3547601Y+4223199D01*
X+3547601Y+3816801D01*
X+4118170Y+3816801D01*
X+4118170Y+3673901D01*
X+4124498Y+3646022D01*
X+4144355Y+3580442D01*
X+4148650Y+3572410D01*
X+2293273Y+3572410D01*
X+2204204Y+3574898D01*
X+2160734Y+3581317D01*
X+2118324Y+3591925D01*
X+2077933Y+3606381D01*
X+2039734Y+3624466D01*
X+2003854Y+3645996D01*
X+1970474Y+3670773D01*
X+1939786Y+3698597D01*
X+1911962Y+3729285D01*
X+1887185Y+3762665D01*
X+1865655Y+3798545D01*
X+1861746Y+3806801D01*
X+2626399Y+3806801D01*
X+2626399Y+4213199D01*
X+1051601Y+4213199D01*
X+1051601Y+3806801D01*
X+1642467Y+3806801D01*
X+1659625Y+3758858D01*
X+1686282Y+3702554D01*
X+1718082Y+3649562D01*
X+1721052Y+3645560D01*
X+1754727Y+3600192D01*
X+1795932Y+3554743D01*
X+1841381Y+3513538D01*
X+1890751Y+3476893D01*
X+1895026Y+3474327D01*
X+1943743Y+3445093D01*
X+2000047Y+3418436D01*
X+2004062Y+3416999D01*
X-223001Y+3416999D01*
X-223001Y+3873711D01*
X-131401Y+3965311D01*
X-131401Y+4154689D01*
X-265311Y+4288599D01*
X-454689Y+4288599D01*
X-588599Y+4154689D01*
X-588599Y+3965311D01*
X-476999Y+3853711D01*
X-476999Y+3416999D01*
X-1652605Y+3416999D01*
X-1657857Y+3411747D01*
X-2183114Y+3411746D01*
X-2765509Y+3411747D01*
X-3914086Y+3411747D01*
X-3920178Y+3405655D01*
X-3966389Y+3391664D01*
X-4012728Y+3366881D01*
X-4053037Y+3333785D01*
X-4086133Y+3293476D01*
X-4110916Y+3247137D01*
X-4124907Y+3200926D01*
X-4130999Y+3194834D01*
X-4130999Y+3044447D01*
X-4131000Y+3044446D01*
X-4184353Y+3097799D01*
X-4331647Y+3097799D01*
X-4435799Y+2993647D01*
X-4435799Y+2846353D01*
X-4371599Y+2782153D01*
X-4371599Y+2417916D01*
X-4365007Y+2387322D01*
X-4344389Y+2319229D01*
X-4311429Y+2257601D01*
X-4267479Y+2204071D01*
X-4213947Y+2160119D01*
X-4152321Y+2127161D01*
X-4084228Y+2106543D01*
X-4053634Y+2099951D01*
X-2352799Y+2099951D01*
X-2352799Y+1759801D01*
X-777999Y+1759801D01*
X-777999Y+1664316D01*
X-773872Y+1660189D01*
X-760975Y+1617598D01*
X-740026Y+1578425D01*
X-712049Y+1544351D01*
X-677975Y+1516374D01*
X-638802Y+1495425D01*
X-596211Y+1482528D01*
X-592084Y+1478401D01*
X+3456752Y+1478401D01*
X+3515055Y+1475912D01*
X+3525126Y+1472863D01*
X+3535684Y+1467216D01*
X+3544698Y+1459815D01*
X+3552099Y+1450801D01*
X+3557746Y+1440243D01*
X+3560795Y+1430172D01*
X+3563284Y+1371869D01*
X+3563284Y+1332489D01*
X+3568848Y+1312470D01*
X+3572720Y+1299682D01*
X+3586504Y+1254154D01*
X+3614765Y+1201312D01*
X+3652458Y+1155404D01*
X+3698366Y+1117711D01*
X+3751208Y+1089450D01*
X+3809524Y+1071794D01*
X+3829543Y+1066230D01*
X+4461351Y+1066230D01*
X+4464206Y+1063375D01*
X+4558894Y+1063375D01*
X+4625849Y+1130330D01*
X+4625849Y+1225018D01*
X+4558894Y+1291973D01*
X+4464206Y+1291973D01*
X+4441661Y+1269428D01*
X+3913711Y+1269428D01*
X+3847276Y+1272670D01*
X+3829316Y+1278107D01*
X+3811845Y+1287451D01*
X+3796832Y+1299778D01*
X+3784505Y+1314791D01*
X+3775161Y+1332262D01*
X+3769724Y+1350222D01*
X+3766482Y+1416657D01*
X+3766482Y+1456037D01*
X+3761728Y+1467732D01*
X+3758818Y+1477345D01*
X+3746401Y+1518358D01*
X+3721845Y+1564272D01*
X+3715494Y+1572008D01*
X+3689072Y+1604189D01*
X+3649155Y+1636962D01*
X+3640334Y+1641680D01*
X+3603241Y+1661518D01*
X+3552615Y+1676845D01*
X+3540920Y+1681599D01*
X-507916Y+1681599D01*
X-558336Y+1683367D01*
X-560688Y+1684079D01*
X-564501Y+1686119D01*
X-567675Y+1688725D01*
X-570281Y+1691899D01*
X-572321Y+1695712D01*
X-573033Y+1698064D01*
X-574801Y+1748484D01*
X-574801Y+1759801D01*
X+237999Y+1759801D01*
X+237999Y+2166199D01*
X+138387Y+2166199D01*
X+112171Y+2215217D01*
X+57526Y+2281772D01*
X+52018Y+2286295D01*
X+101700Y+2285056D01*
X+133637Y+2280340D01*
X+165073Y+2272477D01*
X+194953Y+2261784D01*
X+223210Y+2248405D01*
X+249731Y+2232491D01*
X+274374Y+2214199D01*
X+297057Y+2193633D01*
X+317603Y+2170971D01*
X+335913Y+2146304D01*
X+339601Y+2140158D01*
X+339601Y+1759801D01*
X+2422399Y+1759801D01*
X+2422399Y+2129486D01*
X+2625601Y+2129486D01*
X+2625601Y+1759801D01*
X+4708399Y+1759801D01*
X+4708399Y+2166199D01*
X+4472500Y+2166199D01*
X+4476708Y+2171868D01*
X+4497357Y+2194643D01*
X+4520134Y+2215294D01*
X+4544892Y+2233671D01*
X+4571524Y+2249653D01*
X+4599903Y+2263089D01*
X+4629920Y+2273832D01*
X+4661482Y+2281726D01*
X+4693574Y+2286464D01*
X+4771084Y+2288401D01*
X+6103512Y+2288401D01*
X+6139826Y+2295551D01*
X+6213220Y+2317772D01*
X+6279605Y+2353275D01*
X+6337262Y+2400614D01*
X+6384601Y+2458271D01*
X+6420104Y+2524656D01*
X+6442325Y+2598050D01*
X+6449475Y+2634364D01*
X+6449475Y+2773316D01*
X+6462030Y+2785871D01*
X+6462030Y+1968216D01*
X+6449126Y+1981120D01*
X+6354438Y+1981120D01*
X+6342029Y+1968711D01*
X+6318631Y+1970724D01*
X+6316327Y+1997510D01*
X+6310608Y+2019132D01*
X+6292502Y+2078928D01*
X+6263532Y+2133096D01*
X+6224889Y+2180161D01*
X+6177824Y+2218804D01*
X+6123658Y+2247773D01*
X+6063856Y+2265879D01*
X+6042238Y+2271599D01*
X+5137916Y+2271599D01*
X+5106022Y+2264880D01*
X+5036728Y+2243898D01*
X+5027870Y+2239161D01*
X+5007595Y+2228317D01*
X+4974020Y+2210361D01*
X+4966284Y+2204010D01*
X+4919551Y+2165640D01*
X+4874836Y+2111177D01*
X+4870116Y+2102353D01*
X+4841295Y+2048466D01*
X+4820313Y+1979164D01*
X+4813594Y+1947277D01*
X+4813594Y+1800611D01*
X+4810352Y+1734174D01*
X+4804915Y+1716216D01*
X+4795571Y+1698744D01*
X+4783243Y+1683730D01*
X+4768233Y+1671406D01*
X+4750759Y+1662060D01*
X+4732799Y+1656623D01*
X+4666364Y+1653381D01*
X+4433764Y+1653381D01*
X+4421064Y+1666081D01*
X+4326376Y+1666081D01*
X+4259421Y+1599126D01*
X+4259421Y+1504438D01*
X+4326376Y+1437483D01*
X+4421064Y+1437483D01*
X+4433764Y+1450183D01*
X+4750532Y+1450183D01*
X+4770551Y+1455747D01*
X+4783339Y+1459619D01*
X+4828867Y+1473403D01*
X+4881706Y+1501663D01*
X+4927619Y+1539359D01*
X+4933953Y+1547073D01*
X+4965311Y+1585265D01*
X+4993571Y+1638105D01*
X+5011228Y+1696425D01*
X+5016792Y+1716443D01*
X+5016792Y+1863109D01*
X+5021123Y+1941199D01*
X+5029949Y+1970353D01*
X+5044575Y+1997697D01*
X+5063927Y+2021268D01*
X+5087491Y+2040615D01*
X+5114840Y+2055242D01*
X+5143998Y+2064070D01*
X+5188027Y+2066512D01*
X+5152901Y+2031386D01*
X+5152901Y+1894614D01*
X+5211515Y+1836000D01*
X+5152901Y+1777386D01*
X+5152901Y+1640614D01*
X+5211515Y+1582000D01*
X+5152901Y+1523386D01*
X+5152901Y+1386614D01*
X+5211515Y+1328000D01*
X+5152901Y+1269386D01*
X+5152901Y+1132614D01*
X+5211515Y+1074000D01*
X+5152901Y+1015386D01*
X+5152901Y+878614D01*
X+5211515Y+820000D01*
X+5152901Y+761386D01*
X+5152901Y+624614D01*
X+5211515Y+566000D01*
X+5152901Y+507386D01*
X+5152901Y+370614D01*
X+5211515Y+312000D01*
X+5152901Y+253386D01*
X+5152901Y+116614D01*
X+5211515Y+58000D01*
X+5152901Y-614D01*
X+5152901Y-137386D01*
X+5211515Y-196000D01*
X+5152901Y-254614D01*
X+5152901Y-391386D01*
X+5211515Y-450000D01*
X+5152901Y-508614D01*
X+5152901Y-645386D01*
X+5211515Y-704000D01*
X+5152901Y-762614D01*
X+5152901Y-899386D01*
X+5211515Y-958000D01*
X+5152901Y-1016614D01*
X+5152901Y-1153386D01*
X+5211515Y-1212000D01*
X+5152901Y-1270614D01*
X+5152901Y-1407386D01*
X+5211515Y-1466000D01*
X+5152901Y-1524614D01*
X+5152901Y-1661386D01*
X+5211515Y-1720000D01*
X+5152901Y-1778614D01*
X+5152901Y-1915386D01*
X+5211515Y-1974000D01*
X+5152901Y-2032614D01*
X+5152901Y-2169386D01*
X+5211515Y-2228000D01*
X+5152901Y-2286614D01*
X+5152901Y-2423386D01*
X+5226615Y-2497100D01*
X+5163932Y-2497100D01*
X+5079229Y-2492146D01*
X+5043760Y-2481407D01*
X+5010826Y-2463794D01*
X+4982421Y-2440472D01*
X+4959098Y-2412065D01*
X+4941483Y-2379129D01*
X+4930745Y-2343662D01*
X+4925791Y-2258959D01*
X+4925790Y-1214598D01*
X+4925791Y-86068D01*
X+4923424Y-76998D01*
X+4922696Y-72065D01*
X+4916073Y-27210D01*
X+4904045Y+20881D01*
X+4886702Y+69339D01*
X+4883164Y+75955D01*
X+4842353Y+152263D01*
X+4781657Y+226188D01*
X+4707732Y+286884D01*
X+4624808Y+331233D01*
X+4617743Y+333762D01*
X+4576350Y+348576D01*
X+4570520Y+350034D01*
X+4528267Y+360602D01*
X+4478465Y+367957D01*
X+4469401Y+370322D01*
X+2373199Y+370322D01*
X+2373199Y+1437399D01*
X+1966801Y+1437399D01*
X+1966801Y-112001D01*
X+1488395Y-112001D01*
X+1471027Y-118210D01*
X+1459009Y-121848D01*
X+1405209Y-138138D01*
X+1394131Y-144062D01*
X+1345522Y-170059D01*
X+1293650Y-212648D01*
X+1251058Y-264522D01*
X+1241654Y-282105D01*
X+1219139Y-324206D01*
X+1199210Y-390027D01*
X+1193001Y-407395D01*
X+1189088Y-488948D01*
X+1182726Y-509960D01*
X+1171718Y-530543D01*
X+1157211Y-548211D01*
X+1139543Y-562718D01*
X+1118960Y-573726D01*
X+1097948Y-580088D01*
X+1016395Y-584001D01*
X+973199Y-584001D01*
X+973199Y-304601D01*
X+566801Y-304601D01*
X+566801Y-605059D01*
X+469507Y-605059D01*
X+366349Y-599124D01*
X+324596Y-586482D01*
X+285726Y-565694D01*
X+252202Y-538169D01*
X+224678Y-504646D01*
X+203890Y-465776D01*
X+191248Y-424021D01*
X+185313Y-320865D01*
X+185313Y+734977D01*
X+182497Y+743407D01*
X+181586Y+749579D01*
X+173722Y+802832D01*
X+159357Y+860264D01*
X+157249Y+866156D01*
X+139664Y+915293D01*
X+114883Y+967636D01*
X+85313Y+1016915D01*
X+51224Y+1062836D01*
X+47041Y+1067451D01*
X+12897Y+1105111D01*
X-29376Y+1143437D01*
X-75300Y+1177526D01*
X-124579Y+1207097D01*
X-176921Y+1231878D01*
X-209984Y+1243710D01*
X-231953Y+1251573D01*
X-289370Y+1265934D01*
X-295569Y+1266850D01*
X-348806Y+1274711D01*
X-357238Y+1277528D01*
X-1607938Y+1277528D01*
X-1682332Y+1203134D01*
X-1682332Y+1097924D01*
X-1607938Y+1023530D01*
X-462448Y+1023530D01*
X-372305Y+1021430D01*
X-338866Y+1016493D01*
X-305749Y+1008209D01*
X-274277Y+996946D01*
X-244566Y+982879D01*
X-216680Y+966146D01*
X-190756Y+946903D01*
X-166921Y+925293D01*
X-145314Y+901460D01*
X-126068Y+875534D01*
X-109333Y+847645D01*
X-95268Y+817937D01*
X-84003Y+786461D01*
X-75724Y+753356D01*
X-70784Y+719905D01*
X-68685Y+629767D01*
X-68685Y-426075D01*
X-59736Y-471582D01*
X-56101Y-483590D01*
X-31934Y-563411D01*
X-26010Y-574488D01*
X+12500Y-646493D01*
X+71734Y-718637D01*
X+143878Y-777871D01*
X+226963Y-822305D01*
X+318790Y-850108D01*
X+364297Y-859057D01*
X+566801Y-859057D01*
X+566801Y-1148420D01*
X+374818Y-1148420D01*
X+356341Y-1153834D01*
X+346728Y-1156744D01*
X+299447Y-1171059D01*
X+290587Y-1175797D01*
X+247889Y-1198632D01*
X+240154Y-1204982D01*
X+203085Y-1235417D01*
X+194334Y-1246075D01*
X+166300Y-1280221D01*
X+138727Y-1331779D01*
X+121502Y-1388673D01*
X+116088Y-1407150D01*
X+116088Y-2004798D01*
X+110733Y-2093751D01*
X+98767Y-2133273D01*
X+79239Y-2169786D01*
X+53363Y-2201303D01*
X+21846Y-2227179D01*
X-14667Y-2246707D01*
X-54189Y-2258673D01*
X-143142Y-2264028D01*
X-402123Y-2264028D01*
X-413393Y-2268740D01*
X-463622Y-2283948D01*
X-472482Y-2288686D01*
X-509184Y-2308315D01*
X-548791Y-2340834D01*
X-581313Y-2380444D01*
X-586031Y-2389265D01*
X-605679Y-2426003D01*
X-620887Y-2476234D01*
X-625599Y-2487504D01*
X-625599Y-2659801D01*
X-903001Y-2659801D01*
X-903001Y-1806289D01*
X-801401Y-1704689D01*
X-801401Y-1515311D01*
X-935311Y-1381401D01*
X-1124689Y-1381401D01*
X-1246289Y-1503001D01*
X-2025711Y-1503001D01*
X-2127311Y-1401401D01*
X-2316689Y-1401401D01*
X-2450599Y-1535311D01*
X-2450599Y-1724689D01*
X-2339744Y-1835544D01*
X-2339744Y-2133728D01*
X-2343436Y-2212891D01*
X-2349099Y-2231595D01*
X-2359022Y-2250148D01*
X-2372082Y-2266055D01*
X-2387989Y-2279115D01*
X-2406542Y-2289038D01*
X-2425246Y-2294701D01*
X-2504409Y-2298393D01*
X-3156218Y-2298393D01*
X-3247358Y-2293586D01*
X-3277603Y-2284429D01*
X-3306323Y-2269069D01*
X-3331034Y-2248779D01*
X-3351324Y-2224068D01*
X-3366684Y-2195348D01*
X-3375841Y-2165103D01*
X-3380648Y-2073963D01*
X-3383631Y-2062098D01*
X-3392897Y-1999351D01*
X-3408058Y-1938741D01*
X-3410168Y-1932844D01*
X-3428849Y-1880644D01*
X-3431527Y-1874987D01*
X-3454991Y-1825426D01*
X-3486196Y-1773424D01*
X-3522170Y-1724962D01*
X-3526349Y-1720352D01*
X-3562607Y-1680360D01*
X-3567215Y-1676182D01*
X-3579158Y-1665355D01*
X-3607209Y-1639923D01*
X-3612204Y-1636215D01*
X-3655671Y-1603949D01*
X-3707673Y-1572744D01*
X-3762891Y-1546602D01*
X-3820988Y-1525811D01*
X-3827066Y-1524290D01*
X-3852801Y-1517853D01*
X-3852801Y-711001D01*
X-4259199Y-711001D01*
X-4259199Y-3231733D01*
X-4425091Y-3231733D01*
X-4464070Y-3230619D01*
X-4465184Y-3191640D01*
X-4465184Y+579015D01*
X-4462219Y+642477D01*
X-4457651Y+657564D01*
X-4449653Y+672518D01*
X-4439125Y+685341D01*
X-4426301Y+695870D01*
X-4411347Y+703868D01*
X-4396260Y+708436D01*
X-4332798Y+711401D01*
X-4259199Y+711401D01*
X-4259199Y-609399D01*
X-3852801Y-609399D01*
X-3852801Y+457401D01*
X-881084Y+457401D01*
X-814196Y+454117D01*
X-795805Y+448549D01*
X-777946Y+438998D01*
X-762601Y+426399D01*
X-750002Y+411054D01*
X-740451Y+393195D01*
X-734883Y+374804D01*
X-731599Y+307916D01*
X-731598Y+103407D01*
X-731599Y-185271D01*
X-726675Y-198721D01*
X-710857Y-250960D01*
X-685522Y-298332D01*
X-678662Y-306687D01*
X-651715Y-339509D01*
X-643997Y-345846D01*
X-610538Y-373316D01*
X-563166Y-398651D01*
X-510927Y-414469D01*
X-497477Y-419393D01*
X-334897Y-419393D01*
X-322197Y-432093D01*
X-227509Y-432093D01*
X-160554Y-365138D01*
X-160554Y-270450D01*
X-227509Y-203495D01*
X-322197Y-203495D01*
X-334897Y-216195D01*
X-413309Y-216195D01*
X-473315Y-213549D01*
X-485054Y-209995D01*
X-497065Y-203571D01*
X-507341Y-195135D01*
X-515777Y-184859D01*
X-522201Y-172848D01*
X-525755Y-161109D01*
X-528401Y-101103D01*
X-528402Y+103407D01*
X-528401Y+392084D01*
X-534010Y+412563D01*
X-551797Y+471311D01*
X-580259Y+524529D01*
X-618227Y+570773D01*
X-664471Y+608741D01*
X-717689Y+637203D01*
X-727659Y+640222D01*
X-776437Y+654990D01*
X-796916Y+660599D01*
X-3852801Y+660599D01*
X-3852801Y+1473399D01*
X-4259199Y+1473399D01*
X-4259199Y+1422599D01*
X-4586299Y+1422599D01*
X-4613469Y+1416340D01*
X-4678392Y+1396682D01*
X-4687252Y+1391944D01*
X-4737176Y+1365245D01*
X-4788239Y+1323319D01*
X-4830165Y+1272256D01*
X-4861602Y+1213472D01*
X-4881260Y+1148549D01*
X-4887519Y+1121379D01*
X-4887519Y-3415259D01*
X-4882501Y-3429668D01*
X-4866415Y-3482795D01*
X-4840653Y-3530962D01*
X-4828385Y-3545905D01*
X-4806281Y-3572826D01*
X-4798561Y-3579165D01*
X-4764410Y-3607204D01*
X-4752377Y-3613640D01*
X-5083640Y-3613640D01*
X-5083640Y+5513640D01*
X+7743640Y+5513640D01*
X+7743640Y-3613640D01*
X+973199Y+1168601D02*
X+973199Y-101399D01*
X+566801Y-101399D01*
X+566801Y+1473399D01*
X+973199Y+1473399D01*
X+973199Y+1168601D01*
X-3033001Y+342605D02*
X-3031101Y+283116D01*
X-3030207Y+281444D01*
X-3029001Y+279975D01*
X-3027532Y+278769D01*
X-3025860Y+277875D01*
X-2966371Y+275975D01*
X-2680071Y+275975D01*
X-2677316Y+273220D01*
X-2627645Y+265885D01*
X-2621571Y+264366D01*
X-2577522Y+253349D01*
X-2526520Y+235096D01*
X-2518243Y+230670D01*
X-2440442Y+189061D01*
X-2363274Y+125702D01*
X-2299915Y+48534D01*
X-2253880Y-37544D01*
X-2235627Y-88546D01*
X-2223091Y-138669D01*
X-2215756Y-188340D01*
X-2213001Y-191095D01*
X-2213001Y-1049433D01*
X-782665Y-1049433D01*
X-746427Y-1057479D01*
X-734414Y-1061116D01*
X-663159Y-1082690D01*
X-587791Y-1122999D01*
X-522322Y-1176751D01*
X-514401Y-1186398D01*
X-468566Y-1242223D01*
X-428258Y-1317593D01*
X-403047Y-1400859D01*
X-401675Y-1407037D01*
X-293401Y-1515311D01*
X-293401Y-1704689D01*
X-427311Y-1838599D01*
X-616689Y-1838599D01*
X-750599Y-1704689D01*
X-750599Y-1515311D01*
X-660927Y-1425639D01*
X-664078Y-1415234D01*
X-680749Y-1384062D01*
X-702787Y-1357221D01*
X-729630Y-1335181D01*
X-760803Y-1318510D01*
X-793833Y-1308509D01*
X-887875Y-1303431D01*
X-2357859Y-1303431D01*
X-2453160Y-1308627D01*
X-2487396Y-1318993D01*
X-2519634Y-1336234D01*
X-2547400Y-1359032D01*
X-2570198Y-1386798D01*
X-2587439Y-1419036D01*
X-2594466Y-1442246D01*
X-2501401Y-1535311D01*
X-2501401Y-1724689D01*
X-2635311Y-1858599D01*
X-2824689Y-1858599D01*
X-2958599Y-1724689D01*
X-2958599Y-1535311D01*
X-2854311Y-1431023D01*
X-2848827Y-1405842D01*
X-2845191Y-1393831D01*
X-2823258Y-1321391D01*
X-2782381Y-1244958D01*
X-2727868Y-1178564D01*
X-2661474Y-1124051D01*
X-2585041Y-1083174D01*
X-2500590Y-1057605D01*
X-2466999Y-1050289D01*
X-2466999Y-296305D01*
X-2468730Y-213920D01*
X-2472535Y-188152D01*
X-2478992Y-162336D01*
X-2486707Y-140780D01*
X-2512093Y-93312D01*
X-2543742Y-54766D01*
X-2582288Y-23117D01*
X-2629756Y+2269D01*
X-2651312Y+9984D01*
X-2677128Y+16441D01*
X-2702896Y+20246D01*
X-2785281Y+21977D01*
X-3071581Y+21977D01*
X-3077763Y+28159D01*
X-3084614Y+30233D01*
X-3123293Y+41944D01*
X-3169380Y+66592D01*
X-3209469Y+99507D01*
X-3242384Y+139596D01*
X-3267032Y+185683D01*
X-3280817Y+231213D01*
X-3286999Y+237395D01*
X-3286999Y+342605D01*
X-3212605Y+416999D01*
X-3107395Y+416999D01*
X-3033001Y+342605D01*
X-80599Y+3965311D02*
X-80599Y+4154689D01*
X+53311Y+4288599D01*
X+242689Y+4288599D01*
X+376599Y+4154689D01*
X+376599Y+3965311D01*
X+242689Y+3831401D01*
X+53311Y+3831401D01*
X-80599Y+3965311D01*
X-2881301Y+4911301D02*
X-2933001Y+4911301D01*
X-2933001Y+4437395D01*
X-2947269Y+4404888D01*
X-2994680Y+4333880D01*
X-3065688Y+4286469D01*
X-3098195Y+4272201D01*
X-3253001Y+4272201D01*
X-3253001Y+3896289D01*
X-3121401Y+3764689D01*
X-3121401Y+3575311D01*
X-3255311Y+3441401D01*
X-3444689Y+3441401D01*
X-3578599Y+3575311D01*
X-3578599Y+3764689D01*
X-3506999Y+3836289D01*
X-3506999Y+4272201D01*
X-4251805Y+4272201D01*
X-4268571Y+4283382D01*
X-4326883Y+4322317D01*
X-4365818Y+4380629D01*
X-4376999Y+4397395D01*
X-4376999Y+4503801D01*
X-4568699Y+4503801D01*
X-4568699Y+4856199D01*
X-3591301Y+4856199D01*
X-3591301Y+4526199D01*
X-3203405Y+4526199D01*
X-3188108Y+4527308D01*
X-3186999Y+4542605D01*
X-3186999Y+4911301D01*
X-3258699Y+4911301D01*
X-3258699Y+5288699D01*
X-2881301Y+5288699D01*
X-2881301Y+4911301D01*
X-4232201Y+3993647D02*
X-4232201Y+3846353D01*
X-4285554Y+3793000D01*
X-4232201Y+3739647D01*
X-4232201Y+3592353D01*
X-4336353Y+3488201D01*
X-4483647Y+3488201D01*
X-4587799Y+3592353D01*
X-4587799Y+3739647D01*
X-4534446Y+3793000D01*
X-4587799Y+3846353D01*
X-4587799Y+3993647D01*
X-4483647Y+4097799D01*
X-4336353Y+4097799D01*
X-4232201Y+3993647D01*
X-278699Y+5021838D02*
X-278699Y+5178162D01*
X-168162Y+5288699D01*
X-11838Y+5288699D01*
X+98699Y+5178162D01*
X+98699Y+5021838D01*
X-11838Y+4911301D01*
X-168162Y+4911301D01*
X-278699Y+5021838D01*
X-1598201Y+3723647D02*
X-1598201Y+3576353D01*
X-1702353Y+3472201D01*
X-1849647Y+3472201D01*
X-1903000Y+3525554D01*
X-1956353Y+3472201D01*
X-2103647Y+3472201D01*
X-2207799Y+3576353D01*
X-2207799Y+3723647D01*
X-2103647Y+3827799D01*
X-1956353Y+3827799D01*
X-1903000Y+3774446D01*
X-1849647Y+3827799D01*
X-1702353Y+3827799D01*
X-1598201Y+3723647D01*
X-2613401Y+3764689D02*
X-2613401Y+3764084D01*
X-2548386Y+3829099D01*
X-2411614Y+3829099D01*
X-2314901Y+3732386D01*
X-2314901Y+3595614D01*
X-2411614Y+3498901D01*
X-2548386Y+3498901D01*
X-2619098Y+3569614D01*
X-2747311Y+3441401D01*
X-2936689Y+3441401D01*
X-3070599Y+3575311D01*
X-3070599Y+3764689D01*
X-2936689Y+3898599D01*
X-2747311Y+3898599D01*
X-2613401Y+3764689D01*
X-2411614Y+4514901D02*
X-2548386Y+4514901D01*
X-2645099Y+4611614D01*
X-2645099Y+4748386D01*
X-2548386Y+4845099D01*
X-2411614Y+4845099D01*
X-2314901Y+4748386D01*
X-2314901Y+4611614D01*
X-2411614Y+4514901D01*
X-1158386Y+4845099D02*
X-1021614Y+4845099D01*
X-924901Y+4748386D01*
X-924901Y+4611614D01*
X-1021614Y+4514901D01*
X-1158386Y+4514901D01*
X-1255099Y+4611614D01*
X-1255099Y+4748386D01*
X-1158386Y+4845099D01*
X-1158386Y+3829099D02*
X-1021614Y+3829099D01*
X-924901Y+3732386D01*
X-924901Y+3595614D01*
X-1021614Y+3498901D01*
X-1158386Y+3498901D01*
X-1255099Y+3595614D01*
X-1255099Y+3732386D01*
X-1158386Y+3829099D01*
X+4874610Y+3161750D02*
X+4875861Y+3116689D01*
X+4875861Y+3065585D01*
X+4823647Y+3117799D01*
X+4676353Y+3117799D01*
X+4572201Y+3013647D01*
X+4572201Y+2866353D01*
X+4676353Y+2762201D01*
X+4823647Y+2762201D01*
X+4877000Y+2815554D01*
X+4930353Y+2762201D01*
X+5077647Y+2762201D01*
X+5131000Y+2815554D01*
X+5184353Y+2762201D01*
X+5331647Y+2762201D01*
X+5407847Y+2838401D01*
X+6233577Y+2838401D01*
X+6233577Y+2786016D01*
X+6246277Y+2773316D01*
X+6246277Y+2718532D01*
X+6241536Y+2636086D01*
X+6231450Y+2602774D01*
X+6214854Y+2571742D01*
X+6192888Y+2544988D01*
X+6166134Y+2523022D01*
X+6135102Y+2506426D01*
X+6101790Y+2496340D01*
X+6019344Y+2491599D01*
X+4686916Y+2491599D01*
X+4674720Y+2489081D01*
X+4621903Y+2481283D01*
X+4570883Y+2468521D01*
X+4521998Y+2451026D01*
X+4475539Y+2429029D01*
X+4431792Y+2402777D01*
X+4391021Y+2372512D01*
X+4387335Y+2369171D01*
X+4353503Y+2338497D01*
X+4319485Y+2300976D01*
X+4316517Y+2296978D01*
X+4289223Y+2260208D01*
X+4262972Y+2216462D01*
X+4240972Y+2169995D01*
X+4239613Y+2166199D01*
X+3220827Y+2166199D01*
X+3231185Y+2169906D01*
X+3277475Y+2191822D01*
X+3281762Y+2194394D01*
X+3321064Y+2217979D01*
X+3337639Y+2230282D01*
X+3361686Y+2248133D01*
X+3399066Y+2282023D01*
X+3432954Y+2319401D01*
X+3435923Y+2323400D01*
X+3463107Y+2360021D01*
X+3465672Y+2364295D01*
X+3489262Y+2403606D01*
X+3511176Y+2449892D01*
X+3512866Y+2454613D01*
X+3528608Y+2498600D01*
X+3529825Y+2503464D01*
X+3541322Y+2549427D01*
X+3549091Y+2602047D01*
X+3551599Y+2614039D01*
X+3551599Y+2790153D01*
X+3577000Y+2815554D01*
X+3630353Y+2762201D01*
X+3777647Y+2762201D01*
X+3831000Y+2815554D01*
X+3884353Y+2762201D01*
X+4031647Y+2762201D01*
X+4135799Y+2866353D01*
X+4135799Y+3013647D01*
X+4031647Y+3117799D01*
X+3884353Y+3117799D01*
X+3831000Y+3064446D01*
X+3830999Y+3064447D01*
X+3830999Y+3163001D01*
X+4829549Y+3163001D01*
X+4874610Y+3161750D01*
X-296998Y+3058444D02*
X-336353Y+3097799D01*
X-483647Y+3097799D01*
X-587799Y+2993647D01*
X-587799Y+2846353D01*
X-582333Y+2840887D01*
X-779486Y+2840886D01*
X-1009667Y+2840887D01*
X-994201Y+2856353D01*
X-994201Y+3003647D01*
X-1098353Y+3107799D01*
X-1245647Y+3107799D01*
X-1299000Y+3054446D01*
X-1299001Y+3054447D01*
X-1299001Y+3163001D01*
X-296999Y+3163001D01*
X-296998Y+3058444D01*
X+3467395Y+3163001D02*
X+3513487Y+3163001D01*
X+3572080Y+3161165D01*
X+3572893Y+3160731D01*
X+3573902Y+3159902D01*
X+3574731Y+3158893D01*
X+3575165Y+3158080D01*
X+3577001Y+3099487D01*
X+3577001Y+3064447D01*
X+3577000Y+3064446D01*
X+3523647Y+3117799D01*
X+3376353Y+3117799D01*
X+3272201Y+3013647D01*
X+3272201Y+2866353D01*
X+3348401Y+2790153D01*
X+3348401Y+2698207D01*
X+3346474Y+2620899D01*
X+3341765Y+2589009D01*
X+3333917Y+2557632D01*
X+3323240Y+2527798D01*
X+3309886Y+2499592D01*
X+3294001Y+2473121D01*
X+3275735Y+2448513D01*
X+3255211Y+2425876D01*
X+3232571Y+2405350D01*
X+3207960Y+2387081D01*
X+3181492Y+2371198D01*
X+3153291Y+2357847D01*
X+3123452Y+2347168D01*
X+3092077Y+2339320D01*
X+3060185Y+2334611D01*
X+2982878Y+2332684D01*
X+1527916Y+2332684D01*
X+1506098Y+2322091D01*
X+1452669Y+2286416D01*
X+1416994Y+2232987D01*
X+1406401Y+2211169D01*
X+1406401Y+2166199D01*
X+554296Y+2166199D01*
X+553135Y+2169444D01*
X+531197Y+2215779D01*
X+505010Y+2259419D01*
X+474840Y+2300062D01*
X+440903Y+2337495D01*
X+403492Y+2371413D01*
X+399487Y+2374386D01*
X+362823Y+2401601D01*
X+319195Y+2427781D01*
X+314676Y+2429921D01*
X+272860Y+2449719D01*
X+224099Y+2467169D01*
X+219238Y+2468385D01*
X+173233Y+2479892D01*
X+120549Y+2487673D01*
X+108500Y+2490183D01*
X-1519756Y+2490183D01*
X-1568542Y+2491803D01*
X-1569285Y+2492028D01*
X-1571696Y+2493317D01*
X-1573657Y+2494927D01*
X-1575267Y+2496888D01*
X-1576556Y+2499299D01*
X-1576781Y+2500042D01*
X-1578401Y+2548828D01*
X-1578401Y+2780153D01*
X-1553000Y+2805554D01*
X-1552999Y+2805553D01*
X-1552999Y+2765802D01*
X-1544617Y+2757420D01*
X-1535847Y+2728454D01*
X-1514520Y+2688577D01*
X-1486019Y+2653864D01*
X-1451309Y+2625368D01*
X-1438186Y+2618349D01*
X-1411432Y+2604038D01*
X-1382467Y+2595270D01*
X-1374086Y+2586889D01*
X-1268876Y+2586889D01*
X-779486Y+2586890D01*
X-184886Y+2586889D01*
X-156042Y+2600439D01*
X-87990Y+2645878D01*
X-73937Y+2666924D01*
X-42551Y+2713930D01*
X-29001Y+2742774D01*
X-29001Y+2795553D01*
X-29000Y+2795554D01*
X+24353Y+2742201D01*
X+171647Y+2742201D01*
X+275799Y+2846353D01*
X+275799Y+2993647D01*
X+171647Y+3097799D01*
X+24353Y+3097799D01*
X-29000Y+3044446D01*
X-43002Y+3058448D01*
X-43001Y+3163001D01*
X+917395Y+3163001D01*
X+979623Y+3160864D01*
X+981788Y+3160208D01*
X+985872Y+3158024D01*
X+989250Y+3155250D01*
X+992024Y+3151872D01*
X+994208Y+3147788D01*
X+994864Y+3145623D01*
X+997001Y+3083395D01*
X+997001Y+3054447D01*
X+997000Y+3054446D01*
X+943647Y+3107799D01*
X+796353Y+3107799D01*
X+692201Y+3003647D01*
X+692201Y+2856353D01*
X+796353Y+2752201D01*
X+943647Y+2752201D01*
X+997000Y+2805554D01*
X+1050353Y+2752201D01*
X+1197647Y+2752201D01*
X+1251000Y+2805554D01*
X+1304353Y+2752201D01*
X+1451647Y+2752201D01*
X+1555799Y+2856353D01*
X+1555799Y+3003647D01*
X+1451647Y+3107799D01*
X+1304353Y+3107799D01*
X+1251000Y+3054446D01*
X+1250999Y+3054447D01*
X+1250999Y+3163001D01*
X+2212580Y+3163001D01*
X+2261758Y+3161590D01*
X+2263170Y+3112411D01*
X+2263170Y+3058276D01*
X+2213647Y+3107799D01*
X+2066353Y+3107799D01*
X+1962201Y+3003647D01*
X+1962201Y+2856353D01*
X+2066353Y+2752201D01*
X+2213647Y+2752201D01*
X+2267000Y+2805554D01*
X+2320353Y+2752201D01*
X+2467647Y+2752201D01*
X+2521000Y+2805554D01*
X+2574353Y+2752201D01*
X+2721647Y+2752201D01*
X+2825799Y+2856353D01*
X+2825799Y+3003647D01*
X+2721647Y+3107799D01*
X+2574353Y+3107799D01*
X+2521000Y+3054446D01*
X+2517166Y+3058280D01*
X+2517166Y+3112411D01*
X+2517167Y+3112412D01*
X+2517167Y+3163001D01*
X+2892592Y+3163002D01*
X+3467395Y+3163001D01*
X-1600720Y+3157749D02*
X-1554302Y+3156446D01*
X-1552999Y+3110028D01*
X-1552999Y+3054447D01*
X-1553000Y+3054446D01*
X-1606353Y+3107799D01*
X-1753647Y+3107799D01*
X-1857799Y+3003647D01*
X-1857799Y+2856353D01*
X-1781599Y+2780153D01*
X-1781599Y+2464660D01*
X-1776976Y+2460037D01*
X-1765212Y+2421186D01*
X-1760002Y+2411443D01*
X-2780861Y+2411443D01*
X-2829431Y+2413043D01*
X-2829957Y+2413203D01*
X-2832178Y+2414390D01*
X-2833977Y+2415867D01*
X-2835454Y+2417667D01*
X-2836640Y+2419883D01*
X-2836801Y+2420415D01*
X-2838401Y+2468983D01*
X-2838401Y+2780153D01*
X-2813000Y+2805554D01*
X-2759647Y+2752201D01*
X-2612353Y+2752201D01*
X-2559000Y+2805554D01*
X-2505647Y+2752201D01*
X-2358353Y+2752201D01*
X-2254201Y+2856353D01*
X-2254201Y+3003647D01*
X-2358353Y+3107799D01*
X-2505647Y+3107799D01*
X-2559000Y+3054446D01*
X-2559001Y+3054447D01*
X-2559001Y+3157749D01*
X-2183114Y+3157750D01*
X-1600720Y+3157749D01*
X-2814689Y+3156059D02*
X-2812999Y+3100029D01*
X-2812999Y+3054447D01*
X-2813000Y+3054446D01*
X-2866353Y+3107799D01*
X-3013647Y+3107799D01*
X-3117799Y+3003647D01*
X-3117799Y+2856353D01*
X-3041599Y+2780153D01*
X-3041599Y+2384815D01*
X-3036910Y+2380126D01*
X-3025298Y+2341778D01*
X-3005193Y+2304186D01*
X-3004342Y+2303149D01*
X-3969466Y+2303149D01*
X-4046275Y+2307359D01*
X-4074206Y+2315816D01*
X-4100476Y+2329866D01*
X-4123105Y+2348445D01*
X-4141686Y+2371076D01*
X-4155733Y+2397341D01*
X-4164191Y+2425275D01*
X-4168401Y+2502084D01*
X-4168401Y+2758153D01*
X-4131000Y+2795554D01*
X-4077647Y+2742201D01*
X-3930353Y+2742201D01*
X-3877000Y+2795554D01*
X-3823647Y+2742201D01*
X-3676353Y+2742201D01*
X-3572201Y+2846353D01*
X-3572201Y+2993647D01*
X-3676353Y+3097799D01*
X-3823647Y+3097799D01*
X-3877000Y+3044446D01*
X-3877001Y+3044447D01*
X-3877001Y+3089624D01*
X-3875070Y+3149544D01*
X-3873955Y+3151629D01*
X-3872569Y+3153317D01*
X-3870881Y+3154703D01*
X-3868796Y+3155818D01*
X-3808876Y+3157749D01*
X-2870719Y+3157749D01*
X-2814689Y+3156059D01*
X-208702Y+2202353D02*
X-163797Y+2188757D01*
X-122501Y+2166671D01*
X-121925Y+2166199D01*
X-895701Y+2166199D01*
X-895701Y+2208245D01*
X-303328Y+2208245D01*
X-208702Y+2202353D01*
X+5465515Y+1836000D02*
X+5445000Y+1815485D01*
X+5424485Y+1836000D01*
X+5445000Y+1856515D01*
X+5465515Y+1836000D01*
X+5465515Y+1582000D02*
X+5445000Y+1561485D01*
X+5424485Y+1582000D01*
X+5445000Y+1602515D01*
X+5465515Y+1582000D01*
X+5465515Y+1328000D02*
X+5445000Y+1307485D01*
X+5424485Y+1328000D01*
X+5445000Y+1348515D01*
X+5465515Y+1328000D01*
X-4259199Y+1168601D02*
X-4259199Y+1168599D01*
X-4461789Y+1168599D01*
X-4489972Y+1162241D01*
X-4499587Y+1159330D01*
X-4555845Y+1142295D01*
X-4564703Y+1137558D01*
X-4615475Y+1110404D01*
X-4623206Y+1104057D01*
X-4667269Y+1067880D01*
X-4683760Y+1047795D01*
X-4680426Y+1110655D01*
X-4672945Y+1135364D01*
X-4660420Y+1158783D01*
X-4643865Y+1178945D01*
X-4623703Y+1195500D01*
X-4600284Y+1208025D01*
X-4575575Y+1215506D01*
X-4502131Y+1219401D01*
X-4259199Y+1219401D01*
X-4259199Y+1168601D01*
X+5465515Y+1074000D02*
X+5445000Y+1053485D01*
X+5424485Y+1074000D01*
X+5445000Y+1094515D01*
X+5465515Y+1074000D01*
X-4259199Y+914601D02*
X-4259199Y+914599D01*
X-4416966Y+914599D01*
X-4433951Y+909331D01*
X-4489462Y+892523D01*
X-4539771Y+865617D01*
X-4561045Y+848151D01*
X-4560802Y+852676D01*
X-4553031Y+878342D01*
X-4540053Y+902608D01*
X-4522897Y+923504D01*
X-4501996Y+940664D01*
X-4477732Y+953641D01*
X-4452067Y+961412D01*
X-4377621Y+965401D01*
X-4259199Y+965401D01*
X-4259199Y+914601D01*
X+5465515Y+820000D02*
X+5445000Y+799485D01*
X+5424485Y+820000D01*
X+5445000Y+840515D01*
X+5465515Y+820000D01*
X+5465515Y+566000D02*
X+5445000Y+545485D01*
X+5424485Y+566000D01*
X+5445000Y+586515D01*
X+5465515Y+566000D01*
X+5465515Y+312000D02*
X+5445000Y+291485D01*
X+5424485Y+312000D01*
X+5445000Y+332515D01*
X+5465515Y+312000D01*
X+5465515Y+58000D02*
X+5445000Y+37485D01*
X+5424485Y+58000D01*
X+5445000Y+78515D01*
X+5465515Y+58000D01*
X+6065539Y+4471046D02*
X+6102476Y+4465591D01*
X+6138662Y+4456540D01*
X+6173107Y+4444213D01*
X+6205660Y+4428801D01*
X+6236239Y+4410451D01*
X+6264670Y+4389347D01*
X+6290820Y+4365638D01*
X+6314530Y+4339486D01*
X+6335634Y+4311056D01*
X+6353986Y+4280473D01*
X+6369397Y+4247923D01*
X+6381724Y+4213478D01*
X+6390775Y+4177290D01*
X+6396230Y+4140355D01*
X+6398401Y+4057916D01*
X+6398401Y+3333173D01*
X+6405201Y+3300448D01*
X+6426417Y+3230380D01*
X+6460323Y+3166982D01*
X+6466674Y+3159246D01*
X+6505536Y+3111914D01*
X+6560604Y+3066701D01*
X+6569425Y+3061983D01*
X+6624002Y+3032795D01*
X+6633618Y+3029883D01*
X+6694070Y+3011579D01*
X+6726795Y+3004779D01*
X+6964919Y+3004779D01*
X+7057626Y+2999069D01*
X+7100711Y+2986024D01*
X+7140393Y+2964802D01*
X+7174647Y+2936677D01*
X+7202770Y+2902425D01*
X+7223995Y+2862739D01*
X+7237038Y+2819659D01*
X+7242748Y+2726950D01*
X+7242748Y-2348256D01*
X+7239476Y-2415012D01*
X+7233944Y-2433285D01*
X+7224452Y-2451032D01*
X+7211931Y-2466283D01*
X+7196680Y-2478804D01*
X+7178933Y-2488296D01*
X+7160660Y-2493828D01*
X+7093904Y-2497100D01*
X+6128918Y-2497101D01*
X+6003405Y-2497100D01*
X+6016300Y-2484205D01*
X+6016300Y-2389517D01*
X+6003600Y-2376817D01*
X+6003600Y-1372917D01*
X+5995584Y-1327698D01*
X+5992674Y-1318085D01*
X+5970870Y-1246072D01*
X+5966132Y-1237212D01*
X+5931402Y-1172275D01*
X+5878797Y-1108204D01*
X+5814723Y-1055597D01*
X+5805902Y-1050879D01*
X+5740930Y-1016131D01*
X+5734743Y-1014258D01*
X+5678485Y-958000D01*
X+5737099Y-899386D01*
X+5737099Y-762614D01*
X+5678485Y-704000D01*
X+5737099Y-645386D01*
X+5737099Y-508614D01*
X+5678485Y-450000D01*
X+5737099Y-391386D01*
X+5737099Y-254614D01*
X+5678485Y-196000D01*
X+5737099Y-137386D01*
X+5737099Y-614D01*
X+5678485Y+58000D01*
X+5737099Y+116614D01*
X+5737099Y+253386D01*
X+5678485Y+312000D01*
X+5737099Y+370614D01*
X+5737099Y+507386D01*
X+5678485Y+566000D01*
X+5737099Y+624614D01*
X+5737099Y+761386D01*
X+5678485Y+820000D01*
X+5737099Y+878614D01*
X+5737099Y+1015386D01*
X+5678485Y+1074000D01*
X+5737099Y+1132614D01*
X+5737099Y+1269386D01*
X+5678485Y+1328000D01*
X+5737099Y+1386614D01*
X+5737099Y+1523386D01*
X+5678485Y+1582000D01*
X+5737099Y+1640614D01*
X+5737099Y+1777386D01*
X+5678485Y+1836000D01*
X+5737099Y+1894614D01*
X+5737099Y+2031386D01*
X+5700084Y+2068401D01*
X+5958070Y+2068401D01*
X+6026074Y+2065013D01*
X+6045543Y+2059119D01*
X+6064349Y+2049061D01*
X+6080515Y+2035787D01*
X+6093789Y+2019621D01*
X+6103846Y+2000816D01*
X+6109742Y+1981343D01*
X+6113129Y+1913342D01*
X+6125775Y+1881054D01*
X+6167087Y+1819180D01*
X+6183925Y+1807937D01*
X+6228961Y+1777868D01*
X+6261249Y+1765222D01*
X+6341738Y+1765222D01*
X+6354438Y+1752522D01*
X+6449126Y+1752522D01*
X+6462030Y+1765426D01*
X+6462030Y+1275687D01*
X+6464576Y+1262926D01*
X+6465304Y+1257995D01*
X+6472454Y+1209574D01*
X+6485345Y+1158038D01*
X+6487032Y+1153323D01*
X+6503016Y+1108662D01*
X+6505159Y+1104135D01*
X+6525237Y+1061726D01*
X+6527806Y+1057444D01*
X+6551753Y+1017536D01*
X+6582325Y+976354D01*
X+6585665Y+972669D01*
X+6616680Y+938459D01*
X+6620370Y+935113D01*
X+6654582Y+904095D01*
X+6695763Y+873528D01*
X+6700038Y+870962D01*
X+6739958Y+847006D01*
X+6786891Y+824787D01*
X+6792801Y+822672D01*
X+6792801Y-28999D01*
X+7199199Y-28999D01*
X+7199199Y+2561799D01*
X+6792801Y+2561799D01*
X+6792801Y+1054555D01*
X+6783692Y+1061317D01*
X+6760539Y+1082308D01*
X+6739546Y+1105464D01*
X+6720860Y+1130636D01*
X+6704610Y+1157717D01*
X+6690956Y+1186556D01*
X+6680034Y+1217074D01*
X+6672010Y+1249154D01*
X+6667191Y+1281793D01*
X+6665228Y+1359855D01*
X+6665228Y+2895058D01*
X+6652704Y+2926723D01*
X+6611726Y+2988097D01*
X+6550352Y+3029075D01*
X+6518687Y+3041599D01*
X+5407847Y+3041599D01*
X+5331647Y+3117799D01*
X+5184353Y+3117799D01*
X+5131000Y+3064446D01*
X+5129859Y+3065587D01*
X+5129859Y+3221899D01*
X+5122452Y+3229306D01*
X+5122008Y+3230773D01*
X+5111458Y+3265621D01*
X+5088661Y+3308244D01*
X+5080722Y+3317914D01*
X+5058202Y+3345342D01*
X+5044597Y+3356512D01*
X+5061475Y+3356512D01*
X+5128430Y+3423467D01*
X+5128430Y+3518155D01*
X+5061475Y+3585110D01*
X+4966787Y+3585110D01*
X+4954087Y+3572410D01*
X+4739537Y+3572409D01*
X+4507027Y+3572410D01*
X+4432887Y+3576370D01*
X+4407508Y+3584054D01*
X+4383501Y+3596894D01*
X+4362826Y+3613868D01*
X+4345852Y+3634543D01*
X+4333012Y+3658550D01*
X+4325328Y+3683929D01*
X+4321368Y+3758069D01*
X+4321368Y+3816801D01*
X+5630399Y+3816801D01*
X+5630399Y+4223199D01*
X+3801599Y+4223199D01*
X+3801599Y+4241977D01*
X+3806421Y+4325289D01*
X+3816759Y+4359435D01*
X+3833743Y+4391190D01*
X+3856233Y+4418582D01*
X+3883626Y+4441073D01*
X+3915381Y+4458057D01*
X+3949527Y+4468395D01*
X+4032839Y+4473217D01*
X+5983100Y+4473217D01*
X+6065539Y+4471046D01*
X+7199199Y-645399D02*
X+7199199Y-2423399D01*
X+6792801Y-2423399D01*
X+6792801Y-340601D01*
X+7199199Y-340601D01*
X+7199199Y-645399D01*
X+5465515Y-196000D02*
X+5445000Y-216515D01*
X+5424485Y-196000D01*
X+5445000Y-175485D01*
X+5465515Y-196000D01*
X+5465515Y-450000D02*
X+5445000Y-470515D01*
X+5424485Y-450000D01*
X+5445000Y-429485D01*
X+5465515Y-450000D01*
X+5465515Y-704000D02*
X+5445000Y-724515D01*
X+5424485Y-704000D01*
X+5445000Y-683485D01*
X+5465515Y-704000D01*
X+5465515Y-958000D02*
X+5445000Y-978515D01*
X+5424485Y-958000D01*
X+5445000Y-937485D01*
X+5465515Y-958000D01*
X+5465515Y-1212000D02*
X+5445000Y-1232515D01*
X+5424485Y-1212000D01*
X+5445000Y-1191485D01*
X+5465515Y-1212000D01*
X+5465515Y-1466000D02*
X+5445000Y-1486515D01*
X+5424485Y-1466000D01*
X+5445000Y-1445485D01*
X+5465515Y-1466000D01*
X+5465515Y-1720000D02*
X+5445000Y-1740515D01*
X+5424485Y-1720000D01*
X+5445000Y-1699485D01*
X+5465515Y-1720000D01*
X+4459646Y+165336D02*
X+4488662Y+161051D01*
X+4517332Y+153880D01*
X+4542211Y+144976D01*
X+4594257Y+117141D01*
X+4637283Y+81814D01*
X+4672610Y+38788D01*
X+4700445Y-13258D01*
X+4709349Y-38137D01*
X+4716518Y-66799D01*
X+4720804Y-95828D01*
X+4722593Y-170236D01*
X+4722594Y-1214598D01*
X+4722593Y-2343127D01*
X+4729966Y-2381734D01*
X+4734337Y-2396170D01*
X+4752828Y-2457244D01*
X+4789351Y-2525536D01*
X+4838045Y-2584844D01*
X+4897354Y-2633539D01*
X+4946460Y-2659801D01*
X+3159001Y-2659801D01*
X+3159001Y-3066199D01*
X+5241799Y-3066199D01*
X+5241799Y-2700298D01*
X+5658211Y-2700298D01*
X+5658211Y-2783029D01*
X+5670911Y-2795729D01*
X+5670911Y-3343013D01*
X+5658211Y-3355713D01*
X+5658211Y-3450401D01*
X+5658680Y-3450870D01*
X+5377597Y-3450870D01*
X+5380043Y-3448862D01*
X+5420439Y-3399660D01*
X+5450733Y-3343017D01*
X+5469669Y-3280474D01*
X+5475678Y-3255886D01*
X+5475678Y-3171718D01*
X+5475677Y-2965063D01*
X+5478417Y-2962323D01*
X+5478417Y-2867635D01*
X+5411462Y-2800680D01*
X+5316774Y-2800680D01*
X+5249819Y-2867635D01*
X+5249819Y-2962323D01*
X+5272481Y-2984985D01*
X+5272480Y-3171718D01*
X+5268821Y-3242633D01*
X+5262076Y-3264910D01*
X+5250699Y-3286181D01*
X+5235667Y-3304490D01*
X+5217363Y-3319519D01*
X+5196085Y-3330898D01*
X+5173812Y-3337643D01*
X+5102897Y-3341301D01*
X-856641Y-3341301D01*
X-856641Y-3295949D01*
X-923596Y-3228994D01*
X-1018284Y-3228994D01*
X-1021023Y-3231733D01*
X-3852801Y-3231733D01*
X-3852801Y-1785060D01*
X-3827651Y-1796967D01*
X-3797046Y-1815333D01*
X-3768593Y-1836453D01*
X-3742425Y-1860178D01*
X-3718700Y-1886346D01*
X-3697580Y-1914799D01*
X-3679214Y-1945404D01*
X-3663772Y-1978021D01*
X-3651424Y-2012526D01*
X-3642341Y-2048839D01*
X-3636906Y-2085639D01*
X-3634646Y-2179173D01*
X-3626887Y-2212459D01*
X-3602503Y-2292993D01*
X-3563510Y-2365902D01*
X-3511501Y-2429246D01*
X-3501856Y-2437166D01*
X-3448157Y-2481255D01*
X-3437133Y-2487151D01*
X-3375248Y-2520248D01*
X-3294714Y-2544632D01*
X-3261428Y-2552391D01*
X-2399199Y-2552391D01*
X-2378132Y-2545821D01*
X-2362075Y-2540959D01*
X-2308902Y-2524861D01*
X-2246154Y-2491301D01*
X-2191614Y-2446523D01*
X-2146836Y-2391983D01*
X-2113276Y-2329235D01*
X-2092316Y-2260005D01*
X-2085746Y-2238938D01*
X-2085746Y-1817034D01*
X-2025711Y-1756999D01*
X-1206289Y-1756999D01*
X-1156999Y-1806289D01*
X-1156999Y-2659801D01*
X-1438399Y-2659801D01*
X-1438399Y-3066199D01*
X+644399Y-3066199D01*
X+644399Y-2659801D01*
X-422401Y-2659801D01*
X-422401Y-2571672D01*
X-419951Y-2513785D01*
X-417024Y-2504118D01*
X-411567Y-2493915D01*
X-404419Y-2485210D01*
X-395709Y-2478058D01*
X-385510Y-2472603D01*
X-375842Y-2469676D01*
X-317955Y-2467226D01*
X-58974Y-2467226D01*
X-16053Y-2459434D01*
X+63441Y-2435364D01*
X+135325Y-2396919D01*
X+143056Y-2390572D01*
X+197737Y-2345677D01*
X+248979Y-2283265D01*
X+253699Y-2274440D01*
X+287424Y-2211381D01*
X+290335Y-2201768D01*
X+311494Y-2131887D01*
X+319286Y-2088966D01*
X+319286Y-1491318D01*
X+322387Y-1426390D01*
X+327384Y-1409887D01*
X+336045Y-1393694D01*
X+347459Y-1379791D01*
X+361362Y-1368377D01*
X+377555Y-1359716D01*
X+394058Y-1354719D01*
X+458986Y-1351618D01*
X+566801Y-1351618D01*
X+566801Y-2387399D01*
X+973199Y-2387399D01*
X+973199Y-837999D01*
X+1121605Y-837999D01*
X+1145113Y-831191D01*
X+1157123Y-827555D01*
X+1198348Y-815073D01*
X+1198348Y-906755D01*
X+1211048Y-919455D01*
X+1211048Y-1044682D01*
X+1215966Y-1058072D01*
X+1231766Y-1110254D01*
X+1257074Y-1157577D01*
X+1290847Y-1198711D01*
X+1331981Y-1232484D01*
X+1379306Y-1257793D01*
X+1431484Y-1273591D01*
X+1444876Y-1278510D01*
X+1728260Y-1278510D01*
X+1757527Y-1266456D01*
X+1816965Y-1226771D01*
X+1856653Y-1167329D01*
X+1868706Y-1138064D01*
X+1868706Y-901495D01*
X+1871089Y-873982D01*
X+1898602Y-871599D01*
X+1966801Y-871599D01*
X+1966801Y-2423399D01*
X+2373199Y-2423399D01*
X+2373199Y-871599D01*
X+2840103Y-871599D01*
X+2852803Y-884299D01*
X+2947491Y-884299D01*
X+3014446Y-817344D01*
X+3014446Y-722656D01*
X+2947491Y-655701D01*
X+2852803Y-655701D01*
X+2840103Y-668401D01*
X+1814434Y-668401D01*
X+1781829Y-681109D01*
X+1719699Y-722592D01*
X+1708456Y-739430D01*
X+1678216Y-784722D01*
X+1665508Y-817327D01*
X+1665508Y-1053896D01*
X+1663923Y-1073727D01*
X+1644092Y-1075312D01*
X+1529044Y-1075312D01*
X+1469095Y-1072672D01*
X+1457412Y-1069134D01*
X+1445454Y-1062739D01*
X+1435221Y-1054337D01*
X+1426819Y-1044104D01*
X+1420423Y-1032145D01*
X+1416886Y-1020464D01*
X+1414246Y-960514D01*
X+1414246Y-919455D01*
X+1426946Y-906755D01*
X+1426946Y-812067D01*
X+1359991Y-745112D01*
X+1317663Y-745112D01*
X+1337678Y-728678D01*
X+1345598Y-719033D01*
X+1383900Y-672383D01*
X+1390665Y-659735D01*
X+1418546Y-607604D01*
X+1440191Y-536113D01*
X+1446999Y-512605D01*
X+1450357Y-437046D01*
X+1454960Y-421844D01*
X+1463238Y-406366D01*
X+1474116Y-393118D01*
X+1487369Y-382236D01*
X+1502843Y-373961D01*
X+1518046Y-369357D01*
X+1593605Y-365999D01*
X+1966801Y-365999D01*
X+1966801Y-645399D01*
X+2373199Y-645399D01*
X+2373199Y-368161D01*
X+3020574Y-368161D01*
X+3110576Y-370254D01*
X+3143888Y-375173D01*
X+3176876Y-383424D01*
X+3208208Y-394637D01*
X+3237815Y-408655D01*
X+3265589Y-425321D01*
X+3291413Y-444490D01*
X+3315147Y-466007D01*
X+3336678Y-489756D01*
X+3355837Y-515567D01*
X+3372506Y-543346D01*
X+3386521Y-572947D01*
X+3397740Y-604294D01*
X+3405989Y-637274D01*
X+3410908Y-670586D01*
X+3413001Y-760588D01*
X+3413001Y-1403711D01*
X+3311401Y-1505311D01*
X+3311401Y-1694689D01*
X+3445311Y-1828599D01*
X+3634689Y-1828599D01*
X+3768599Y-1694689D01*
X+3768599Y-1505311D01*
X+3666999Y-1403711D01*
X+3666999Y-655378D01*
X+3664189Y-647085D01*
X+3663278Y-640914D01*
X+3655434Y-587795D01*
X+3651967Y-573935D01*
X+3641103Y-530497D01*
X+3621451Y-475584D01*
X+3596729Y-423367D01*
X+3567225Y-374200D01*
X+3563506Y-369189D01*
X+3533206Y-328369D01*
X+3529027Y-323759D01*
X+3494972Y-286197D01*
X+3452784Y-247949D01*
X+3406965Y-213938D01*
X+3399467Y-209438D01*
X+3357794Y-184432D01*
X+3305586Y-159714D01*
X+3250662Y-140058D01*
X+3193367Y-125728D01*
X+3134077Y-116973D01*
X+3125784Y-114163D01*
X+2373199Y-114163D01*
X+2373199Y+167124D01*
X+4385233Y+167124D01*
X+4459646Y+165336D01*
X+2930399Y-3066199D02*
X+847601Y-3066199D01*
X+847601Y-2659801D01*
X+2930399Y-2659801D01*
X+2930399Y-3066199D01*
X+3819401Y-1694689D02*
X+3819401Y-1505311D01*
X+3953311Y-1371401D01*
X+4142689Y-1371401D01*
X+4276599Y-1505311D01*
X+4276599Y-1694689D01*
X+4142689Y-1828599D01*
X+3953311Y-1828599D01*
X+3819401Y-1694689D01*
X+5465515Y-1974000D02*
X+5445000Y-1994515D01*
X+5424485Y-1974000D01*
X+5445000Y-1953485D01*
X+5465515Y-1974000D01*
X+5465515Y-2228000D02*
X+5445000Y-2248515D01*
X+5424485Y-2228000D01*
X+5445000Y-2207485D01*
X+5465515Y-2228000D01*
X+5480615Y-2497100D02*
X+5409385Y-2497100D01*
X+5445000Y-2461485D01*
X+5480615Y-2497100D01*
X+5701252Y-1225343D02*
X+5734423Y-1252578D01*
X+5761660Y-1285751D01*
X+5782214Y-1324184D01*
X+5794832Y-1365858D01*
X+5800402Y-1457085D01*
X+5800402Y-2376817D01*
X+5787702Y-2389517D01*
X+5787702Y-2484205D01*
X+5800597Y-2497100D01*
X+5663385Y-2497100D01*
X+5737099Y-2423386D01*
X+5737099Y-2286614D01*
X+5678485Y-2228000D01*
X+5737099Y-2169386D01*
X+5737099Y-2032614D01*
X+5678485Y-1974000D01*
X+5737099Y-1915386D01*
X+5737099Y-1778614D01*
X+5678485Y-1720000D01*
X+5737099Y-1661386D01*
X+5737099Y-1524614D01*
X+5678485Y-1466000D01*
X+5737099Y-1407386D01*
X+5737099Y-1270614D01*
X+5680993Y-1214508D01*
X+5701252Y-1225343D01*
D14*
X+5318000Y+1963000D03*
X+5572000Y+1963000D03*
X+5318000Y+1709000D03*
X+5572000Y+1709000D03*
X+5318000Y+1455000D03*
X+5572000Y+1455000D03*
X+5318000Y+1201000D03*
X+5572000Y+1201000D03*
X+5318000Y+947000D03*
X+5572000Y+947000D03*
X+5318000Y+693000D03*
X+5572000Y+693000D03*
X+5318000Y+439000D03*
X+5572000Y+439000D03*
X+5318000Y+185000D03*
X+5572000Y+185000D03*
X+5318000Y-69000D03*
X+5572000Y-69000D03*
X+5318000Y-323000D03*
X+5572000Y-323000D03*
X+5318000Y-577000D03*
X+5572000Y-577000D03*
X+5318000Y-831000D03*
X+5572000Y-831000D03*
X+5318000Y-1085000D03*
X+5572000Y-1085000D03*
X+5318000Y-1339000D03*
X+5572000Y-1339000D03*
X+5318000Y-1593000D03*
X+5572000Y-1593000D03*
X+5318000Y-1847000D03*
X+5572000Y-1847000D03*
X+5318000Y-2101000D03*
X+5572000Y-2101000D03*
X+5318000Y-2355000D03*
X+5572000Y-2355000D03*
D15*
X+3311400Y-2863000D03*
X+3565400Y-2863000D03*
X+3819400Y-2863000D03*
X+4073400Y-2863000D03*
X+4327400Y-2863000D03*
X+4581400Y-2863000D03*
X+4835400Y-2863000D03*
X+5089400Y-2863000D03*
X+1000000Y-2863000D03*
X+1254000Y-2863000D03*
X+1508000Y-2863000D03*
X+1762000Y-2863000D03*
X+2016000Y-2863000D03*
X+2270000Y-2863000D03*
X+2524000Y-2863000D03*
X+2778000Y-2863000D03*
X-1286000Y-2863000D03*
X-1032000Y-2863000D03*
X-778000Y-2863000D03*
X-524000Y-2863000D03*
X-270000Y-2863000D03*
X-16000Y-2863000D03*
X+238000Y-2863000D03*
X+492000Y-2863000D03*
X+2778000Y+1963000D03*
X+3032000Y+1963000D03*
X+3286000Y+1963000D03*
X+3540000Y+1963000D03*
X+3794000Y+1963000D03*
X+4048000Y+1963000D03*
X+4302000Y+1963000D03*
X+4556000Y+1963000D03*
X+492000Y+1963000D03*
X+746000Y+1963000D03*
X+1000000Y+1963000D03*
X+1254000Y+1963000D03*
X+1508000Y+1963000D03*
X+1762000Y+1963000D03*
X+2016000Y+1963000D03*
X+2270000Y+1963000D03*
X-2200400Y+1963000D03*
X-1946400Y+1963000D03*
X-1692400Y+1963000D03*
X-1438400Y+1963000D03*
X-1184400Y+1963000D03*
X-930400Y+1963000D03*
X-676400Y+1963000D03*
X-422400Y+1963000D03*
X-168400Y+1963000D03*
X+85600Y+1963000D03*
D16*
X+2170000Y-2271000D03*
X+2170000Y-2017000D03*
X+2170000Y-1763000D03*
X+2170000Y-1509000D03*
X+2170000Y-1255000D03*
X+2170000Y-1001000D03*
X+2170000Y-493000D03*
X+2170000Y-239000D03*
X+2170000Y+15000D03*
X+2170000Y+269000D03*
X+2170000Y+523000D03*
X+2170000Y+777000D03*
X+2170000Y+1031000D03*
X+2170000Y+1285000D03*
X+6996000Y-2271000D03*
X+6996000Y-2017000D03*
X+6996000Y-1763000D03*
X+6996000Y-1509000D03*
X+6996000Y-1255000D03*
X+6996000Y-1001000D03*
X+6996000Y-747000D03*
X+6996000Y-493000D03*
X+6996000Y+123400D03*
X+6996000Y+377400D03*
X+6996000Y+631400D03*
X+6996000Y+885400D03*
X+6996000Y+1139400D03*
X+6996000Y+1393400D03*
X+6996000Y+1647400D03*
X+6996000Y+1901400D03*
X+6996000Y+2155400D03*
X+6996000Y+2409400D03*
X+770000Y+1321000D03*
X+770000Y+1067000D03*
X+770000Y+813000D03*
X+770000Y+559000D03*
X+770000Y+305000D03*
X+770000Y+51000D03*
X+770000Y-457000D03*
X+770000Y-711000D03*
X+770000Y-965000D03*
X+770000Y-1219000D03*
X+770000Y-1473000D03*
X+770000Y-1727000D03*
X+770000Y-1981000D03*
X+770000Y-2235000D03*
X-4056000Y+1321000D03*
X-4056000Y+1067000D03*
X-4056000Y+813000D03*
X-4056000Y+559000D03*
X-4056000Y+305000D03*
X-4056000Y+51000D03*
X-4056000Y-203000D03*
X-4056000Y-457000D03*
X-4056000Y-863400D03*
X-4056000Y-1117400D03*
X-4056000Y-1371400D03*
X-4056000Y-1625400D03*
X-4056000Y-1879400D03*
X-4056000Y-2133400D03*
X-4056000Y-2387400D03*
X-4056000Y-2641400D03*
X-4056000Y-2895400D03*
X-4056000Y-3149400D03*
D15*
X+1204000Y+4010000D03*
X+1458000Y+4010000D03*
X+1712000Y+4010000D03*
X+1966000Y+4010000D03*
X+2220000Y+4010000D03*
X+2474000Y+4010000D03*
X+3700000Y+4020000D03*
X+3954000Y+4020000D03*
X+4208000Y+4020000D03*
X+4462000Y+4020000D03*
X+4716000Y+4020000D03*
X+4970000Y+4020000D03*
X+5224000Y+4020000D03*
X+5478000Y+4020000D03*
D17*
X+4750000Y+2940000D03*
X+5004000Y+2940000D03*
X+5258000Y+2940000D03*
X+3450000Y+2940000D03*
X+3704000Y+2940000D03*
X+3958000Y+2940000D03*
X+2140000Y+2930000D03*
X+2394000Y+2930000D03*
X+2648000Y+2930000D03*
X+870000Y+2930000D03*
X+1124000Y+2930000D03*
X+1378000Y+2930000D03*
X-410000Y+2920000D03*
X-156000Y+2920000D03*
X+98000Y+2920000D03*
X-1680000Y+2930000D03*
X-1426000Y+2930000D03*
X-1172000Y+2930000D03*
X-2940000Y+2930000D03*
X-2686000Y+2930000D03*
X-2432000Y+2930000D03*
X-4258000Y+2920000D03*
X-4004000Y+2920000D03*
X-3750000Y+2920000D03*
D18*
X-1030000Y-1610000D03*
X-522000Y-1610000D03*
X-360000Y+4060000D03*
X+148000Y+4060000D03*
X-2730000Y-1630000D03*
X-2222000Y-1630000D03*
X+3540000Y-1600000D03*
X+4048000Y-1600000D03*
D19*
X-4420000Y+4680000D03*
D70*
X-4250000Y+4680000D03*
X-4080000Y+4680000D03*
X-3910000Y+4680000D03*
X-3740000Y+4680000D03*
D17*
X-4410000Y+3920000D03*
X-4410000Y+3666000D03*
D71*
X-3070000Y+5100000D03*
D20*
X-90000Y+5100000D03*
D17*
X-2030000Y+3650000D03*
X-1776000Y+3650000D03*
D14*
X-2480000Y+3664000D03*
X-2480000Y+4680000D03*
X-1090000Y+4680000D03*
X-1090000Y+3664000D03*
D18*
X-3350000Y+3670000D03*
X-2842000Y+3670000D03*
D21*
X-5170000Y-3700000D02*
X+7830000Y-3700000D01*
X+7830000Y+5600000D01*
X-5170000Y+5600000D01*
X-5170000Y-3700000D01*
M02*
