G04 PROTEUS GERBER X2 FILE*
%TF.GenerationSoftware,Labcenter,Proteus,8.12-SP2-Build31155*%
%TF.CreationDate,2022-01-10T11:38:20+00:00*%
%TF.FileFunction,AssemblyDrawing,Bot*%
%TF.FilePolarity,Positive*%
%TF.Part,Single*%
%TF.SameCoordinates,{77801cfb-34c7-4bc7-9940-2a46c461fd0e}*%
%FSLAX45Y45*%
%MOMM*%
G01*
%TA.AperFunction,Profile*%
%ADD21C,0.203200*%
%TA.AperFunction,Material*%
%ADD23C,0.203200*%
%ADD38C,1.016000*%
%ADD39C,0.266700*%
%ADD51C,0.190860*%
%ADD43C,0.812800*%
%ADD52C,0.220130*%
%ADD49C,1.219200*%
%ADD50C,0.314280*%
%TD.AperFunction*%
D21*
X-5170000Y-3700000D02*
X+7830000Y-3700000D01*
X+7830000Y+5600000D01*
X-5170000Y+5600000D01*
X-5170000Y-3700000D01*
D23*
X+1969340Y-2408160D02*
X+2370660Y-2408160D01*
X+2370660Y-863840D01*
X+1969340Y-863840D01*
X+1969340Y-2408160D01*
D38*
X+2170000Y-2271000D02*
X+2170000Y-2271000D01*
D39*
X+2143330Y-1902065D02*
X+2116660Y-1902065D01*
X+2089990Y-1872062D01*
X+2089990Y-1752047D01*
X+2116660Y-1722043D01*
X+2250010Y-1722043D01*
X+2196670Y-1602028D02*
X+2250010Y-1542020D01*
X+2089990Y-1542020D01*
X+2250010Y-1392002D02*
X+2250010Y-1241983D01*
X+2223340Y-1241983D01*
X+2089990Y-1392002D01*
D23*
X+1969340Y-630160D02*
X+2370660Y-630160D01*
X+2370660Y+1422160D01*
X+1969340Y+1422160D01*
X+1969340Y-630160D01*
D38*
X+2170000Y-493000D02*
X+2170000Y-493000D01*
D39*
X+2143330Y+129935D02*
X+2116660Y+129935D01*
X+2089990Y+159938D01*
X+2089990Y+279953D01*
X+2116660Y+309957D01*
X+2250010Y+309957D01*
X+2196670Y+429972D02*
X+2250010Y+489980D01*
X+2089990Y+489980D01*
X+2196670Y+790017D02*
X+2170000Y+760013D01*
X+2170000Y+670002D01*
X+2196670Y+639998D01*
X+2223340Y+639998D01*
X+2250010Y+670002D01*
X+2250010Y+760013D01*
X+2223340Y+790017D01*
X+2116660Y+790017D01*
X+2089990Y+760013D01*
X+2089990Y+670002D01*
D23*
X+6795340Y-2408160D02*
X+7196660Y-2408160D01*
X+7196660Y-355840D01*
X+6795340Y-355840D01*
X+6795340Y-2408160D01*
D38*
X+6996000Y-2271000D02*
X+6996000Y-2271000D01*
D39*
X+6969330Y-1648065D02*
X+6942660Y-1648065D01*
X+6915990Y-1618062D01*
X+6915990Y-1498047D01*
X+6942660Y-1468043D01*
X+7076010Y-1468043D01*
X+7049340Y-1378032D02*
X+7076010Y-1348028D01*
X+7076010Y-1258017D01*
X+7049340Y-1228013D01*
X+7022670Y-1228013D01*
X+6996000Y-1258017D01*
X+6996000Y-1348028D01*
X+6969330Y-1378032D01*
X+6915990Y-1378032D01*
X+6915990Y-1228013D01*
X+7049340Y-1138002D02*
X+7076010Y-1107998D01*
X+7076010Y-1017987D01*
X+7049340Y-987983D01*
X+7022670Y-987983D01*
X+6996000Y-1017987D01*
X+6996000Y-1107998D01*
X+6969330Y-1138002D01*
X+6915990Y-1138002D01*
X+6915990Y-987983D01*
D23*
X+6795340Y-13760D02*
X+7196660Y-13760D01*
X+7196660Y+2546560D01*
X+6795340Y+2546560D01*
X+6795340Y-13760D01*
D38*
X+6996000Y+123400D02*
X+6996000Y+123400D01*
D39*
X+6969330Y+1000335D02*
X+6942660Y+1000335D01*
X+6915990Y+1030338D01*
X+6915990Y+1150353D01*
X+6942660Y+1180357D01*
X+7076010Y+1180357D01*
X+7049340Y+1270368D02*
X+7076010Y+1300372D01*
X+7076010Y+1390383D01*
X+7049340Y+1420387D01*
X+7022670Y+1420387D01*
X+6996000Y+1390383D01*
X+6996000Y+1300372D01*
X+6969330Y+1270368D01*
X+6915990Y+1270368D01*
X+6915990Y+1420387D01*
X+7049340Y+1510398D02*
X+7076010Y+1540402D01*
X+7076010Y+1630413D01*
X+7049340Y+1660417D01*
X+7022670Y+1660417D01*
X+6996000Y+1630413D01*
X+6969330Y+1660417D01*
X+6942660Y+1660417D01*
X+6915990Y+1630413D01*
X+6915990Y+1540402D01*
X+6942660Y+1510398D01*
X+6996000Y+1570406D02*
X+6996000Y+1630413D01*
D23*
X+569340Y-86160D02*
X+970660Y-86160D01*
X+970660Y+1458160D01*
X+569340Y+1458160D01*
X+569340Y-86160D01*
D38*
X+770000Y+1321000D02*
X+770000Y+1321000D01*
D39*
X+743330Y+231975D02*
X+716660Y+231975D01*
X+689990Y+261978D01*
X+689990Y+381993D01*
X+716660Y+411997D01*
X+850010Y+411997D01*
X+796670Y+532012D02*
X+850010Y+592020D01*
X+689990Y+592020D01*
X+770000Y+772042D02*
X+796670Y+742038D01*
X+823340Y+742038D01*
X+850010Y+772042D01*
X+850010Y+862053D01*
X+823340Y+892057D01*
X+796670Y+892057D01*
X+770000Y+862053D01*
X+770000Y+772042D01*
X+743330Y+742038D01*
X+716660Y+742038D01*
X+689990Y+772042D01*
X+689990Y+862053D01*
X+716660Y+892057D01*
X+743330Y+892057D01*
X+770000Y+862053D01*
D23*
X+569340Y-2372160D02*
X+970660Y-2372160D01*
X+970660Y-319840D01*
X+569340Y-319840D01*
X+569340Y-2372160D01*
D38*
X+770000Y-457000D02*
X+770000Y-457000D01*
D39*
X+743330Y-1800025D02*
X+716660Y-1800025D01*
X+689990Y-1770022D01*
X+689990Y-1650007D01*
X+716660Y-1620003D01*
X+850010Y-1620003D01*
X+823340Y-1529992D02*
X+850010Y-1499988D01*
X+850010Y-1409977D01*
X+823340Y-1379973D01*
X+796670Y-1379973D01*
X+770000Y-1409977D01*
X+770000Y-1499988D01*
X+743330Y-1529992D01*
X+689990Y-1529992D01*
X+689990Y-1379973D01*
X+716660Y-1319965D02*
X+823340Y-1319965D01*
X+850010Y-1289962D01*
X+850010Y-1169947D01*
X+823340Y-1139943D01*
X+716660Y-1139943D01*
X+689990Y-1169947D01*
X+689990Y-1289962D01*
X+716660Y-1319965D01*
X+689990Y-1319965D02*
X+850010Y-1139943D01*
D23*
X-4256660Y-594160D02*
X-3855340Y-594160D01*
X-3855340Y+1458160D01*
X-4256660Y+1458160D01*
X-4256660Y-594160D01*
D38*
X-4056000Y+1321000D02*
X-4056000Y+1321000D01*
D39*
X-4082670Y-22025D02*
X-4109340Y-22025D01*
X-4136010Y+7978D01*
X-4136010Y+127993D01*
X-4109340Y+157997D01*
X-3975990Y+157997D01*
X-4002660Y+248008D02*
X-3975990Y+278012D01*
X-3975990Y+368023D01*
X-4002660Y+398027D01*
X-4029330Y+398027D01*
X-4056000Y+368023D01*
X-4056000Y+278012D01*
X-4082670Y+248008D01*
X-4136010Y+248008D01*
X-4136010Y+398027D01*
X-4029330Y+518042D02*
X-3975990Y+578050D01*
X-4136010Y+578050D01*
D23*
X-4256660Y-3286560D02*
X-3855340Y-3286560D01*
X-3855340Y-726240D01*
X-4256660Y-726240D01*
X-4256660Y-3286560D01*
D38*
X-4056000Y-863400D02*
X-4056000Y-863400D01*
D39*
X-4082670Y-2460425D02*
X-4109340Y-2460425D01*
X-4136010Y-2430422D01*
X-4136010Y-2310407D01*
X-4109340Y-2280403D01*
X-3975990Y-2280403D01*
X-4002660Y-2190392D02*
X-3975990Y-2160388D01*
X-3975990Y-2070377D01*
X-4002660Y-2040373D01*
X-4029330Y-2040373D01*
X-4056000Y-2070377D01*
X-4056000Y-2160388D01*
X-4082670Y-2190392D01*
X-4136010Y-2190392D01*
X-4136010Y-2040373D01*
X-4082670Y-1800343D02*
X-4082670Y-1980365D01*
X-3975990Y-1860350D01*
X-4136010Y-1860350D01*
D23*
X+1066840Y+3809340D02*
X+2611160Y+3809340D01*
X+2611160Y+4210660D01*
X+1066840Y+4210660D01*
X+1066840Y+3809340D01*
D38*
X+1204000Y+4010000D02*
X+1204000Y+4010000D01*
D51*
X+1331768Y+4067259D02*
X+1331768Y+3990914D01*
X+1374711Y+3952742D01*
X+1417655Y+3952742D01*
X+1460599Y+3990914D01*
X+1460599Y+4067259D01*
X+1331768Y+4029087D02*
X+1460599Y+4029087D01*
X+1503543Y+4067259D02*
X+1503543Y+3952742D01*
X+1567958Y+4010000D01*
X+1632374Y+3952742D01*
X+1632374Y+4067259D01*
X+1761205Y+4029087D02*
X+1804149Y+4029087D01*
X+1804149Y+4067259D01*
X+1718261Y+4067259D01*
X+1675318Y+4029087D01*
X+1675318Y+3990914D01*
X+1718261Y+3952742D01*
X+1782677Y+3952742D01*
X+1804149Y+3971828D01*
X+1890036Y+4010000D02*
X+1868564Y+3990914D01*
X+1868564Y+3971828D01*
X+1890036Y+3952742D01*
X+1954452Y+3952742D01*
X+1975924Y+3971828D01*
X+1975924Y+3990914D01*
X+1954452Y+4010000D01*
X+1890036Y+4010000D01*
X+1868564Y+4029087D01*
X+1868564Y+4048173D01*
X+1890036Y+4067259D01*
X+1954452Y+4067259D01*
X+1975924Y+4048173D01*
X+1975924Y+4029087D01*
X+1954452Y+4010000D01*
X+2061811Y+4010000D02*
X+2040339Y+3990914D01*
X+2040339Y+3971828D01*
X+2061811Y+3952742D01*
X+2126227Y+3952742D01*
X+2147699Y+3971828D01*
X+2147699Y+3990914D01*
X+2126227Y+4010000D01*
X+2061811Y+4010000D01*
X+2040339Y+4029087D01*
X+2040339Y+4048173D01*
X+2061811Y+4067259D01*
X+2126227Y+4067259D01*
X+2147699Y+4048173D01*
X+2147699Y+4029087D01*
X+2126227Y+4010000D01*
X+2212114Y+3971828D02*
X+2233586Y+3952742D01*
X+2298002Y+3952742D01*
X+2319474Y+3971828D01*
X+2319474Y+3990914D01*
X+2298002Y+4010000D01*
X+2319474Y+4029087D01*
X+2319474Y+4048173D01*
X+2298002Y+4067259D01*
X+2233586Y+4067259D01*
X+2212114Y+4048173D01*
X+2255058Y+4010000D02*
X+2298002Y+4010000D01*
X+2383889Y+3971828D02*
X+2405361Y+3952742D01*
X+2469777Y+3952742D01*
X+2491249Y+3971828D01*
X+2491249Y+3990914D01*
X+2469777Y+4010000D01*
X+2491249Y+4029087D01*
X+2491249Y+4048173D01*
X+2469777Y+4067259D01*
X+2405361Y+4067259D01*
X+2383889Y+4048173D01*
X+2426833Y+4010000D02*
X+2469777Y+4010000D01*
D23*
X+3562840Y+3819340D02*
X+5615160Y+3819340D01*
X+5615160Y+4220660D01*
X+3562840Y+4220660D01*
X+3562840Y+3819340D01*
D38*
X+3700000Y+4020000D02*
X+3700000Y+4020000D01*
D39*
X+4142912Y+4073340D02*
X+4112908Y+4100010D01*
X+4022897Y+4100010D01*
X+3962890Y+4046670D01*
X+3962890Y+3993330D01*
X+4022897Y+3939990D01*
X+4112908Y+3939990D01*
X+4142912Y+3966660D01*
X+4202920Y+4073340D02*
X+4232923Y+4100010D01*
X+4352938Y+4100010D01*
X+4382942Y+4073340D01*
X+4382942Y+4046670D01*
X+4352938Y+4020000D01*
X+4232923Y+4020000D01*
X+4202920Y+3993330D01*
X+4202920Y+3966660D01*
X+4232923Y+3939990D01*
X+4352938Y+3939990D01*
X+4382942Y+3966660D01*
X+4442950Y+4073340D02*
X+4472953Y+4100010D01*
X+4592968Y+4100010D01*
X+4622972Y+4073340D01*
X+4622972Y+4046670D01*
X+4592968Y+4020000D01*
X+4472953Y+4020000D01*
X+4442950Y+3993330D01*
X+4442950Y+3966660D01*
X+4472953Y+3939990D01*
X+4592968Y+3939990D01*
X+4622972Y+3966660D01*
X+4742987Y+4020000D02*
X+4712983Y+3993330D01*
X+4712983Y+3966660D01*
X+4742987Y+3939990D01*
X+4832998Y+3939990D01*
X+4863002Y+3966660D01*
X+4863002Y+3993330D01*
X+4832998Y+4020000D01*
X+4742987Y+4020000D01*
X+4712983Y+4046670D01*
X+4712983Y+4073340D01*
X+4742987Y+4100010D01*
X+4832998Y+4100010D01*
X+4863002Y+4073340D01*
X+4863002Y+4046670D01*
X+4832998Y+4020000D01*
X+4983017Y+3993330D02*
X+5043025Y+3939990D01*
X+5043025Y+4100010D01*
X+5223047Y+3993330D02*
X+5283055Y+3939990D01*
X+5283055Y+4100010D01*
D23*
X+4485840Y+2548840D02*
X+5522160Y+2548840D01*
X+5522160Y+3204160D01*
X+4485840Y+3204160D01*
X+4485840Y+2548840D01*
D43*
X+4750000Y+2940000D02*
X+4750000Y+2940000D01*
D52*
X+4958281Y+2898513D02*
X+4958281Y+2920527D01*
X+4983045Y+2942540D01*
X+5082105Y+2942540D01*
X+5106870Y+2920527D01*
X+5106870Y+2810460D01*
X+5205929Y+2876500D02*
X+5181164Y+2854487D01*
X+5181164Y+2832473D01*
X+5205929Y+2810460D01*
X+5280224Y+2810460D01*
X+5304989Y+2832473D01*
X+5304989Y+2854487D01*
X+5280224Y+2876500D01*
X+5205929Y+2876500D01*
X+5181164Y+2898513D01*
X+5181164Y+2920527D01*
X+5205929Y+2942540D01*
X+5280224Y+2942540D01*
X+5304989Y+2920527D01*
X+5304989Y+2898513D01*
X+5280224Y+2876500D01*
D23*
X+3185840Y+2548840D02*
X+4222160Y+2548840D01*
X+4222160Y+3204160D01*
X+3185840Y+3204160D01*
X+3185840Y+2548840D01*
D43*
X+3450000Y+2940000D02*
X+3450000Y+2940000D01*
D52*
X+3559222Y+2898513D02*
X+3559222Y+2920527D01*
X+3583986Y+2942540D01*
X+3683046Y+2942540D01*
X+3707811Y+2920527D01*
X+3707811Y+2810460D01*
X+3806870Y+2854487D02*
X+3856400Y+2810460D01*
X+3856400Y+2942540D01*
X+3955460Y+2920527D02*
X+3955460Y+2832473D01*
X+3980224Y+2810460D01*
X+4079284Y+2810460D01*
X+4104049Y+2832473D01*
X+4104049Y+2920527D01*
X+4079284Y+2942540D01*
X+3980224Y+2942540D01*
X+3955460Y+2920527D01*
X+3955460Y+2942540D02*
X+4104049Y+2810460D01*
D23*
X+1875840Y+2538840D02*
X+2912160Y+2538840D01*
X+2912160Y+3194160D01*
X+1875840Y+3194160D01*
X+1875840Y+2538840D01*
D43*
X+2140000Y+2930000D02*
X+2140000Y+2930000D01*
D52*
X+2249222Y+2888513D02*
X+2249222Y+2910527D01*
X+2273986Y+2932540D01*
X+2373046Y+2932540D01*
X+2397811Y+2910527D01*
X+2397811Y+2800460D01*
X+2496870Y+2844487D02*
X+2546400Y+2800460D01*
X+2546400Y+2932540D01*
X+2694989Y+2844487D02*
X+2744519Y+2800460D01*
X+2744519Y+2932540D01*
D23*
X+605840Y+2538840D02*
X+1642160Y+2538840D01*
X+1642160Y+3194160D01*
X+605840Y+3194160D01*
X+605840Y+2538840D01*
D43*
X+870000Y+2930000D02*
X+870000Y+2930000D01*
D52*
X+979222Y+2888513D02*
X+979222Y+2910527D01*
X+1003986Y+2932540D01*
X+1103046Y+2932540D01*
X+1127811Y+2910527D01*
X+1127811Y+2800460D01*
X+1226870Y+2844487D02*
X+1276400Y+2800460D01*
X+1276400Y+2932540D01*
X+1400224Y+2822473D02*
X+1424989Y+2800460D01*
X+1499284Y+2800460D01*
X+1524049Y+2822473D01*
X+1524049Y+2844487D01*
X+1499284Y+2866500D01*
X+1424989Y+2866500D01*
X+1400224Y+2888513D01*
X+1400224Y+2932540D01*
X+1524049Y+2932540D01*
D23*
X-674160Y+2528840D02*
X+362160Y+2528840D01*
X+362160Y+3184160D01*
X-674160Y+3184160D01*
X-674160Y+2528840D01*
D43*
X-410000Y+2920000D02*
X-410000Y+2920000D01*
D52*
X-300778Y+2878513D02*
X-300778Y+2900527D01*
X-276014Y+2922540D01*
X-176954Y+2922540D01*
X-152189Y+2900527D01*
X-152189Y+2790460D01*
X-53130Y+2834487D02*
X-3600Y+2790460D01*
X-3600Y+2922540D01*
X+120224Y+2812473D02*
X+144989Y+2790460D01*
X+219284Y+2790460D01*
X+244049Y+2812473D01*
X+244049Y+2834487D01*
X+219284Y+2856500D01*
X+244049Y+2878513D01*
X+244049Y+2900527D01*
X+219284Y+2922540D01*
X+144989Y+2922540D01*
X+120224Y+2900527D01*
X+169754Y+2856500D02*
X+219284Y+2856500D01*
D23*
X-1944160Y+2538840D02*
X-907840Y+2538840D01*
X-907840Y+3194160D01*
X-1944160Y+3194160D01*
X-1944160Y+2538840D01*
D43*
X-1680000Y+2930000D02*
X-1680000Y+2930000D01*
D52*
X-1570778Y+2888513D02*
X-1570778Y+2910527D01*
X-1546014Y+2932540D01*
X-1446954Y+2932540D01*
X-1422189Y+2910527D01*
X-1422189Y+2800460D01*
X-1323130Y+2844487D02*
X-1273600Y+2800460D01*
X-1273600Y+2932540D01*
X-1025951Y+2888513D02*
X-1174540Y+2888513D01*
X-1075481Y+2800460D01*
X-1075481Y+2932540D01*
D23*
X-3204160Y+2538840D02*
X-2167840Y+2538840D01*
X-2167840Y+3194160D01*
X-3204160Y+3194160D01*
X-3204160Y+2538840D01*
D43*
X-2940000Y+2930000D02*
X-2940000Y+2930000D01*
D52*
X-2830778Y+2888513D02*
X-2830778Y+2910527D01*
X-2806014Y+2932540D01*
X-2706954Y+2932540D01*
X-2682189Y+2910527D01*
X-2682189Y+2800460D01*
X-2583130Y+2844487D02*
X-2533600Y+2800460D01*
X-2533600Y+2932540D01*
X-2285951Y+2800460D02*
X-2409776Y+2800460D01*
X-2409776Y+2844487D01*
X-2310716Y+2844487D01*
X-2285951Y+2866500D01*
X-2285951Y+2910527D01*
X-2310716Y+2932540D01*
X-2385011Y+2932540D01*
X-2409776Y+2910527D01*
D23*
X-4522160Y+2528840D02*
X-3485840Y+2528840D01*
X-3485840Y+3184160D01*
X-4522160Y+3184160D01*
X-4522160Y+2528840D01*
D43*
X-4258000Y+2920000D02*
X-4258000Y+2920000D01*
D52*
X-4148778Y+2878513D02*
X-4148778Y+2900527D01*
X-4124014Y+2922540D01*
X-4024954Y+2922540D01*
X-4000189Y+2900527D01*
X-4000189Y+2790460D01*
X-3901130Y+2834487D02*
X-3851600Y+2790460D01*
X-3851600Y+2922540D01*
X-3603951Y+2812473D02*
X-3628716Y+2790460D01*
X-3703011Y+2790460D01*
X-3727776Y+2812473D01*
X-3727776Y+2900527D01*
X-3703011Y+2922540D01*
X-3628716Y+2922540D01*
X-3603951Y+2900527D01*
X-3603951Y+2878513D01*
X-3628716Y+2856500D01*
X-3727776Y+2856500D01*
D23*
X-1294160Y-2128160D02*
X-257840Y-2128160D01*
X-257840Y-1091840D01*
X-1294160Y-1091840D01*
X-1294160Y-2128160D01*
D49*
X-1030000Y-1610000D02*
X-1030000Y-1610000D01*
D50*
X-644869Y-2034279D02*
X-676297Y-2034279D01*
X-707725Y-1998923D01*
X-707725Y-1857496D01*
X-676297Y-1822140D01*
X-519156Y-1822140D01*
X-550584Y-1716070D02*
X-519156Y-1680713D01*
X-519156Y-1574643D01*
X-550584Y-1539287D01*
X-582012Y-1539287D01*
X-613440Y-1574643D01*
X-644869Y-1539287D01*
X-676297Y-1539287D01*
X-707725Y-1574643D01*
X-707725Y-1680713D01*
X-676297Y-1716070D01*
X-613440Y-1645357D02*
X-613440Y-1574643D01*
X-676297Y-1468573D02*
X-550584Y-1468573D01*
X-519156Y-1433217D01*
X-519156Y-1291790D01*
X-550584Y-1256434D01*
X-676297Y-1256434D01*
X-707725Y-1291790D01*
X-707725Y-1433217D01*
X-676297Y-1468573D01*
X-707725Y-1468573D02*
X-519156Y-1256434D01*
D23*
X-624160Y+3541840D02*
X+412160Y+3541840D01*
X+412160Y+4578160D01*
X-624160Y+4578160D01*
X-624160Y+3541840D01*
D49*
X-360000Y+4060000D02*
X-360000Y+4060000D01*
D50*
X+25131Y+3777147D02*
X-6297Y+3777147D01*
X-37725Y+3812503D01*
X-37725Y+3953930D01*
X-6297Y+3989286D01*
X+150844Y+3989286D01*
X+87988Y+4272139D02*
X+56560Y+4236783D01*
X+56560Y+4130713D01*
X+87988Y+4095356D01*
X+119416Y+4095356D01*
X+150844Y+4130713D01*
X+150844Y+4236783D01*
X+119416Y+4272139D01*
X-6297Y+4272139D01*
X-37725Y+4236783D01*
X-37725Y+4130713D01*
D23*
X-2994160Y-2148160D02*
X-1957840Y-2148160D01*
X-1957840Y-1111840D01*
X-2994160Y-1111840D01*
X-2994160Y-2148160D01*
D49*
X-2730000Y-1630000D02*
X-2730000Y-1630000D01*
D50*
X-2344869Y-2054279D02*
X-2376297Y-2054279D01*
X-2407725Y-2018923D01*
X-2407725Y-1877496D01*
X-2376297Y-1842140D01*
X-2219156Y-1842140D01*
X-2250584Y-1736070D02*
X-2219156Y-1700713D01*
X-2219156Y-1594643D01*
X-2250584Y-1559287D01*
X-2282012Y-1559287D01*
X-2313440Y-1594643D01*
X-2344869Y-1559287D01*
X-2376297Y-1559287D01*
X-2407725Y-1594643D01*
X-2407725Y-1700713D01*
X-2376297Y-1736070D01*
X-2313440Y-1665357D02*
X-2313440Y-1594643D01*
X-2282012Y-1417860D02*
X-2219156Y-1347147D01*
X-2407725Y-1347147D01*
D23*
X+3275840Y-2118160D02*
X+4312160Y-2118160D01*
X+4312160Y-1081840D01*
X+3275840Y-1081840D01*
X+3275840Y-2118160D01*
D49*
X+3540000Y-1600000D02*
X+3540000Y-1600000D01*
D50*
X+3925131Y-2024279D02*
X+3893703Y-2024279D01*
X+3862275Y-1988923D01*
X+3862275Y-1847496D01*
X+3893703Y-1812140D01*
X+4050844Y-1812140D01*
X+4019416Y-1706070D02*
X+4050844Y-1670713D01*
X+4050844Y-1564643D01*
X+4019416Y-1529287D01*
X+3987988Y-1529287D01*
X+3956560Y-1564643D01*
X+3956560Y-1670713D01*
X+3925131Y-1706070D01*
X+3862275Y-1706070D01*
X+3862275Y-1529287D01*
X+4050844Y-1423217D02*
X+4050844Y-1246434D01*
X+4019416Y-1246434D01*
X+3862275Y-1423217D01*
M02*
