G04 PROTEUS GERBER X2 FILE*
%TF.GenerationSoftware,Labcenter,Proteus,8.12-SP2-Build31155*%
%TF.CreationDate,2022-01-10T11:38:20+00:00*%
%TF.FileFunction,Copper,L2,Bot*%
%TF.FilePolarity,Positive*%
%TF.Part,Single*%
%TF.SameCoordinates,{77801cfb-34c7-4bc7-9940-2a46c461fd0e}*%
%FSLAX45Y45*%
%MOMM*%
G01*
%TA.AperFunction,Conductor*%
%ADD11C,0.508000*%
%ADD10C,1.016000*%
%TA.AperFunction,ViaPad*%
%ADD12C,0.762000*%
%ADD13C,1.016000*%
%TA.AperFunction,Conductor*%
%ADD22C,0.254000*%
%TA.AperFunction,ComponentPad*%
%ADD14C,1.778000*%
%AMDIL005*
4,1,8,
-0.762000,0.965200,-0.457200,1.270000,0.457200,1.270000,0.762000,0.965200,0.762000,-0.965200,
0.457200,-1.270000,-0.457200,-1.270000,-0.762000,-0.965200,-0.762000,0.965200,
0*%
%TA.AperFunction,ComponentPad*%
%ADD15DIL005*%
%AMDIL006*
4,1,8,
-1.270000,0.457200,-0.965200,0.762000,0.965200,0.762000,1.270000,0.457200,1.270000,-0.457200,
0.965200,-0.762000,-0.965200,-0.762000,-1.270000,-0.457200,-1.270000,0.457200,
0*%
%TA.AperFunction,ComponentPad*%
%ADD16DIL006*%
%TA.AperFunction,ComponentPad*%
%ADD17C,2.032000*%
%TA.AperFunction,ComponentPad*%
%ADD18C,3.048000*%
%AMDIL009*
4,1,8,
-0.725000,0.710000,-0.435000,1.000000,0.435000,1.000000,0.725000,0.710000,0.725000,-0.710000,
0.435000,-1.000000,-0.435000,-1.000000,-0.725000,-0.710000,-0.725000,0.710000,
0*%
%TA.AperFunction,WasherPad*%
%ADD19DIL009*%
%AMPPAD010*
4,1,34,
0.000010,1.000000,
0.148250,0.985570,
0.285330,0.944070,
0.408610,0.878130,
0.515430,0.790430,
0.603130,0.683610,
0.669070,0.560330,
0.710570,0.423250,
0.725000,0.275010,
0.725000,-0.275010,
0.710570,-0.423250,
0.669070,-0.560330,
0.603130,-0.683610,
0.515430,-0.790430,
0.408610,-0.878130,
0.285330,-0.944070,
0.148250,-0.985570,
-0.000010,-1.000000,
-0.148250,-0.985570,
-0.285330,-0.944070,
-0.408610,-0.878130,
-0.515430,-0.790430,
-0.603130,-0.683610,
-0.669070,-0.560330,
-0.710570,-0.423250,
-0.725000,-0.275010,
-0.725000,0.275010,
-0.710570,0.423250,
-0.669070,0.560330,
-0.603130,0.683610,
-0.515430,0.790430,
-0.408610,0.878130,
-0.285330,0.944070,
-0.148250,0.985570,
0.000010,1.000000,
0*%
%ADD70PPAD010*%
%TA.AperFunction,WasherPad*%
%ADD71R,2.250000X2.250000*%
%TA.AperFunction,ComponentPad*%
%ADD20C,2.250000*%
%TA.AperFunction,Profile*%
%ADD21C,0.203200*%
%TD.AperFunction*%
G36*
X+7743640Y-3613640D02*
X+5721867Y-3613640D01*
X+5738477Y-3608610D01*
X+5776647Y-3588197D01*
X+5809857Y-3560930D01*
X+5837124Y-3527720D01*
X+5857537Y-3489550D01*
X+5861827Y-3475383D01*
X+5886809Y-3450401D01*
X+5886809Y-3410528D01*
X+7199703Y-3410528D01*
X+7232989Y-3402769D01*
X+7313523Y-3378385D01*
X+7386432Y-3339392D01*
X+7449776Y-3287383D01*
X+7457696Y-3277738D01*
X+7501785Y-3224039D01*
X+7507681Y-3213015D01*
X+7540778Y-3151130D01*
X+7565162Y-3070596D01*
X+7572921Y-3037310D01*
X+7572921Y+4359193D01*
X+7570054Y+4368660D01*
X+7561130Y+4429096D01*
X+7546527Y+4487474D01*
X+7544417Y+4493371D01*
X+7526500Y+4543435D01*
X+7501312Y+4596638D01*
X+7471239Y+4646753D01*
X+7436586Y+4693436D01*
X+7397625Y+4736408D01*
X+7388803Y+4744406D01*
X+7354653Y+4775369D01*
X+7307961Y+4810028D01*
X+7257860Y+4840092D01*
X+7204652Y+4865283D01*
X+7148691Y+4885310D01*
X+7142612Y+4886831D01*
X+7090313Y+4899913D01*
X+7029877Y+4908837D01*
X+7020410Y+4911704D01*
X+1506494Y+4911704D01*
X+1461700Y+4902825D01*
X+1370531Y+4875222D01*
X+1359454Y+4869298D01*
X+1288046Y+4831107D01*
X+1216413Y+4772292D01*
X+1208493Y+4762647D01*
X+1157598Y+4700659D01*
X+1113483Y+4618175D01*
X+1085880Y+4527003D01*
X+1077001Y+4482211D01*
X+1077001Y+4213199D01*
X+1051601Y+4213199D01*
X+1051601Y+3806801D01*
X+2626399Y+3806801D01*
X+2626399Y+4213199D01*
X+2070882Y+4213199D01*
X+2071915Y+4231842D01*
X+2080695Y+4260844D01*
X+2095248Y+4288054D01*
X+2114499Y+4311501D01*
X+2137946Y+4330752D01*
X+2165156Y+4345305D01*
X+2194158Y+4354085D01*
X+2272084Y+4358401D01*
X+3979916Y+4358401D01*
X+4054585Y+4356507D01*
X+4069882Y+4349646D01*
X+4127595Y+4342328D01*
X+4156213Y+4332086D01*
X+4185734Y+4318110D01*
X+4213431Y+4301489D01*
X+4239190Y+4282368D01*
X+4262885Y+4260885D01*
X+4284368Y+4237190D01*
X+4294753Y+4223199D01*
X+3547601Y+4223199D01*
X+3547601Y+3816801D01*
X+5630399Y+3816801D01*
X+5630399Y+4223199D01*
X+4525215Y+4223199D01*
X+4522023Y+4232118D01*
X+4499489Y+4279712D01*
X+4472591Y+4324535D01*
X+4453951Y+4349646D01*
X+5678409Y+4349646D01*
X+5776579Y+4346722D01*
X+5828981Y+4338984D01*
X+5879922Y+4326242D01*
X+5928451Y+4308874D01*
X+5974389Y+4287125D01*
X+6017530Y+4261237D01*
X+6057678Y+4231436D01*
X+6094596Y+4197965D01*
X+6128067Y+4161047D01*
X+6157868Y+4120899D01*
X+6183756Y+4077758D01*
X+6205505Y+4031820D01*
X+6222873Y+3983291D01*
X+6235615Y+3932350D01*
X+6243353Y+3879948D01*
X+6246277Y+3781778D01*
X+6246277Y+3492273D01*
X+6244106Y+3494917D01*
X+6204150Y+3527723D01*
X+6158181Y+3552309D01*
X+6107510Y+3567649D01*
X+6095751Y+3572410D01*
X+5074175Y+3572410D01*
X+5061475Y+3585110D01*
X+4966787Y+3585110D01*
X+4899832Y+3518155D01*
X+4899832Y+3423467D01*
X+4966787Y+3356512D01*
X+5061475Y+3356512D01*
X+5074175Y+3369212D01*
X+6011583Y+3369212D01*
X+6069941Y+3366717D01*
X+6080075Y+3363649D01*
X+6090674Y+3357981D01*
X+6099732Y+3350543D01*
X+6107170Y+3341485D01*
X+6112838Y+3330886D01*
X+6115906Y+3320752D01*
X+6118401Y+3262394D01*
X+6118401Y+2632084D01*
X+6112355Y+2535836D01*
X+6098296Y+2489400D01*
X+6075478Y+2446735D01*
X+6045235Y+2409901D01*
X+6008401Y+2379658D01*
X+5965736Y+2356840D01*
X+5919300Y+2342781D01*
X+5823052Y+2336735D01*
X+4786052Y+2336735D01*
X+4752665Y+2329870D01*
X+4743052Y+2326960D01*
X+4713622Y+2318049D01*
X+4732851Y+2339259D01*
X+4763028Y+2379914D01*
X+4765593Y+2384188D01*
X+4789212Y+2423546D01*
X+4811144Y+2469873D01*
X+4828587Y+2518612D01*
X+4841312Y+2569487D01*
X+4842043Y+2574436D01*
X+4849088Y+2622146D01*
X+4851599Y+2634195D01*
X+4851599Y+2790153D01*
X+4877000Y+2815554D01*
X+4930353Y+2762201D01*
X+5077647Y+2762201D01*
X+5131000Y+2815554D01*
X+5184353Y+2762201D01*
X+5331647Y+2762201D01*
X+5435799Y+2866353D01*
X+5435799Y+3013647D01*
X+5331647Y+3117799D01*
X+5184353Y+3117799D01*
X+5131000Y+3064446D01*
X+5077647Y+3117799D01*
X+4930353Y+3117799D01*
X+4877000Y+3064446D01*
X+4823647Y+3117799D01*
X+4676353Y+3117799D01*
X+4572201Y+3013647D01*
X+4572201Y+2866353D01*
X+4648401Y+2790153D01*
X+4648401Y+2718363D01*
X+4646472Y+2641008D01*
X+4641756Y+2609066D01*
X+4633899Y+2577654D01*
X+4623203Y+2547768D01*
X+4609829Y+2519519D01*
X+4593927Y+2493019D01*
X+4575629Y+2468369D01*
X+4555076Y+2445699D01*
X+4532404Y+2425144D01*
X+4507761Y+2406851D01*
X+4481254Y+2390946D01*
X+4453006Y+2377572D01*
X+4423121Y+2366876D01*
X+4391709Y+2359019D01*
X+4359767Y+2354303D01*
X+4282412Y+2352374D01*
X+2628460Y+2352374D01*
X+2614477Y+2347398D01*
X+2561748Y+2331432D01*
X+2513932Y+2305859D01*
X+2472373Y+2271738D01*
X+2438249Y+2230177D01*
X+2412678Y+2182364D01*
X+2407784Y+2166199D01*
X+2084640Y+2166199D01*
X+2088085Y+2167242D01*
X+2131274Y+2190340D01*
X+2168828Y+2221172D01*
X+2199660Y+2258724D01*
X+2222759Y+2301917D01*
X+2237164Y+2349501D01*
X+2241599Y+2357916D01*
X+2241599Y+2780153D01*
X+2267000Y+2805554D01*
X+2320353Y+2752201D01*
X+2467647Y+2752201D01*
X+2521000Y+2805554D01*
X+2574353Y+2752201D01*
X+2721647Y+2752201D01*
X+2825799Y+2856353D01*
X+2825799Y+3003647D01*
X+2721647Y+3107799D01*
X+2574353Y+3107799D01*
X+2521000Y+3054446D01*
X+2467647Y+3107799D01*
X+2320353Y+3107799D01*
X+2267000Y+3054446D01*
X+2213647Y+3107799D01*
X+2066353Y+3107799D01*
X+1962201Y+3003647D01*
X+1962201Y+2856353D01*
X+2038401Y+2780153D01*
X+2038401Y+2442084D01*
X+2036205Y+2386977D01*
X+2034099Y+2380020D01*
X+2029915Y+2372197D01*
X+2024454Y+2365546D01*
X+2017805Y+2360087D01*
X+2009978Y+2355901D01*
X+2003023Y+2353795D01*
X+1947916Y+2351599D01*
X+1498916Y+2351599D01*
X+1462488Y+2344438D01*
X+1388998Y+2322187D01*
X+1380137Y+2317449D01*
X+1322512Y+2286631D01*
X+1314776Y+2280280D01*
X+1264774Y+2239226D01*
X+1217369Y+2181488D01*
X+1209192Y+2166199D01*
X+1101599Y+2166199D01*
X+1101599Y+2362084D01*
X+1095880Y+2367803D01*
X+1095249Y+2369889D01*
X+1085154Y+2403230D01*
X+1044348Y+2464347D01*
X+983230Y+2505154D01*
X+950799Y+2514973D01*
X+950799Y+2759353D01*
X+997000Y+2805554D01*
X+1050353Y+2752201D01*
X+1197647Y+2752201D01*
X+1251000Y+2805554D01*
X+1304353Y+2752201D01*
X+1451647Y+2752201D01*
X+1555799Y+2856353D01*
X+1555799Y+3003647D01*
X+1451647Y+3107799D01*
X+1304353Y+3107799D01*
X+1251000Y+3054446D01*
X+1197647Y+3107799D01*
X+1050353Y+3107799D01*
X+997000Y+3054446D01*
X+943647Y+3107799D01*
X+796353Y+3107799D01*
X+692201Y+3003647D01*
X+692201Y+2856353D01*
X+747601Y+2800953D01*
X+747601Y+2428716D01*
X+757329Y+2411307D01*
X+790631Y+2361431D01*
X+840507Y+2328129D01*
X+857916Y+2318401D01*
X+897272Y+2317272D01*
X+898401Y+2277916D01*
X+898401Y+2166199D01*
X+794366Y+2166199D01*
X+778147Y+2196525D01*
X+771795Y+2204262D01*
X+727513Y+2258195D01*
X+665843Y+2308829D01*
X+594827Y+2346809D01*
X+585211Y+2349721D01*
X+516289Y+2370590D01*
X+474402Y+2378281D01*
X-201751Y+2378281D01*
X-260077Y+2380772D01*
X-270175Y+2383829D01*
X-280748Y+2389484D01*
X-289781Y+2396901D01*
X-297198Y+2405934D01*
X-302853Y+2416507D01*
X-305910Y+2426605D01*
X-308401Y+2484931D01*
X-308401Y+2770153D01*
X-283000Y+2795554D01*
X-229647Y+2742201D01*
X-82353Y+2742201D01*
X-29000Y+2795554D01*
X+24353Y+2742201D01*
X+171647Y+2742201D01*
X+275799Y+2846353D01*
X+275799Y+2993647D01*
X+171647Y+3097799D01*
X+24353Y+3097799D01*
X-29000Y+3044446D01*
X-82353Y+3097799D01*
X-229647Y+3097799D01*
X-283000Y+3044446D01*
X-336353Y+3097799D01*
X-483647Y+3097799D01*
X-587799Y+2993647D01*
X-587799Y+2846353D01*
X-511599Y+2770153D01*
X-511599Y+2400763D01*
X-506843Y+2389043D01*
X-491509Y+2338397D01*
X-472657Y+2303149D01*
X-949956Y+2303149D01*
X-962656Y+2315849D01*
X-1057344Y+2315849D01*
X-1124299Y+2248894D01*
X-1124299Y+2166199D01*
X-2352799Y+2166199D01*
X-2352799Y+1759801D01*
X-1285999Y+1759801D01*
X-1285999Y+269299D01*
X-1290320Y+191310D01*
X-1299120Y+162246D01*
X-1313701Y+134982D01*
X-1332991Y+111487D01*
X-1356486Y+92197D01*
X-1383750Y+77616D01*
X-1412814Y+68816D01*
X-1490803Y+64495D01*
X-1533233Y+56751D01*
X-1612273Y+32818D01*
X-1621129Y+28082D01*
X-1683740Y-5403D01*
X-1691476Y-11754D01*
X-1745802Y-56358D01*
X-1752779Y-64856D01*
X-1796757Y-118420D01*
X-1834978Y-189887D01*
X-1837890Y-199503D01*
X-1858911Y-268927D01*
X-1866655Y-311357D01*
X-1866655Y-2134947D01*
X-1869964Y-2202106D01*
X-1875614Y-2220767D01*
X-1885288Y-2238856D01*
X-1898054Y-2254404D01*
X-1913599Y-2267168D01*
X-1931688Y-2276842D01*
X-1950350Y-2282492D01*
X-2017509Y-2285801D01*
X-3852801Y-2285801D01*
X-3852801Y-711001D01*
X-4259199Y-711001D01*
X-4259199Y-3301799D01*
X-3852801Y-3301799D01*
X-3852801Y-2742999D01*
X-1796572Y-2742999D01*
X-1752412Y-2735086D01*
X-1671772Y-2710670D01*
X-1598859Y-2671676D01*
X-1591123Y-2665325D01*
X-1535550Y-2619697D01*
X-1483574Y-2556393D01*
X-1444577Y-2483477D01*
X-1420160Y-2402831D01*
X-1412248Y-2358675D01*
X-1412248Y-572302D01*
X-1406940Y-483834D01*
X-1395114Y-444779D01*
X-1375801Y-408667D01*
X-1350219Y-377509D01*
X-1319061Y-351927D01*
X-1282949Y-332614D01*
X-1243894Y-320788D01*
X-1155426Y-315480D01*
X-1123066Y-308715D01*
X-1113453Y-305805D01*
X-1053332Y-287602D01*
X-1044472Y-282864D01*
X-990231Y-253854D01*
X-982497Y-247505D01*
X-935425Y-208857D01*
X-890425Y-154049D01*
X-883920Y-141886D01*
X-856678Y-90946D01*
X-835566Y-21214D01*
X-828801Y+11145D01*
X-828801Y+1759801D01*
X-523999Y+1759801D01*
X-523999Y+1698378D01*
X-518795Y+1682054D01*
X-502172Y+1627149D01*
X-475559Y+1577388D01*
X-469208Y+1569652D01*
X-440047Y+1534135D01*
X-396794Y+1498623D01*
X-347033Y+1472010D01*
X-292128Y+1455387D01*
X-275804Y+1450183D01*
X+566801Y+1450183D01*
X+566801Y-84463D01*
X+375088Y-84463D01*
X+357679Y-94191D01*
X+307803Y-127493D01*
X+274501Y-177369D01*
X+264773Y-194778D01*
X+263188Y-214610D01*
X+243356Y-216195D01*
X+5293Y-216196D01*
X-214809Y-216195D01*
X-227509Y-203495D01*
X-322197Y-203495D01*
X-389152Y-270450D01*
X-389152Y-365138D01*
X-322197Y-432093D01*
X-227509Y-432093D01*
X-214809Y-419393D01*
X+5293Y-419392D01*
X+327524Y-419393D01*
X+356791Y-407339D01*
X+416231Y-367653D01*
X+455917Y-308213D01*
X+464382Y-287661D01*
X+1169959Y-287661D01*
X+1209896Y-288813D01*
X+1211048Y-328750D01*
X+1211048Y-799367D01*
X+1198348Y-812067D01*
X+1198348Y-906755D01*
X+1265303Y-973710D01*
X+1359991Y-973710D01*
X+1420695Y-913006D01*
X+1420012Y-923969D01*
X+1406365Y-969043D01*
X+1384194Y-1010498D01*
X+1354809Y-1046288D01*
X+1319019Y-1075673D01*
X+1277564Y-1097844D01*
X+1232490Y-1111491D01*
X+1137675Y-1117401D01*
X+973199Y-1117401D01*
X+973199Y-304601D01*
X+566801Y-304601D01*
X+566801Y-2387399D01*
X+973199Y-2387399D01*
X+973199Y-1320599D01*
X+1221843Y-1320599D01*
X+1270694Y-1312229D01*
X+1355679Y-1286498D01*
X+1364537Y-1281761D01*
X+1432494Y-1245416D01*
X+1499183Y-1190662D01*
X+1553937Y-1123973D01*
X+1595019Y-1047158D01*
X+1597931Y-1037541D01*
X+1620750Y-962173D01*
X+1629120Y-913322D01*
X+1629120Y-415563D01*
X+1632119Y-315828D01*
X+1640082Y-261908D01*
X+1653188Y-209507D01*
X+1671059Y-159571D01*
X+1693429Y-112321D01*
X+1720067Y-67930D01*
X+1750726Y-26628D01*
X+1785164Y+11357D01*
X+1823149Y+45795D01*
X+1864451Y+76454D01*
X+1908842Y+103092D01*
X+1956092Y+125462D01*
X+1966801Y+129295D01*
X+1966801Y-645399D01*
X+2373199Y-645399D01*
X+2373199Y+1437399D01*
X+1966801Y+1437399D01*
X+1966801Y+342978D01*
X+1946990Y+338023D01*
X+1878204Y+313405D01*
X+1812854Y+282465D01*
X+1751346Y+245555D01*
X+1747343Y+242584D01*
X+1725481Y+226355D01*
X+1694047Y+203022D01*
X+1690358Y+199678D01*
X+1641310Y+155211D01*
X+1593499Y+102474D01*
X+1590533Y+98479D01*
X+1570166Y+71040D01*
X+1550966Y+45175D01*
X+1548399Y+40898D01*
X+1514056Y-16333D01*
X+1483116Y-81683D01*
X+1458498Y-150469D01*
X+1440528Y-222323D01*
X+1439797Y-227271D01*
X+1429528Y-296808D01*
X+1425922Y-331395D01*
X+1425922Y-811043D01*
X+1414246Y-799367D01*
X+1414246Y-244582D01*
X+1408564Y-238900D01*
X+1407884Y-236653D01*
X+1399213Y-208017D01*
X+1380611Y-173233D01*
X+1355753Y-142956D01*
X+1325480Y-118102D01*
X+1290690Y-99494D01*
X+1259809Y-90145D01*
X+1254127Y-84463D01*
X+973199Y-84463D01*
X+973199Y+1450183D01*
X+4313676Y+1450183D01*
X+4326376Y+1437483D01*
X+4421064Y+1437483D01*
X+4488019Y+1504438D01*
X+4488019Y+1599126D01*
X+4421064Y+1666081D01*
X+4326376Y+1666081D01*
X+4313676Y+1653381D01*
X+2594933Y+1653381D01*
X+2594933Y+2031481D01*
X+2597627Y+2092013D01*
X+2601332Y+2104249D01*
X+2607992Y+2116702D01*
X+2616745Y+2127362D01*
X+2625601Y+2134633D01*
X+2625601Y+1759801D01*
X+4708399Y+1759801D01*
X+4708399Y+2085556D01*
X+4731498Y+2104521D01*
X+4760092Y+2119813D01*
X+4790657Y+2129068D01*
X+4870220Y+2133537D01*
X+4894980Y+2133537D01*
X+4858454Y+2089050D01*
X+4823121Y+2022985D01*
X+4801015Y+1949970D01*
X+4793904Y+1914053D01*
X+4793904Y+1829885D01*
X+4793905Y+1633116D01*
X+4793904Y+1436347D01*
X+4790479Y+1367941D01*
X+4784465Y+1348080D01*
X+4774223Y+1328929D01*
X+4760710Y+1312471D01*
X+4744244Y+1298951D01*
X+4725097Y+1288712D01*
X+4705236Y+1282698D01*
X+4636830Y+1279273D01*
X+4571594Y+1279273D01*
X+4558894Y+1291973D01*
X+4464206Y+1291973D01*
X+4397251Y+1225018D01*
X+4397251Y+1130330D01*
X+4464206Y+1063375D01*
X+4558894Y+1063375D01*
X+4571594Y+1076075D01*
X+4720998Y+1076075D01*
X+4743028Y+1081835D01*
X+4752638Y+1084744D01*
X+4803206Y+1100053D01*
X+4820060Y+1109067D01*
X+4857723Y+1129209D01*
X+4905081Y+1168094D01*
X+4943970Y+1215458D01*
X+4973120Y+1269965D01*
X+4976032Y+1279581D01*
X+4991341Y+1330143D01*
X+4997102Y+1352179D01*
X+4997102Y+1436347D01*
X+4997101Y+1633116D01*
X+4997102Y+1829885D01*
X+5001805Y+1911934D01*
X+5011781Y+1944883D01*
X+5028194Y+1975571D01*
X+5049927Y+2002041D01*
X+5076395Y+2023773D01*
X+5107090Y+2040189D01*
X+5140034Y+2050163D01*
X+5173603Y+2052088D01*
X+5152901Y+2031386D01*
X+5152901Y+1894614D01*
X+5211515Y+1836000D01*
X+5152901Y+1777386D01*
X+5152901Y+1640614D01*
X+5211515Y+1582000D01*
X+5152901Y+1523386D01*
X+5152901Y+1386614D01*
X+5211515Y+1328000D01*
X+5152901Y+1269386D01*
X+5152901Y+1132614D01*
X+5211515Y+1074000D01*
X+5152901Y+1015386D01*
X+5152901Y+878614D01*
X+5211515Y+820000D01*
X+5152901Y+761386D01*
X+5152901Y+624614D01*
X+5211515Y+566000D01*
X+5152901Y+507386D01*
X+5152901Y+370614D01*
X+5211515Y+312000D01*
X+5152901Y+253386D01*
X+5152901Y+116614D01*
X+5211515Y+58000D01*
X+5152901Y-614D01*
X+5152901Y-137386D01*
X+5211515Y-196000D01*
X+5186114Y-221401D01*
X+4266043Y-221401D01*
X+4244812Y-227083D01*
X+4235199Y-229993D01*
X+4185361Y-245082D01*
X+4131521Y-273879D01*
X+4123787Y-280228D01*
X+4084733Y-312292D01*
X+4046320Y-359077D01*
X+4017520Y-412928D01*
X+3999524Y-472368D01*
X+3993842Y-493602D01*
X+3990086Y-565562D01*
X+3983036Y-588844D01*
X+3971182Y-611009D01*
X+3955522Y-630081D01*
X+3936450Y-645741D01*
X+3914285Y-657595D01*
X+3891003Y-664645D01*
X+3819043Y-668401D01*
X+2960191Y-668401D01*
X+2947491Y-655701D01*
X+2852803Y-655701D01*
X+2785848Y-722656D01*
X+2785848Y-817344D01*
X+2852803Y-884299D01*
X+2947491Y-884299D01*
X+2960191Y-871599D01*
X+3903211Y-871599D01*
X+3928868Y-865487D01*
X+3992400Y-846250D01*
X+4001256Y-841514D01*
X+4049922Y-815487D01*
X+4099896Y-774455D01*
X+4140928Y-724481D01*
X+4171691Y-666959D01*
X+4174603Y-657343D01*
X+4190928Y-603427D01*
X+4197040Y-577770D01*
X+4200392Y-510148D01*
X+4206178Y-491037D01*
X+4216062Y-472555D01*
X+4229108Y-456666D01*
X+4244994Y-443623D01*
X+4263484Y-433734D01*
X+4282584Y-427951D01*
X+4350211Y-424599D01*
X+5186114Y-424599D01*
X+5211515Y-450000D01*
X+5152901Y-508614D01*
X+5152901Y-645386D01*
X+5211515Y-704000D01*
X+5152901Y-762614D01*
X+5152901Y-899386D01*
X+5211515Y-958000D01*
X+5152901Y-1016614D01*
X+5152901Y-1153386D01*
X+5211515Y-1212000D01*
X+5152901Y-1270614D01*
X+5152901Y-1407386D01*
X+5211515Y-1466000D01*
X+5152901Y-1524614D01*
X+5152901Y-1661386D01*
X+5211515Y-1720000D01*
X+5152901Y-1778614D01*
X+5152901Y-1787583D01*
X+5123889Y-1803100D01*
X+5116158Y-1809447D01*
X+5072528Y-1845269D01*
X+5030359Y-1896630D01*
X+4998735Y-1955759D01*
X+4978960Y-2021077D01*
X+4972660Y-2048657D01*
X+4972660Y-2577557D01*
X+4982388Y-2594966D01*
X+5015690Y-2644842D01*
X+5038094Y-2659801D01*
X+3159001Y-2659801D01*
X+3159001Y-3066199D01*
X+5241799Y-3066199D01*
X+5241799Y-2752453D01*
X+5251347Y-2770306D01*
X+5258673Y-2794501D01*
X+5261894Y-2855560D01*
X+5249819Y-2867635D01*
X+5249819Y-2962323D01*
X+5316774Y-3029278D01*
X+5411462Y-3029278D01*
X+5478417Y-2962323D01*
X+5478417Y-2867635D01*
X+5465717Y-2854935D01*
X+5465717Y-2783248D01*
X+5459510Y-2756622D01*
X+5440003Y-2692194D01*
X+5435265Y-2683334D01*
X+5408806Y-2633862D01*
X+5367202Y-2583189D01*
X+5316529Y-2541585D01*
X+5276355Y-2520099D01*
X+5386386Y-2520099D01*
X+5445000Y-2461485D01*
X+5503614Y-2520099D01*
X+5640386Y-2520099D01*
X+5670911Y-2489574D01*
X+5670911Y-2675641D01*
X+5658211Y-2688341D01*
X+5658211Y-2783029D01*
X+5725166Y-2849984D01*
X+5800402Y-2849984D01*
X+5800402Y-3054150D01*
X+5787702Y-3066850D01*
X+5787702Y-3156530D01*
X-131433Y-3156530D01*
X-136409Y-3156214D01*
X-136725Y-3151238D01*
X-136725Y-3066199D01*
X+644399Y-3066199D01*
X+644399Y-2659801D01*
X-1438399Y-2659801D01*
X-1438399Y-3066199D01*
X-390723Y-3066199D01*
X-390723Y-3256448D01*
X-377312Y-3284581D01*
X-332257Y-3352062D01*
X-264776Y-3397117D01*
X-236643Y-3410528D01*
X+5658211Y-3410528D01*
X+5658211Y-3420353D01*
X+5609900Y-3421984D01*
X-356766Y-3421984D01*
X-368640Y-3382767D01*
X-389872Y-3343065D01*
X-418222Y-3308536D01*
X-452751Y-3280186D01*
X-492447Y-3258957D01*
X-536165Y-3245720D01*
X-540385Y-3241694D01*
X-910896Y-3241694D01*
X-923596Y-3228994D01*
X-1018284Y-3228994D01*
X-1085239Y-3295949D01*
X-1085239Y-3390637D01*
X-1018284Y-3457592D01*
X-923596Y-3457592D01*
X-910896Y-3444892D01*
X-624553Y-3444892D01*
X-573518Y-3446715D01*
X-570568Y-3447609D01*
X-566224Y-3449932D01*
X-562596Y-3452910D01*
X-559618Y-3456538D01*
X-557298Y-3460876D01*
X-556402Y-3463835D01*
X-554578Y-3514867D01*
X-544850Y-3532276D01*
X-511548Y-3582152D01*
X-464389Y-3613640D01*
X-5083640Y-3613640D01*
X-5083640Y+5513640D01*
X+7743640Y+5513640D01*
X+7743640Y-3613640D01*
G37*
%LPC*%
G36*
X+2930399Y-3066199D02*
X+847601Y-3066199D01*
X+847601Y-2659801D01*
X+2930399Y-2659801D01*
X+2930399Y-3066199D01*
G37*
G36*
X+2373199Y-1153399D02*
X+2373199Y-2390491D01*
X+3712218Y-2390491D01*
X+3801356Y-2385871D01*
X+3829688Y-2377293D01*
X+3856702Y-2362845D01*
X+3879953Y-2343755D01*
X+3899040Y-2320509D01*
X+3913490Y-2293490D01*
X+3922067Y-2265160D01*
X+3926687Y-2176022D01*
X+3926687Y-1801975D01*
X+3819401Y-1694689D01*
X+3819401Y-1505311D01*
X+3953311Y-1371401D01*
X+4142689Y-1371401D01*
X+4276599Y-1505311D01*
X+4276599Y-1694689D01*
X+4180685Y-1790603D01*
X+4180685Y-2281232D01*
X+4173124Y-2312482D01*
X+4149313Y-2391127D01*
X+4143390Y-2402203D01*
X+4111223Y-2462350D01*
X+4060419Y-2524225D01*
X+3998548Y-2575025D01*
X+3927323Y-2613117D01*
X+3848678Y-2636928D01*
X+3817428Y-2644489D01*
X+126336Y-2644489D01*
X+93026Y-2636727D01*
X+81015Y-2633091D01*
X+12471Y-2612337D01*
X+1399Y-2606416D01*
X-60464Y-2573331D01*
X-123819Y-2521313D01*
X-131741Y-2511665D01*
X-175842Y-2457952D01*
X-214848Y-2385017D01*
X-239237Y-2304465D01*
X-246999Y-2271154D01*
X-246999Y-1912605D01*
X-250893Y-1831252D01*
X-257197Y-1810433D01*
X-268112Y-1790023D01*
X-282500Y-1772500D01*
X-300023Y-1758112D01*
X-320433Y-1747197D01*
X-332312Y-1743600D01*
X-427311Y-1838599D01*
X-616689Y-1838599D01*
X-750599Y-1704689D01*
X-750599Y-1515311D01*
X-616689Y-1381401D01*
X-427311Y-1381401D01*
X-325711Y-1483001D01*
X-317395Y-1483001D01*
X-294093Y-1489788D01*
X-277828Y-1494713D01*
X-222790Y-1511377D01*
X-158178Y-1545933D01*
X-102032Y-1592032D01*
X-55933Y-1648178D01*
X-21377Y-1712790D01*
X+212Y-1784093D01*
X+6999Y-1807395D01*
X+6999Y-2165944D01*
X+11807Y-2257106D01*
X+20974Y-2287378D01*
X+36341Y-2316113D01*
X+56644Y-2340841D01*
X+81380Y-2361151D01*
X+110112Y-2376517D01*
X+140383Y-2385682D01*
X+231546Y-2390491D01*
X+1966801Y-2390491D01*
X+1966801Y-848601D01*
X+2373199Y-848601D01*
X+2373199Y-1153399D01*
G37*
G36*
X-3852801Y+1168601D02*
X-3852801Y-609399D01*
X-4259199Y-609399D01*
X-4259199Y+1473399D01*
X-3852801Y+1473399D01*
X-3852801Y+1168601D01*
G37*
G36*
X+4135799Y+3013647D02*
X+4135799Y+2866353D01*
X+4031647Y+2762201D01*
X+3884353Y+2762201D01*
X+3831000Y+2815554D01*
X+3777647Y+2762201D01*
X+3630353Y+2762201D01*
X+3577000Y+2815554D01*
X+3523647Y+2762201D01*
X+3376353Y+2762201D01*
X+3272201Y+2866353D01*
X+3272201Y+3013647D01*
X+3376353Y+3117799D01*
X+3523647Y+3117799D01*
X+3577000Y+3064446D01*
X+3630353Y+3117799D01*
X+3777647Y+3117799D01*
X+3831000Y+3064446D01*
X+3884353Y+3117799D01*
X+4031647Y+3117799D01*
X+4135799Y+3013647D01*
G37*
G36*
X-994201Y+3003647D02*
X-994201Y+2856353D01*
X-1098353Y+2752201D01*
X-1245647Y+2752201D01*
X-1299000Y+2805554D01*
X-1352353Y+2752201D01*
X-1499647Y+2752201D01*
X-1553000Y+2805554D01*
X-1606353Y+2752201D01*
X-1753647Y+2752201D01*
X-1857799Y+2856353D01*
X-1857799Y+3003647D01*
X-1753647Y+3107799D01*
X-1606353Y+3107799D01*
X-1553000Y+3054446D01*
X-1499647Y+3107799D01*
X-1352353Y+3107799D01*
X-1299000Y+3054446D01*
X-1245647Y+3107799D01*
X-1098353Y+3107799D01*
X-994201Y+3003647D01*
G37*
G36*
X-2254201Y+3003647D02*
X-2254201Y+2856353D01*
X-2358353Y+2752201D01*
X-2505647Y+2752201D01*
X-2559000Y+2805554D01*
X-2612353Y+2752201D01*
X-2759647Y+2752201D01*
X-2813000Y+2805554D01*
X-2866353Y+2752201D01*
X-3013647Y+2752201D01*
X-3117799Y+2856353D01*
X-3117799Y+3003647D01*
X-3013647Y+3107799D01*
X-2866353Y+3107799D01*
X-2813000Y+3054446D01*
X-2759647Y+3107799D01*
X-2612353Y+3107799D01*
X-2559000Y+3054446D01*
X-2505647Y+3107799D01*
X-2358353Y+3107799D01*
X-2254201Y+3003647D01*
G37*
G36*
X-3572201Y+2993647D02*
X-3572201Y+2846353D01*
X-3676353Y+2742201D01*
X-3823647Y+2742201D01*
X-3877000Y+2795554D01*
X-3930353Y+2742201D01*
X-4077647Y+2742201D01*
X-4131000Y+2795554D01*
X-4184353Y+2742201D01*
X-4331647Y+2742201D01*
X-4435799Y+2846353D01*
X-4435799Y+2993647D01*
X-4331647Y+3097799D01*
X-4184353Y+3097799D01*
X-4131000Y+3044446D01*
X-4077647Y+3097799D01*
X-3930353Y+3097799D01*
X-3877000Y+3044446D01*
X-3823647Y+3097799D01*
X-3676353Y+3097799D01*
X-3572201Y+2993647D01*
G37*
G36*
X-1258599Y-1704689D02*
X-1258599Y-1515311D01*
X-1124689Y-1381401D01*
X-935311Y-1381401D01*
X-801401Y-1515311D01*
X-801401Y-1704689D01*
X-935311Y-1838599D01*
X-1124689Y-1838599D01*
X-1258599Y-1704689D01*
G37*
G36*
X-588599Y+3965311D02*
X-588599Y+4154689D01*
X-454689Y+4288599D01*
X-265311Y+4288599D01*
X-131401Y+4154689D01*
X-131401Y+3965311D01*
X-265311Y+3831401D01*
X-454689Y+3831401D01*
X-588599Y+3965311D01*
G37*
G36*
X-80599Y+3965311D02*
X-80599Y+4154689D01*
X+53311Y+4288599D01*
X+242689Y+4288599D01*
X+376599Y+4154689D01*
X+376599Y+3965311D01*
X+242689Y+3831401D01*
X+53311Y+3831401D01*
X-80599Y+3965311D01*
G37*
G36*
X-2958599Y-1724689D02*
X-2958599Y-1535311D01*
X-2824689Y-1401401D01*
X-2635311Y-1401401D01*
X-2501401Y-1535311D01*
X-2501401Y-1724689D01*
X-2635311Y-1858599D01*
X-2824689Y-1858599D01*
X-2958599Y-1724689D01*
G37*
G36*
X-2450599Y-1724689D02*
X-2450599Y-1535311D01*
X-2316689Y-1401401D01*
X-2127311Y-1401401D01*
X-1993401Y-1535311D01*
X-1993401Y-1724689D01*
X-2127311Y-1858599D01*
X-2316689Y-1858599D01*
X-2450599Y-1724689D01*
G37*
G36*
X+3311401Y-1694689D02*
X+3311401Y-1505311D01*
X+3445311Y-1371401D01*
X+3634689Y-1371401D01*
X+3768599Y-1505311D01*
X+3768599Y-1694689D01*
X+3634689Y-1828599D01*
X+3445311Y-1828599D01*
X+3311401Y-1694689D01*
G37*
G36*
X-3498643Y+5381899D02*
X-3440528Y+5364305D01*
X-3387761Y+5336084D01*
X-3341884Y+5298417D01*
X-3325894Y+5278941D01*
X-3304218Y+5252541D01*
X-3276000Y+5199778D01*
X-3258699Y+5142636D01*
X-3258699Y+5288699D01*
X-2881301Y+5288699D01*
X-2881301Y+4911301D01*
X-3195030Y+4911301D01*
X-3174141Y+4885859D01*
X-3132075Y+4851321D01*
X-3112487Y+4839567D01*
X-3088735Y+4828321D01*
X-3063569Y+4819315D01*
X-3037046Y+4812681D01*
X-3010530Y+4808765D01*
X-2927395Y+4806999D01*
X-2586486Y+4806999D01*
X-2548386Y+4845099D01*
X-2411614Y+4845099D01*
X-2373514Y+4806999D01*
X-1196486Y+4806999D01*
X-1158386Y+4845099D01*
X-1050138Y+4845099D01*
X-1018964Y+4857944D01*
X-978546Y+4802031D01*
X-924901Y+4748386D01*
X-924901Y+4727820D01*
X-892189Y+4682567D01*
X-924901Y+4649855D01*
X-924901Y+4611614D01*
X-1021614Y+4514901D01*
X-1158386Y+4514901D01*
X-1196486Y+4553001D01*
X-2373514Y+4553001D01*
X-2411614Y+4514901D01*
X-2548386Y+4514901D01*
X-2586486Y+4553001D01*
X-3032605Y+4553001D01*
X-3035272Y+4555668D01*
X-3040124Y+4556384D01*
X-3086525Y+4563236D01*
X-3137361Y+4575951D01*
X-3186107Y+4593396D01*
X-3232457Y+4615341D01*
X-3237819Y+4618558D01*
X-3278804Y+4643151D01*
X-3354609Y+4705391D01*
X-3416849Y+4781196D01*
X-3444659Y+4827543D01*
X-3450114Y+4839063D01*
X-3466604Y+4873893D01*
X-3484049Y+4922639D01*
X-3496764Y+4973475D01*
X-3504332Y+5024728D01*
X-3506999Y+5027395D01*
X-3509612Y+5094847D01*
X-3511820Y+5102137D01*
X-3516397Y+5110696D01*
X-3522353Y+5117950D01*
X-3529608Y+5123907D01*
X-3538160Y+5128480D01*
X-3545457Y+5130690D01*
X-3612907Y+5133303D01*
X-3674179Y+5133303D01*
X-3742207Y+5130637D01*
X-3750072Y+5128255D01*
X-3759121Y+5123416D01*
X-3766805Y+5117107D01*
X-3773114Y+5109423D01*
X-3777953Y+5100374D01*
X-3780335Y+5092509D01*
X-3783001Y+5024481D01*
X-3783001Y+4856199D01*
X-3591301Y+4856199D01*
X-3591301Y+4503801D01*
X-4293001Y+4503801D01*
X-4293001Y+4054447D01*
X-4232201Y+3993647D01*
X-4232201Y+3846353D01*
X-4285554Y+3793000D01*
X-4232201Y+3739647D01*
X-4232201Y+3592353D01*
X-4336353Y+3488201D01*
X-4483647Y+3488201D01*
X-4587799Y+3592353D01*
X-4587799Y+3739647D01*
X-4534446Y+3793000D01*
X-4550163Y+3808717D01*
X-4624613Y+3808717D01*
X-4641972Y+3807430D01*
X-4643259Y+3790071D01*
X-4643259Y+1969347D01*
X-4639169Y+1885891D01*
X-4632248Y+1863032D01*
X-4620378Y+1840838D01*
X-4604723Y+1821771D01*
X-4585646Y+1806108D01*
X-4563451Y+1794238D01*
X-4540596Y+1787318D01*
X-4457140Y+1783228D01*
X-3965459Y+1783227D01*
X-3368569Y+1783228D01*
X-3342980Y+1776218D01*
X-3269570Y+1753992D01*
X-3203053Y+1718417D01*
X-3193387Y+1710481D01*
X-3145262Y+1670968D01*
X-3097810Y+1613172D01*
X-3062239Y+1546662D01*
X-3040011Y+1473244D01*
X-3033001Y+1447660D01*
X-3033001Y+237395D01*
X-3107395Y+163001D01*
X-3212605Y+163001D01*
X-3286999Y+237395D01*
X-3286999Y+1342450D01*
X-3291102Y+1426042D01*
X-3298058Y+1449018D01*
X-3309992Y+1471333D01*
X-3325728Y+1490498D01*
X-3344899Y+1506238D01*
X-3367205Y+1518168D01*
X-3390191Y+1525128D01*
X-3473779Y+1529230D01*
X-3965459Y+1529231D01*
X-4562350Y+1529230D01*
X-4587802Y+1536227D01*
X-4661089Y+1558415D01*
X-4727491Y+1593929D01*
X-4785182Y+1641294D01*
X-4832559Y+1698997D01*
X-4868074Y+1765404D01*
X-4890260Y+1838683D01*
X-4897257Y+1864137D01*
X-4897257Y+3895281D01*
X-4882816Y+3928669D01*
X-4834931Y+4000389D01*
X-4763211Y+4048274D01*
X-4729823Y+4062715D01*
X-4546999Y+4062715D01*
X-4546999Y+4503801D01*
X-4568699Y+4503801D01*
X-4568699Y+4856199D01*
X-4036999Y+4856199D01*
X-4036999Y+5129691D01*
X-4031539Y+5139342D01*
X-4027904Y+5151349D01*
X-4013777Y+5198009D01*
X-3985292Y+5251270D01*
X-3947273Y+5297575D01*
X-3900968Y+5335594D01*
X-3847707Y+5364079D01*
X-3789040Y+5381841D01*
X-3779389Y+5387301D01*
X-3507697Y+5387301D01*
X-3498643Y+5381899D01*
G37*
G36*
X-278699Y+5021838D02*
X-278699Y+5178162D01*
X-168162Y+5288699D01*
X-11838Y+5288699D01*
X+98699Y+5178162D01*
X+98699Y+5021838D01*
X-11838Y+4911301D01*
X-168162Y+4911301D01*
X-278699Y+5021838D01*
G37*
G36*
X-2645710Y+3796998D02*
X-2580487Y+3796998D01*
X-2548386Y+3829099D01*
X-2411614Y+3829099D01*
X-2359514Y+3776999D01*
X-2154447Y+3776999D01*
X-2103647Y+3827799D01*
X-1956353Y+3827799D01*
X-1903000Y+3774446D01*
X-1849647Y+3827799D01*
X-1702353Y+3827799D01*
X-1598201Y+3723647D01*
X-1598201Y+3576353D01*
X-1702353Y+3472201D01*
X-1849647Y+3472201D01*
X-1903000Y+3525554D01*
X-1956353Y+3472201D01*
X-2103647Y+3472201D01*
X-2154447Y+3523001D01*
X-2387514Y+3523001D01*
X-2411614Y+3498901D01*
X-2548386Y+3498901D01*
X-2592487Y+3543002D01*
X-2645710Y+3543002D01*
X-2747311Y+3441401D01*
X-2936689Y+3441401D01*
X-3070599Y+3575311D01*
X-3070599Y+3764689D01*
X-2936689Y+3898599D01*
X-2747311Y+3898599D01*
X-2645710Y+3796998D01*
G37*
G36*
X-1158386Y+3829099D02*
X-1021614Y+3829099D01*
X-924901Y+3732386D01*
X-924901Y+3595614D01*
X-1021614Y+3498901D01*
X-1158386Y+3498901D01*
X-1255099Y+3595614D01*
X-1255099Y+3732386D01*
X-1158386Y+3829099D01*
G37*
G36*
X-3578599Y+3575311D02*
X-3578599Y+3764689D01*
X-3444689Y+3898599D01*
X-3255311Y+3898599D01*
X-3121401Y+3764689D01*
X-3121401Y+3575311D01*
X-3255311Y+3441401D01*
X-3444689Y+3441401D01*
X-3578599Y+3575311D01*
G37*
G36*
X-1599783Y+1132117D02*
X-1599783Y+1168941D01*
X-1573745Y+1194979D01*
X-1536921Y+1194979D01*
X-1510883Y+1168941D01*
X-1510883Y+1132117D01*
X-1536921Y+1106079D01*
X-1573745Y+1106079D01*
X-1599783Y+1132117D01*
G37*
%LPD*%
G36*
X+7006366Y+4655558D02*
X+7040818Y+4650471D01*
X+7074901Y+4641945D01*
X+7107287Y+4630355D01*
X+7137875Y+4615873D01*
X+7166580Y+4598648D01*
X+7193269Y+4578837D01*
X+7217807Y+4556590D01*
X+7240054Y+4532052D01*
X+7259870Y+4505357D01*
X+7277088Y+4476665D01*
X+7291572Y+4446071D01*
X+7303162Y+4413684D01*
X+7311688Y+4379601D01*
X+7316775Y+4345149D01*
X+7318923Y+4253983D01*
X+7318923Y-2932100D01*
X+7314116Y-3023240D01*
X+7304959Y-3053485D01*
X+7289599Y-3082205D01*
X+7269309Y-3106916D01*
X+7244598Y-3127206D01*
X+7215878Y-3142566D01*
X+7185633Y-3151723D01*
X+7094493Y-3156530D01*
X+6016300Y-3156530D01*
X+6016300Y-3066850D01*
X+6003600Y-3054150D01*
X+6003600Y-2496905D01*
X+6016300Y-2484205D01*
X+6016300Y-2389517D01*
X+5949345Y-2322562D01*
X+5874109Y-2322562D01*
X+5874109Y-1916659D01*
X+5869099Y-1911649D01*
X+5858215Y-1875706D01*
X+5838600Y-1839029D01*
X+5812397Y-1807114D01*
X+5780477Y-1780908D01*
X+5743804Y-1761295D01*
X+5709345Y-1750860D01*
X+5678485Y-1720000D01*
X+5737099Y-1661386D01*
X+5737099Y-1524614D01*
X+5678485Y-1466000D01*
X+5737099Y-1407386D01*
X+5737099Y-1270614D01*
X+5678485Y-1212000D01*
X+5737099Y-1153386D01*
X+5737099Y-1016614D01*
X+5678485Y-958000D01*
X+5737099Y-899386D01*
X+5737099Y-762614D01*
X+5678485Y-704000D01*
X+5737099Y-645386D01*
X+5737099Y-508614D01*
X+5678485Y-450000D01*
X+5737099Y-391386D01*
X+5737099Y-254614D01*
X+5678485Y-196000D01*
X+5703886Y-170599D01*
X+5776916Y-170599D01*
X+5846203Y-174106D01*
X+5866921Y-180379D01*
X+5886818Y-191020D01*
X+5903931Y-205071D01*
X+5917980Y-222181D01*
X+5928621Y-242078D01*
X+5934894Y-262796D01*
X+5938401Y-332084D01*
X+5938401Y-2106443D01*
X+5944314Y-2130058D01*
X+5962978Y-2191695D01*
X+5967716Y-2200555D01*
X+5992836Y-2247524D01*
X+5999183Y-2255255D01*
X+6032654Y-2296022D01*
X+6081158Y-2335846D01*
X+6136985Y-2365702D01*
X+6152397Y-2370369D01*
X+6198621Y-2384365D01*
X+6222236Y-2390278D01*
X+6792801Y-2390278D01*
X+6792801Y-2423399D01*
X+7199199Y-2423399D01*
X+7199199Y-340601D01*
X+6792801Y-340601D01*
X+6792801Y-1421819D01*
X+6763251Y-1420251D01*
X+6738501Y-1412757D01*
X+6715049Y-1400215D01*
X+6694858Y-1383637D01*
X+6678280Y-1363445D01*
X+6665734Y-1339988D01*
X+6658243Y-1315246D01*
X+6654344Y-1241760D01*
X+6654344Y+330621D01*
X+6651939Y+340482D01*
X+6651211Y+345414D01*
X+6644476Y+391024D01*
X+6640147Y+408329D01*
X+6632260Y+439865D01*
X+6615509Y+486668D01*
X+6594451Y+531146D01*
X+6568026Y+575182D01*
X+6563281Y+580962D01*
X+6508017Y+648272D01*
X+6494526Y+659348D01*
X+6434927Y+708281D01*
X+6390890Y+734708D01*
X+6346411Y+755765D01*
X+6299610Y+772515D01*
X+6268074Y+780402D01*
X+6250769Y+784731D01*
X+6200227Y+792194D01*
X+6190366Y+794599D01*
X+5703886Y+794599D01*
X+5678485Y+820000D01*
X+5737099Y+878614D01*
X+5737099Y+1015386D01*
X+5678485Y+1074000D01*
X+5737099Y+1132614D01*
X+5737099Y+1269386D01*
X+5678485Y+1328000D01*
X+5737099Y+1386614D01*
X+5737099Y+1523386D01*
X+5678485Y+1582000D01*
X+5737099Y+1640614D01*
X+5737099Y+1777386D01*
X+5678485Y+1836000D01*
X+5737099Y+1894614D01*
X+5737099Y+2031386D01*
X+5713618Y+2054867D01*
X+5715635Y+2054867D01*
X+5808654Y+2049127D01*
X+5852025Y+2035996D01*
X+5891970Y+2014632D01*
X+5926445Y+1986326D01*
X+5954757Y+1951845D01*
X+5976119Y+1911902D01*
X+5989250Y+1868531D01*
X+5994990Y+1775512D01*
X+5999574Y+1765558D01*
X+6014413Y+1716546D01*
X+6038194Y+1672080D01*
X+6069935Y+1633423D01*
X+6108592Y+1601682D01*
X+6153058Y+1577901D01*
X+6202070Y+1563062D01*
X+6212024Y+1558478D01*
X+6792801Y+1558478D01*
X+6792801Y-28999D01*
X+7199199Y-28999D01*
X+7199199Y+2561799D01*
X+6792801Y+2561799D01*
X+6792801Y+1968420D01*
X+6461826Y+1968420D01*
X+6449126Y+1981120D01*
X+6354438Y+1981120D01*
X+6287483Y+1914165D01*
X+6287483Y+1819477D01*
X+6345284Y+1761676D01*
X+6296192Y+1761676D01*
X+6239588Y+1764009D01*
X+6231173Y+1766556D01*
X+6222069Y+1771425D01*
X+6214309Y+1777797D01*
X+6207937Y+1785557D01*
X+6203068Y+1794661D01*
X+6200521Y+1803076D01*
X+6198188Y+1859680D01*
X+6189996Y+1906710D01*
X+6164773Y+1990018D01*
X+6124500Y+2065320D01*
X+6070824Y+2130695D01*
X+6030197Y+2164051D01*
X+6043851Y+2168185D01*
X+6121872Y+2209912D01*
X+6129608Y+2216263D01*
X+6189609Y+2265527D01*
X+6245224Y+2333264D01*
X+6249942Y+2342085D01*
X+6286951Y+2411285D01*
X+6313088Y+2497614D01*
X+6321599Y+2547916D01*
X+6321599Y+2719061D01*
X+6395220Y+2719061D01*
X+6462175Y+2786016D01*
X+6462175Y+2880704D01*
X+6449475Y+2893404D01*
X+6449475Y+3865946D01*
X+6445944Y+3898974D01*
X+6445216Y+3903905D01*
X+6435171Y+3971933D01*
X+6417565Y+4042322D01*
X+6393441Y+4109726D01*
X+6363131Y+4173745D01*
X+6326964Y+4234014D01*
X+6285294Y+4290151D01*
X+6238450Y+4341819D01*
X+6234764Y+4345161D01*
X+6186782Y+4388663D01*
X+6182784Y+4391631D01*
X+6130645Y+4430333D01*
X+6126361Y+4432903D01*
X+6126362Y+4432904D01*
X+6070376Y+4466500D01*
X+6065855Y+4468641D01*
X+6006357Y+4496810D01*
X+6001636Y+4498500D01*
X+5938953Y+4520934D01*
X+5868564Y+4538540D01*
X+5795605Y+4549313D01*
X+5762577Y+4552844D01*
X+4154050Y+4552844D01*
X+4077636Y+4559015D01*
X+4064084Y+4561599D01*
X+2187916Y+4561599D01*
X+2156193Y+4554896D01*
X+2146580Y+4551986D01*
X+2087048Y+4533962D01*
X+2024473Y+4500495D01*
X+1970125Y+4455875D01*
X+1925505Y+4401527D01*
X+1920786Y+4392704D01*
X+1892038Y+4338952D01*
X+1871104Y+4269807D01*
X+1864401Y+4238084D01*
X+1864401Y+4213199D01*
X+1330999Y+4213199D01*
X+1330999Y+4377001D01*
X+1336868Y+4479456D01*
X+1349306Y+4520537D01*
X+1369780Y+4558819D01*
X+1396880Y+4591825D01*
X+1429886Y+4618925D01*
X+1468166Y+4639398D01*
X+1509249Y+4651837D01*
X+1611704Y+4657706D01*
X+6915200Y+4657706D01*
X+7006366Y+4655558D01*
G37*
D11*
X+770000Y-965000D02*
X+770000Y-711000D01*
D10*
X-3841370Y+3666000D02*
X-4410000Y+3666000D01*
X-3740000Y+4290000D02*
X-3921807Y+4290000D01*
X-3953323Y+4293067D01*
X-3982468Y+4301891D01*
X-4008678Y+4315909D01*
X-4031388Y+4334555D01*
X-4050034Y+4357265D01*
X-4064052Y+4383475D01*
X-4072876Y+4412620D01*
X-4075943Y+4444136D01*
X-4075943Y+4675943D01*
X-4080000Y+4680000D01*
X-3740000Y+4680000D02*
X-3740000Y+4290000D01*
X-3740000Y+3767370D01*
X-3742017Y+3746643D01*
X-3747820Y+3727475D01*
X-3757039Y+3710238D01*
X-3769302Y+3695302D01*
X-3784238Y+3683039D01*
X-3801475Y+3673820D01*
X-3820643Y+3668017D01*
X-3841370Y+3666000D01*
X-2521361Y+3290000D02*
X-2485700Y+3283009D01*
X-2456941Y+3263807D01*
X-2437739Y+3235048D01*
X-2430748Y+3199387D01*
X-2430748Y+3093435D01*
X-2430748Y+3031600D01*
X-2432000Y+2930000D01*
X-3740000Y+3767370D02*
X-3740000Y+3290000D01*
X-3740000Y+2939498D01*
X-3767291Y+2912207D01*
X-3750000Y+2920000D01*
X-2521361Y+3290000D02*
X-1850000Y+3290000D01*
X-1813325Y+3297189D01*
X-1783749Y+3316937D01*
X-1764001Y+3346513D01*
X-1756812Y+3383188D01*
X-1756812Y+3404916D01*
X-1756812Y+3548400D01*
X-1776000Y+3650000D01*
X-1252777Y+3290000D02*
X-1220986Y+3283768D01*
X-1195349Y+3266650D01*
X-1178232Y+3241013D01*
X-1172000Y+3209223D01*
X-1172000Y+2930000D01*
X-1280000Y+3290000D02*
X-1252777Y+3290000D01*
X-1197794Y+3290000D02*
X-1176613Y+3292061D01*
X-1157026Y+3297992D01*
X-1139411Y+3307412D01*
X-1124149Y+3319944D01*
X-1111618Y+3335206D01*
X-1102197Y+3352821D01*
X-1096266Y+3372408D01*
X-1094205Y+3393589D01*
X-1094205Y+3575100D01*
X-1090000Y+3664000D01*
X-1850000Y+3290000D02*
X-1280000Y+3290000D01*
X-1220986Y+3290000D02*
X-1197794Y+3290000D01*
X-12511Y+3290000D01*
X+98000Y+3179489D02*
X+98000Y+2920000D01*
X-1252777Y+3290000D02*
X-1220986Y+3290000D01*
X-12511Y+3290000D02*
X+42473Y+3290000D01*
X+65390Y+3292230D01*
X+86584Y+3298647D01*
X+105643Y+3308840D01*
X+122157Y+3322399D01*
X+135716Y+3338913D01*
X+145909Y+3357972D01*
X+152326Y+3379166D01*
X+154556Y+3402083D01*
X+154556Y+3907600D01*
X+148000Y+4060000D01*
X+10085Y+3287801D02*
X+1258903Y+3287801D01*
X+1283254Y+3285431D01*
X+1305774Y+3278613D01*
X+1326026Y+3267782D01*
X+1343574Y+3253374D01*
X+1357981Y+3235827D01*
X+1368812Y+3215575D01*
X+1375630Y+3193055D01*
X+1378000Y+3168704D01*
X+1378000Y+2930000D01*
D11*
X-12511Y+3290000D02*
X+10085Y+3287801D01*
D10*
X+30981Y+3281474D01*
X+49773Y+3271424D01*
X+66055Y+3258055D01*
X+79424Y+3241773D01*
X+89474Y+3222981D01*
X+95801Y+3202085D01*
X+98000Y+3179489D01*
X+1328678Y+3287801D02*
X+1356098Y+3290469D01*
X+1381455Y+3298147D01*
X+1404258Y+3310343D01*
X+1424017Y+3326565D01*
X+1440240Y+3346324D01*
X+1452436Y+3369128D01*
X+1460114Y+3394485D01*
X+1462782Y+3421905D01*
X+1462782Y+3883000D01*
X+1458000Y+4010000D01*
D11*
X+1283254Y+3287801D02*
X+1328678Y+3287801D01*
D10*
X+2578456Y+3287801D02*
X+2605825Y+3282436D01*
X+2627897Y+3267698D01*
X+2642635Y+3245626D01*
X+2648000Y+3218257D01*
X+2648000Y+2930000D01*
D11*
X+1258903Y+3287801D02*
X+1283254Y+3287801D01*
D10*
X+2520000Y+3287801D02*
X+2578456Y+3287801D01*
X+3841375Y+3287801D02*
X+3865221Y+3285480D01*
X+3887273Y+3278803D01*
X+3907104Y+3268197D01*
X+3924288Y+3254089D01*
X+3938396Y+3236905D01*
X+3949002Y+3217074D01*
X+3955679Y+3195022D01*
X+3958000Y+3171176D01*
X+3958000Y+2940000D01*
X+1328678Y+3287801D02*
X+2520000Y+3287801D01*
X+3841375Y+3287801D02*
X+3867675Y+3290360D01*
X+3891996Y+3297724D01*
X+3913868Y+3309422D01*
X+3932819Y+3324982D01*
X+3948379Y+3343933D01*
X+3960077Y+3365805D01*
X+3967441Y+3390126D01*
X+3970000Y+3416426D01*
X+3970000Y+3450000D01*
X+3970000Y+3893000D01*
X+3954000Y+4020000D01*
X+3820000Y+3287801D02*
X+3841375Y+3287801D01*
X+5143939Y+3287801D02*
X+5167261Y+3285531D01*
X+5188828Y+3279001D01*
X+5208223Y+3268628D01*
X+5225029Y+3254830D01*
X+5238827Y+3238024D01*
X+5249200Y+3218629D01*
X+5255730Y+3197062D01*
X+5258000Y+3173740D01*
X+5258000Y+2940000D01*
X+2578456Y+3287801D02*
X+3820000Y+3287801D01*
D11*
X+4730000Y+3287801D02*
X+4730000Y+4006000D01*
X+4716000Y+4020000D01*
D10*
X+3841375Y+3287801D02*
X+4730000Y+3287801D01*
X+5143939Y+3287801D01*
X-90000Y+5100000D02*
X-13414Y+5100000D01*
X+23090Y+5096448D01*
X+56848Y+5086226D01*
X+87206Y+5069990D01*
X+113511Y+5048393D01*
X+135108Y+5022088D01*
X+151344Y+4991730D01*
X+161566Y+4957972D01*
X+165118Y+4921468D01*
X+165118Y+4212400D01*
X+148000Y+4060000D01*
X-2480000Y+4680000D02*
X-2980000Y+4680000D01*
X-3021571Y+4682020D01*
X-3061787Y+4687959D01*
X-3100465Y+4697633D01*
X-3137422Y+4710859D01*
X-3172474Y+4727455D01*
X-3205439Y+4747236D01*
X-3264375Y+4795625D01*
X-3312764Y+4854561D01*
X-3332545Y+4887526D01*
X-3349141Y+4922578D01*
X-3362367Y+4959535D01*
X-3372041Y+4998213D01*
X-3377980Y+5038429D01*
X-3380000Y+5080000D01*
X-3383588Y+5116866D01*
X-3393910Y+5150958D01*
X-3410307Y+5181618D01*
X-3432118Y+5208183D01*
X-3458684Y+5229995D01*
X-3489343Y+5246392D01*
X-3523436Y+5256714D01*
X-3560302Y+5260302D01*
X-3726784Y+5260302D01*
X-3764246Y+5256656D01*
X-3798890Y+5246167D01*
X-3830044Y+5229505D01*
X-3857039Y+5207341D01*
X-3879203Y+5180346D01*
X-3895865Y+5149192D01*
X-3906354Y+5114548D01*
X-3910000Y+5077086D01*
X-3910000Y+4680000D01*
X-2480000Y+4680000D02*
X-1074358Y+4680000D01*
X-1058501Y+4695857D01*
X-1090000Y+4680000D01*
X-2030000Y+3650000D02*
X-2466000Y+3650000D01*
X-2480000Y+3664000D01*
D11*
X+1966000Y+4010000D02*
X+1966000Y+4196000D01*
X+1971253Y+4249979D01*
X+1986367Y+4299898D01*
X+2010376Y+4344790D01*
X+2042312Y+4383688D01*
X+2081210Y+4415624D01*
X+2126102Y+4439633D01*
X+2176021Y+4454747D01*
X+2230000Y+4460000D01*
X+4022000Y+4460000D01*
X+4556000Y+1963000D02*
X+4561415Y+2018643D01*
X+4576995Y+2070100D01*
X+4601743Y+2116375D01*
X+4634664Y+2156472D01*
X+4674760Y+2189392D01*
X+4721035Y+2214141D01*
X+4772493Y+2229721D01*
X+4828136Y+2235136D01*
X+5112200Y+2235136D01*
X+5865136Y+2235136D01*
X+5937694Y+2242197D01*
X+6004794Y+2262513D01*
X+6065137Y+2294785D01*
X+6117422Y+2337714D01*
X+6160351Y+2389999D01*
X+6192623Y+2450342D01*
X+6212939Y+2517442D01*
X+6220000Y+2590000D01*
X+6220000Y+3304478D01*
X+6216690Y+3338488D01*
X+6207168Y+3369939D01*
X+6192041Y+3398223D01*
X+6171919Y+3422730D01*
X+6147412Y+3442852D01*
X+6119128Y+3457979D01*
X+6087677Y+3467501D01*
X+6053667Y+3470811D01*
X+5014131Y+3470811D01*
X+4022000Y+4460000D02*
X+4067728Y+4457778D01*
X+4111966Y+4451245D01*
X+4154512Y+4440604D01*
X+4195164Y+4426055D01*
X+4233722Y+4407800D01*
X+4269983Y+4386040D01*
X+4303747Y+4360977D01*
X+4334812Y+4332812D01*
X+4362977Y+4301747D01*
X+4388040Y+4267983D01*
X+4409800Y+4231722D01*
X+4428055Y+4193164D01*
X+4442604Y+4152512D01*
X+4453245Y+4109966D01*
X+4459778Y+4065728D01*
X+4462000Y+4020000D01*
X+4111966Y+4451245D02*
X+5720493Y+4451245D01*
X+5785695Y+4448076D01*
X+5848772Y+4438762D01*
X+5909437Y+4423588D01*
X+5967402Y+4402843D01*
X+6022380Y+4376814D01*
X+6074085Y+4345787D01*
X+6122228Y+4310051D01*
X+6166523Y+4269892D01*
X+6206682Y+4225597D01*
X+6242418Y+4177454D01*
X+6273445Y+4125749D01*
X+6299474Y+4070771D01*
X+6320219Y+4012806D01*
X+6335393Y+3952141D01*
X+6344707Y+3889064D01*
X+6347876Y+3823862D01*
X+6347876Y+2833360D01*
X-422400Y+1963000D02*
X-422400Y+1740462D01*
X-418646Y+1701883D01*
X-407844Y+1666206D01*
X-390685Y+1634122D01*
X-367860Y+1606322D01*
X-340060Y+1583497D01*
X-307976Y+1566338D01*
X-272299Y+1555536D01*
X-233720Y+1551782D01*
X+4373720Y+1551782D01*
X+6401782Y+1866821D02*
X+6961421Y+1866821D01*
X+6996000Y+1901400D01*
X+4511550Y+1177674D02*
X+4678914Y+1177674D01*
X+4723199Y+1181984D01*
X+4764153Y+1194383D01*
X+4800983Y+1214080D01*
X+4832895Y+1240282D01*
X+4859096Y+1272193D01*
X+4878793Y+1309023D01*
X+4891193Y+1349977D01*
X+4895503Y+1394263D01*
X+4895503Y+1871969D01*
X+4901164Y+1930139D01*
X+4917451Y+1983934D01*
X+4943324Y+2032311D01*
X+4977740Y+2074228D01*
X+5019658Y+2108645D01*
X+5068035Y+2134517D01*
X+5121829Y+2150805D01*
X+5180000Y+2156466D01*
X+5757719Y+2156466D01*
X+5827007Y+2149723D01*
X+5891083Y+2130323D01*
X+5948705Y+2099505D01*
X+5998634Y+2058511D01*
X+6039628Y+2008583D01*
X+6070446Y+1950960D01*
X+6089846Y+1886884D01*
X+6096589Y+1817596D01*
X+6099723Y+1785388D01*
X+6108741Y+1755603D01*
X+6123066Y+1728818D01*
X+6142122Y+1705610D01*
X+6165330Y+1686554D01*
X+6192115Y+1672229D01*
X+6221900Y+1663211D01*
X+6254108Y+1660077D01*
X+6323023Y+1660077D01*
X+6983323Y+1660077D01*
X+6996000Y+1647400D01*
D10*
X-1438400Y+1963000D02*
X-1438400Y+2031600D01*
X-1434054Y+2076256D01*
X-1421551Y+2117552D01*
X-1401689Y+2154690D01*
X-1375269Y+2186869D01*
X-1343090Y+2213289D01*
X-1305952Y+2233151D01*
X-1264656Y+2245654D01*
X-1220000Y+2250000D01*
X-1169200Y+2300800D02*
X-1169200Y+2828400D01*
X-1172000Y+2930000D01*
D11*
X-168400Y+1963000D02*
X-168400Y+2077160D01*
X-170875Y+2102594D01*
X-177996Y+2126114D01*
X-189308Y+2147266D01*
X-204356Y+2165593D01*
X-222684Y+2180641D01*
X-243835Y+2191953D01*
X-267356Y+2199075D01*
X-292790Y+2201550D01*
X-1010000Y+2201550D01*
X-410000Y+2920000D02*
X-410000Y+2506744D01*
X-410000Y+2442847D01*
X-406694Y+2408872D01*
X-397181Y+2377452D01*
X-382069Y+2349197D01*
X-361968Y+2324714D01*
X-337485Y+2304613D01*
X-309230Y+2289501D01*
X-277810Y+2279988D01*
X-243835Y+2276682D01*
X+432318Y+2276682D01*
X+496456Y+2270441D01*
X+555769Y+2252482D01*
X+609109Y+2223955D01*
X+655326Y+2186008D01*
X+693273Y+2139791D01*
X+721800Y+2086451D01*
X+739759Y+2027138D01*
X+746000Y+1963000D01*
X+1000000Y+1963000D02*
X+1000000Y+2320000D01*
X+998010Y+2340447D01*
X+992285Y+2359355D01*
X+971094Y+2391094D01*
X+939356Y+2412285D01*
X+920447Y+2418010D01*
X+900000Y+2420000D01*
X+880007Y+2423919D01*
X+863884Y+2434684D01*
X+853119Y+2450807D01*
X+849200Y+2470800D01*
X+849200Y+2828400D01*
X+870000Y+2930000D01*
X+2140000Y+2930000D02*
X+2140000Y+2496899D01*
X+2140000Y+2400000D01*
X+2137015Y+2369330D01*
X+2128428Y+2340967D01*
X+2114787Y+2315460D01*
X+2096641Y+2293359D01*
X+2074540Y+2275214D01*
X+2049033Y+2261572D01*
X+2020670Y+2252985D01*
X+1990000Y+2250000D01*
X+1541000Y+2250000D01*
X+1482318Y+2244289D01*
X+1428050Y+2227858D01*
X+1379247Y+2201758D01*
X+1336961Y+2167039D01*
X+1302242Y+2124753D01*
X+1276142Y+2075950D01*
X+1259711Y+2021682D01*
X+1254000Y+1963000D01*
X+4750000Y+2940000D02*
X+4750000Y+2676279D01*
X+4747851Y+2632057D01*
X+4741534Y+2589277D01*
X+4731243Y+2548133D01*
X+4717173Y+2508820D01*
X+4699520Y+2471532D01*
X+4678477Y+2436466D01*
X+4654240Y+2403814D01*
X+4627003Y+2373772D01*
X+4596961Y+2346535D01*
X+4564310Y+2322298D01*
X+4529243Y+2301256D01*
X+4491955Y+2283602D01*
X+4452642Y+2269532D01*
X+4411498Y+2259241D01*
X+4368718Y+2252924D01*
X+4324496Y+2250775D01*
X+2670544Y+2250775D01*
X+2634310Y+2247249D01*
X+2600802Y+2237103D01*
X+2570669Y+2220987D01*
X+2544559Y+2199550D01*
X+2523121Y+2173440D01*
X+2507005Y+2143307D01*
X+2496860Y+2109799D01*
X+2493334Y+2073565D01*
X+2493334Y+1689612D01*
X+2489415Y+1669619D01*
X+2478650Y+1653496D01*
X+2462527Y+1642731D01*
X+2442534Y+1638812D01*
X+2086188Y+1638812D01*
X+2019902Y+1645263D01*
X+1958602Y+1663823D01*
X+1903476Y+1693305D01*
X+1855710Y+1732522D01*
X+1816493Y+1780288D01*
X+1787010Y+1835414D01*
X+1768450Y+1896714D01*
X+1762000Y+1963000D01*
X+2170000Y+269000D02*
X+2103229Y+265755D01*
X+2038634Y+256216D01*
X+1976509Y+240678D01*
X+1917149Y+219434D01*
X+1860848Y+192778D01*
X+1807899Y+161005D01*
X+1758598Y+124409D01*
X+1713237Y+83284D01*
X+1672112Y+37923D01*
X+1635516Y-11378D01*
X+1603743Y-64327D01*
X+1577087Y-120628D01*
X+1555843Y-179988D01*
X+1540305Y-242113D01*
X+1530766Y-306708D01*
X+1527521Y-373479D01*
X+1527521Y-871238D01*
X+1520601Y-942344D01*
X+1500692Y-1008101D01*
X+1469065Y-1067236D01*
X+1426996Y-1118475D01*
X+1375757Y-1160544D01*
X+1316622Y-1192171D01*
X+1250865Y-1212080D01*
X+1179759Y-1219000D01*
X+770000Y-1219000D01*
D10*
X-1030000Y-1610000D02*
X-1030000Y-1270000D01*
X-1024429Y-1212749D01*
X-1008398Y-1159805D01*
X-982934Y-1112192D01*
X-949062Y-1070938D01*
X-907807Y-1037065D01*
X-860195Y-1011602D01*
X-807251Y-995571D01*
X-750000Y-990000D01*
X+643000Y-990000D01*
X+770000Y-965000D01*
X-1183884Y+2264684D02*
X-2383530Y+2264684D01*
X-2417856Y+2261344D01*
X-2449600Y+2251732D01*
X-2478147Y+2236465D01*
X-2502883Y+2216156D01*
X-2523192Y+2191420D01*
X-2538459Y+2162873D01*
X-2548071Y+2131129D01*
X-2551411Y+2096803D01*
X-2551411Y+1301411D01*
X-2548597Y+1272497D01*
X-2540501Y+1245758D01*
X-2527641Y+1221712D01*
X-2510534Y+1200876D01*
X-2489699Y+1183770D01*
X-2465653Y+1170910D01*
X-2438914Y+1162814D01*
X-2410000Y+1160000D01*
X-1564804Y+1160000D01*
X-1555333Y+1150529D01*
X-1220000Y+2250000D02*
X-1200007Y+2253919D01*
X-1183884Y+2264684D01*
X-1173119Y+2280807D01*
X-1169200Y+2300800D01*
X+1204000Y+4010000D02*
X+1204000Y+4429606D01*
X+1211066Y+4502212D01*
X+1231395Y+4569357D01*
X+1263689Y+4629739D01*
X+1306646Y+4682059D01*
X+1358966Y+4725016D01*
X+1419348Y+4757310D01*
X+1486492Y+4777639D01*
X+1559099Y+4784705D01*
X+6967805Y+4784705D01*
X+7017494Y+4782290D01*
X+7065564Y+4775192D01*
X+7111796Y+4763628D01*
X+7155970Y+4747819D01*
X+7197868Y+4727982D01*
X+7237271Y+4704338D01*
X+7273960Y+4677104D01*
X+7307716Y+4646499D01*
X+7338321Y+4612743D01*
X+7365555Y+4576054D01*
X+7389200Y+4536651D01*
X+7409036Y+4494753D01*
X+7424845Y+4450579D01*
X+7436409Y+4404347D01*
X+7443507Y+4356277D01*
X+7445922Y+4306588D01*
X+7445922Y-2984705D01*
X+7439976Y-3045805D01*
X+7422868Y-3102308D01*
X+7395692Y-3153122D01*
X+7359543Y-3197150D01*
X+7315515Y-3233299D01*
X+7264701Y-3260475D01*
X+7208198Y-3277583D01*
X+7147098Y-3283529D01*
X-184038Y-3283529D01*
X-215399Y-3277381D01*
X-240690Y-3260495D01*
X-257576Y-3235204D01*
X-263724Y-3203843D01*
X-263724Y-2869276D01*
X-270000Y-2863000D01*
D11*
X+5902001Y-3114194D02*
X+5902001Y-2436861D01*
X+5364118Y-2914979D02*
X+5364118Y-2825332D01*
X+5359361Y-2776452D01*
X+5345675Y-2731249D01*
X+5323934Y-2690599D01*
X+5295015Y-2655376D01*
X+5259792Y-2626457D01*
X+5219142Y-2604716D01*
X+5173939Y-2591030D01*
X+5125059Y-2586273D01*
X+5105066Y-2582354D01*
X+5088943Y-2571589D01*
X+5078178Y-2555466D01*
X+5074259Y-2535473D01*
X+5074259Y-2090741D01*
X+5079109Y-2040904D01*
X+5093063Y-1994815D01*
X+5115229Y-1953369D01*
X+5144715Y-1917456D01*
X+5180628Y-1887970D01*
X+5222074Y-1865804D01*
X+5268163Y-1851850D01*
X+5318000Y-1847000D01*
X-970940Y-3343293D02*
X-582469Y-3343293D01*
X-555992Y-3345869D01*
X-531507Y-3353283D01*
X-509488Y-3365059D01*
X-490409Y-3380723D01*
X-474745Y-3399802D01*
X-462969Y-3421821D01*
X-455556Y-3446306D01*
X-452979Y-3472783D01*
X-449060Y-3492776D01*
X-438295Y-3508899D01*
X-422172Y-3519664D01*
X-402179Y-3523583D01*
X+5651984Y-3523583D01*
X+5676627Y-3521185D01*
X+5699417Y-3514284D01*
X+5719912Y-3503323D01*
X+5737670Y-3488743D01*
X+5752250Y-3470985D01*
X+5763211Y-3450490D01*
X+5770112Y-3427700D01*
X+5772510Y-3403057D01*
X+5772510Y-2735685D02*
X+5772510Y-1958743D01*
X+5770287Y-1935895D01*
X+5763889Y-1914766D01*
X+5753727Y-1895765D01*
X+5740209Y-1879300D01*
X+5723745Y-1865783D01*
X+5704744Y-1855621D01*
X+5683615Y-1849223D01*
X+5660767Y-1847000D01*
X+5572000Y-1847000D01*
D10*
X-522000Y-1610000D02*
X-370000Y-1610000D01*
X-318883Y-1614974D01*
X-271611Y-1629287D01*
X-229100Y-1652023D01*
X-192266Y-1682266D01*
X-162023Y-1719100D01*
X-139287Y-1761611D01*
X-124974Y-1808883D01*
X-120000Y-1860000D01*
X-120000Y-2218549D01*
X-114052Y-2279673D01*
X-96937Y-2336198D01*
X-69751Y-2387032D01*
X-33588Y-2431077D01*
X+10458Y-2467241D01*
X+61291Y-2494427D01*
X+117817Y-2511542D01*
X+178941Y-2517490D01*
X+3764823Y-2517490D01*
X+3823886Y-2511742D01*
X+3878506Y-2495205D01*
X+3927625Y-2468935D01*
X+3970186Y-2433990D01*
X+4005131Y-2391430D01*
X+4031401Y-2342310D01*
X+4047938Y-2287690D01*
X+4053686Y-2228627D01*
X+4053686Y-2188784D01*
X+4053686Y-1605686D01*
X+4048000Y-1600000D01*
X-3740000Y+3290000D02*
X-2540000Y+3290000D01*
X-2521361Y+3290000D01*
X-3160000Y+290000D02*
X-3160000Y+1395055D01*
X-3165197Y+1448457D01*
X-3180149Y+1497841D01*
X-3203901Y+1542252D01*
X-3235495Y+1580733D01*
X-3273976Y+1612328D01*
X-3318387Y+1636080D01*
X-3367772Y+1651032D01*
X-3421174Y+1656229D01*
X-4509745Y+1656229D01*
X-4563011Y+1661413D01*
X-4612271Y+1676327D01*
X-4656569Y+1700019D01*
X-4694953Y+1731533D01*
X-4726468Y+1769917D01*
X-4750160Y+1814216D01*
X-4765074Y+1863475D01*
X-4770258Y+1916742D01*
X-4770258Y+3842676D01*
X-4763080Y+3879292D01*
X-4743364Y+3908822D01*
X-4713834Y+3928538D01*
X-4677218Y+3935716D01*
X-4425716Y+3935716D01*
X-4420000Y+3930000D01*
D11*
X-4410000Y+3920000D01*
D10*
X-4420000Y+4680000D02*
X-4420000Y+3930000D01*
D11*
X-4056000Y-2641400D02*
X-1838656Y-2641400D01*
X-1772243Y-2634937D01*
X-1710826Y-2616341D01*
X-1655594Y-2586803D01*
X-1607737Y-2547510D01*
X-1568444Y-2499653D01*
X-1538905Y-2444421D01*
X-1520310Y-2383004D01*
X-1513847Y-2316591D01*
X-1513847Y-530218D01*
X-1507553Y-465537D01*
X-1489442Y-405722D01*
X-1460674Y-351931D01*
X-1422406Y-305322D01*
X-1375797Y-267054D01*
X-1322006Y-238286D01*
X-1262191Y-220175D01*
X-1197510Y-213881D01*
X-1142894Y-208566D01*
X-1092387Y-193274D01*
X-1046967Y-168982D01*
X-1007611Y-136669D01*
X-975298Y-97314D01*
X-951007Y-51893D01*
X-935715Y-1386D01*
X-930400Y+53229D01*
X-930400Y+1963000D01*
X-4056000Y-2387400D02*
X-1975425Y-2387400D01*
X-1932411Y-2383214D01*
X-1892633Y-2371170D01*
X-1856861Y-2352039D01*
X-1825866Y-2326590D01*
X-1800417Y-2295594D01*
X-1781286Y-2259822D01*
X-1769242Y-2220045D01*
X-1765056Y-2177031D01*
X-1765056Y-353441D01*
X-1758762Y-288760D01*
X-1740651Y-228945D01*
X-1711883Y-175154D01*
X-1673615Y-128545D01*
X-1627006Y-90277D01*
X-1573215Y-61509D01*
X-1513400Y-43398D01*
X-1448719Y-37104D01*
X-1394674Y-31845D01*
X-1344695Y-16712D01*
X-1299749Y+7325D01*
X-1260804Y+39300D01*
X-1228829Y+78245D01*
X-1204792Y+123191D01*
X-1189659Y+173170D01*
X-1184400Y+227215D01*
X-1184400Y+1963000D01*
X+5572000Y+693000D02*
X+6148282Y+693000D01*
X+6190317Y+690957D01*
X+6230982Y+684952D01*
X+6270091Y+675170D01*
X+6307460Y+661796D01*
X+6342904Y+645016D01*
X+6376237Y+625013D01*
X+6435830Y+576085D01*
X+6484758Y+516492D01*
X+6504760Y+483159D01*
X+6521541Y+447715D01*
X+6534915Y+410346D01*
X+6544697Y+371237D01*
X+6550702Y+330572D01*
X+6552745Y+288537D01*
X+6552745Y-1283844D01*
X+6557558Y-1333306D01*
X+6571407Y-1379047D01*
X+6593407Y-1420181D01*
X+6622670Y-1455823D01*
X+6658312Y-1485087D01*
X+6699447Y-1507086D01*
X+6745188Y-1520936D01*
X+6794650Y-1525749D01*
X+6869000Y-1525749D01*
X+6996000Y-1509000D01*
X+5572000Y+439000D02*
X+6060000Y+439000D01*
X+6124605Y+432713D01*
X+6184351Y+414624D01*
X+6238079Y+385889D01*
X+6284634Y+347666D01*
X+6322857Y+301111D01*
X+6351592Y+247383D01*
X+6369681Y+187637D01*
X+6375968Y+123032D01*
X+6375968Y-1562965D01*
X+6379948Y-1603866D01*
X+6391400Y-1641689D01*
X+6409592Y-1675704D01*
X+6433790Y-1705177D01*
X+6463263Y-1729376D01*
X+6497278Y-1747568D01*
X+6535102Y-1759020D01*
X+6576003Y-1763000D01*
X+6996000Y-1763000D01*
X+5572000Y+185000D02*
X+5958480Y+185000D01*
X+6009600Y+180025D01*
X+6056875Y+165712D01*
X+6099389Y+142975D01*
X+6136226Y+112730D01*
X+6166471Y+75893D01*
X+6189208Y+33379D01*
X+6203521Y-13896D01*
X+6208496Y-65016D01*
X+6208496Y-1749045D01*
X+6214235Y-1808019D01*
X+6230747Y-1862556D01*
X+6256977Y-1911601D01*
X+6291868Y-1954097D01*
X+6334364Y-1988988D01*
X+6383410Y-2015218D01*
X+6437947Y-2031731D01*
X+6496921Y-2037470D01*
X+6869000Y-2037470D01*
X+6996000Y-2017000D01*
X+5572000Y-69000D02*
X+5819000Y-69000D01*
X+5864187Y-73397D01*
X+5905975Y-86050D01*
X+5943555Y-106148D01*
X+5976117Y-132883D01*
X+6002852Y-165444D01*
X+6022950Y-203024D01*
X+6035603Y-244812D01*
X+6040000Y-290000D01*
X+6040000Y-2064359D01*
X+6044463Y-2110225D01*
X+6057306Y-2152641D01*
X+6077706Y-2190785D01*
X+6104842Y-2223836D01*
X+6137893Y-2250973D01*
X+6176038Y-2271373D01*
X+6218454Y-2284216D01*
X+6264320Y-2288679D01*
X+6869000Y-2288679D01*
X+6996000Y-2271000D01*
X-274853Y-317794D02*
X+285440Y-317794D01*
X+317291Y-311550D01*
X+342978Y-294400D01*
X+360128Y-268713D01*
X+366372Y-236862D01*
X+370291Y-216869D01*
X+381056Y-200746D01*
X+397179Y-189981D01*
X+417172Y-186062D01*
X+1212043Y-186062D01*
X+1232613Y-188064D01*
X+1251636Y-193823D01*
X+1268743Y-202973D01*
X+1283566Y-215143D01*
X+1295736Y-229966D01*
X+1304885Y-247073D01*
X+1310645Y-266096D01*
X+1312647Y-286666D01*
X+1312647Y-859411D01*
X+2900147Y-770000D02*
X+3861127Y-770000D01*
X+3909036Y-765338D01*
X+3953342Y-751923D01*
X+3993186Y-730614D01*
X+4027709Y-702268D01*
X+4056055Y-667745D01*
X+4077364Y-627901D01*
X+4090779Y-583595D01*
X+4095441Y-535686D01*
X+4099673Y-492199D01*
X+4111849Y-451982D01*
X+4131191Y-415816D01*
X+4156920Y-384480D01*
X+4188257Y-358751D01*
X+4224423Y-339408D01*
X+4264639Y-327232D01*
X+4308127Y-323000D01*
X+5318000Y-323000D01*
D10*
X-2842000Y+3670000D02*
X-2486000Y+3670000D01*
X-2480000Y+3664000D01*
D12*
X+5014131Y+3470811D03*
X+6347876Y+2833360D03*
X+4373720Y+1551782D03*
X+6401782Y+1866821D03*
X+4511550Y+1177674D03*
X-1010000Y+2201550D03*
D13*
X-1555333Y+1150529D03*
D12*
X+5902001Y-3114194D03*
X+5902001Y-2436861D03*
X+5364118Y-2914979D03*
X-970940Y-3343293D03*
X+5772510Y-3403057D03*
X+5772510Y-2735685D03*
D13*
X-3160000Y+290000D03*
D12*
X-274853Y-317794D03*
X+1312647Y-859411D03*
X+2900147Y-770000D03*
D11*
X+7743640Y-3613640D02*
X+5721867Y-3613640D01*
X+5738477Y-3608610D01*
X+5776647Y-3588197D01*
X+5809857Y-3560930D01*
X+5837124Y-3527720D01*
X+5857537Y-3489550D01*
X+5861827Y-3475383D01*
X+5886809Y-3450401D01*
X+5886809Y-3410528D01*
X+7199703Y-3410528D01*
X+7232989Y-3402769D01*
X+7313523Y-3378385D01*
X+7386432Y-3339392D01*
X+7449776Y-3287383D01*
X+7457696Y-3277738D01*
X+7501785Y-3224039D01*
X+7507681Y-3213015D01*
X+7540778Y-3151130D01*
X+7565162Y-3070596D01*
X+7572921Y-3037310D01*
X+7572921Y+4359193D01*
X+7570054Y+4368660D01*
X+7561130Y+4429096D01*
X+7546527Y+4487474D01*
X+7544417Y+4493371D01*
X+7526500Y+4543435D01*
X+7501312Y+4596638D01*
X+7471239Y+4646753D01*
X+7436586Y+4693436D01*
X+7397625Y+4736408D01*
X+7388803Y+4744406D01*
X+7354653Y+4775369D01*
X+7307961Y+4810028D01*
X+7257860Y+4840092D01*
X+7204652Y+4865283D01*
X+7148691Y+4885310D01*
X+7142612Y+4886831D01*
X+7090313Y+4899913D01*
X+7029877Y+4908837D01*
X+7020410Y+4911704D01*
X+1506494Y+4911704D01*
X+1461700Y+4902825D01*
X+1370531Y+4875222D01*
X+1359454Y+4869298D01*
X+1288046Y+4831107D01*
X+1216413Y+4772292D01*
X+1208493Y+4762647D01*
X+1157598Y+4700659D01*
X+1113483Y+4618175D01*
X+1085880Y+4527003D01*
X+1077001Y+4482211D01*
X+1077001Y+4213199D01*
X+1051601Y+4213199D01*
X+1051601Y+3806801D01*
X+2626399Y+3806801D01*
X+2626399Y+4213199D01*
X+2070882Y+4213199D01*
X+2071915Y+4231842D01*
X+2080695Y+4260844D01*
X+2095248Y+4288054D01*
X+2114499Y+4311501D01*
X+2137946Y+4330752D01*
X+2165156Y+4345305D01*
X+2194158Y+4354085D01*
X+2272084Y+4358401D01*
X+3979916Y+4358401D01*
X+4054585Y+4356507D01*
X+4069882Y+4349646D01*
X+4127595Y+4342328D01*
X+4156213Y+4332086D01*
X+4185734Y+4318110D01*
X+4213431Y+4301489D01*
X+4239190Y+4282368D01*
X+4262885Y+4260885D01*
X+4284368Y+4237190D01*
X+4294753Y+4223199D01*
X+3547601Y+4223199D01*
X+3547601Y+3816801D01*
X+5630399Y+3816801D01*
X+5630399Y+4223199D01*
X+4525215Y+4223199D01*
X+4522023Y+4232118D01*
X+4499489Y+4279712D01*
X+4472591Y+4324535D01*
X+4453951Y+4349646D01*
X+5678409Y+4349646D01*
X+5776579Y+4346722D01*
X+5828981Y+4338984D01*
X+5879922Y+4326242D01*
X+5928451Y+4308874D01*
X+5974389Y+4287125D01*
X+6017530Y+4261237D01*
X+6057678Y+4231436D01*
X+6094596Y+4197965D01*
X+6128067Y+4161047D01*
X+6157868Y+4120899D01*
X+6183756Y+4077758D01*
X+6205505Y+4031820D01*
X+6222873Y+3983291D01*
X+6235615Y+3932350D01*
X+6243353Y+3879948D01*
X+6246277Y+3781778D01*
X+6246277Y+3492273D01*
X+6244106Y+3494917D01*
X+6204150Y+3527723D01*
X+6158181Y+3552309D01*
X+6107510Y+3567649D01*
X+6095751Y+3572410D01*
X+5074175Y+3572410D01*
X+5061475Y+3585110D01*
X+4966787Y+3585110D01*
X+4899832Y+3518155D01*
X+4899832Y+3423467D01*
X+4966787Y+3356512D01*
X+5061475Y+3356512D01*
X+5074175Y+3369212D01*
X+6011583Y+3369212D01*
X+6069941Y+3366717D01*
X+6080075Y+3363649D01*
X+6090674Y+3357981D01*
X+6099732Y+3350543D01*
X+6107170Y+3341485D01*
X+6112838Y+3330886D01*
X+6115906Y+3320752D01*
X+6118401Y+3262394D01*
X+6118401Y+2632084D01*
X+6112355Y+2535836D01*
X+6098296Y+2489400D01*
X+6075478Y+2446735D01*
X+6045235Y+2409901D01*
X+6008401Y+2379658D01*
X+5965736Y+2356840D01*
X+5919300Y+2342781D01*
X+5823052Y+2336735D01*
X+4786052Y+2336735D01*
X+4752665Y+2329870D01*
X+4743052Y+2326960D01*
X+4713622Y+2318049D01*
X+4732851Y+2339259D01*
X+4763028Y+2379914D01*
X+4765593Y+2384188D01*
X+4789212Y+2423546D01*
X+4811144Y+2469873D01*
X+4828587Y+2518612D01*
X+4841312Y+2569487D01*
X+4842043Y+2574436D01*
X+4849088Y+2622146D01*
X+4851599Y+2634195D01*
X+4851599Y+2790153D01*
X+4877000Y+2815554D01*
X+4930353Y+2762201D01*
X+5077647Y+2762201D01*
X+5131000Y+2815554D01*
X+5184353Y+2762201D01*
X+5331647Y+2762201D01*
X+5435799Y+2866353D01*
X+5435799Y+3013647D01*
X+5331647Y+3117799D01*
X+5184353Y+3117799D01*
X+5131000Y+3064446D01*
X+5077647Y+3117799D01*
X+4930353Y+3117799D01*
X+4877000Y+3064446D01*
X+4823647Y+3117799D01*
X+4676353Y+3117799D01*
X+4572201Y+3013647D01*
X+4572201Y+2866353D01*
X+4648401Y+2790153D01*
X+4648401Y+2718363D01*
X+4646472Y+2641008D01*
X+4641756Y+2609066D01*
X+4633899Y+2577654D01*
X+4623203Y+2547768D01*
X+4609829Y+2519519D01*
X+4593927Y+2493019D01*
X+4575629Y+2468369D01*
X+4555076Y+2445699D01*
X+4532404Y+2425144D01*
X+4507761Y+2406851D01*
X+4481254Y+2390946D01*
X+4453006Y+2377572D01*
X+4423121Y+2366876D01*
X+4391709Y+2359019D01*
X+4359767Y+2354303D01*
X+4282412Y+2352374D01*
X+2628460Y+2352374D01*
X+2614477Y+2347398D01*
X+2561748Y+2331432D01*
X+2513932Y+2305859D01*
X+2472373Y+2271738D01*
X+2438249Y+2230177D01*
X+2412678Y+2182364D01*
X+2407784Y+2166199D01*
X+2084640Y+2166199D01*
X+2088085Y+2167242D01*
X+2131274Y+2190340D01*
X+2168828Y+2221172D01*
X+2199660Y+2258724D01*
X+2222759Y+2301917D01*
X+2237164Y+2349501D01*
X+2241599Y+2357916D01*
X+2241599Y+2780153D01*
X+2267000Y+2805554D01*
X+2320353Y+2752201D01*
X+2467647Y+2752201D01*
X+2521000Y+2805554D01*
X+2574353Y+2752201D01*
X+2721647Y+2752201D01*
X+2825799Y+2856353D01*
X+2825799Y+3003647D01*
X+2721647Y+3107799D01*
X+2574353Y+3107799D01*
X+2521000Y+3054446D01*
X+2467647Y+3107799D01*
X+2320353Y+3107799D01*
X+2267000Y+3054446D01*
X+2213647Y+3107799D01*
X+2066353Y+3107799D01*
X+1962201Y+3003647D01*
X+1962201Y+2856353D01*
X+2038401Y+2780153D01*
X+2038401Y+2442084D01*
X+2036205Y+2386977D01*
X+2034099Y+2380020D01*
X+2029915Y+2372197D01*
X+2024454Y+2365546D01*
X+2017805Y+2360087D01*
X+2009978Y+2355901D01*
X+2003023Y+2353795D01*
X+1947916Y+2351599D01*
X+1498916Y+2351599D01*
X+1462488Y+2344438D01*
X+1388998Y+2322187D01*
X+1380137Y+2317449D01*
X+1322512Y+2286631D01*
X+1314776Y+2280280D01*
X+1264774Y+2239226D01*
X+1217369Y+2181488D01*
X+1209192Y+2166199D01*
X+1101599Y+2166199D01*
X+1101599Y+2362084D01*
X+1095880Y+2367803D01*
X+1095249Y+2369889D01*
X+1085154Y+2403230D01*
X+1044348Y+2464347D01*
X+983230Y+2505154D01*
X+950799Y+2514973D01*
X+950799Y+2759353D01*
X+997000Y+2805554D01*
X+1050353Y+2752201D01*
X+1197647Y+2752201D01*
X+1251000Y+2805554D01*
X+1304353Y+2752201D01*
X+1451647Y+2752201D01*
X+1555799Y+2856353D01*
X+1555799Y+3003647D01*
X+1451647Y+3107799D01*
X+1304353Y+3107799D01*
X+1251000Y+3054446D01*
X+1197647Y+3107799D01*
X+1050353Y+3107799D01*
X+997000Y+3054446D01*
X+943647Y+3107799D01*
X+796353Y+3107799D01*
X+692201Y+3003647D01*
X+692201Y+2856353D01*
X+747601Y+2800953D01*
X+747601Y+2428716D01*
X+757329Y+2411307D01*
X+790631Y+2361431D01*
X+840507Y+2328129D01*
X+857916Y+2318401D01*
X+897272Y+2317272D01*
X+898401Y+2277916D01*
X+898401Y+2166199D01*
X+794366Y+2166199D01*
X+778147Y+2196525D01*
X+771795Y+2204262D01*
X+727513Y+2258195D01*
X+665843Y+2308829D01*
X+594827Y+2346809D01*
X+585211Y+2349721D01*
X+516289Y+2370590D01*
X+474402Y+2378281D01*
X-201751Y+2378281D01*
X-260077Y+2380772D01*
X-270175Y+2383829D01*
X-280748Y+2389484D01*
X-289781Y+2396901D01*
X-297198Y+2405934D01*
X-302853Y+2416507D01*
X-305910Y+2426605D01*
X-308401Y+2484931D01*
X-308401Y+2770153D01*
X-283000Y+2795554D01*
X-229647Y+2742201D01*
X-82353Y+2742201D01*
X-29000Y+2795554D01*
X+24353Y+2742201D01*
X+171647Y+2742201D01*
X+275799Y+2846353D01*
X+275799Y+2993647D01*
X+171647Y+3097799D01*
X+24353Y+3097799D01*
X-29000Y+3044446D01*
X-82353Y+3097799D01*
X-229647Y+3097799D01*
X-283000Y+3044446D01*
X-336353Y+3097799D01*
X-483647Y+3097799D01*
X-587799Y+2993647D01*
X-587799Y+2846353D01*
X-511599Y+2770153D01*
X-511599Y+2400763D01*
X-506843Y+2389043D01*
X-491509Y+2338397D01*
X-472657Y+2303149D01*
X-949956Y+2303149D01*
X-962656Y+2315849D01*
X-1057344Y+2315849D01*
X-1124299Y+2248894D01*
X-1124299Y+2166199D01*
X-2352799Y+2166199D01*
X-2352799Y+1759801D01*
X-1285999Y+1759801D01*
X-1285999Y+269299D01*
X-1290320Y+191310D01*
X-1299120Y+162246D01*
X-1313701Y+134982D01*
X-1332991Y+111487D01*
X-1356486Y+92197D01*
X-1383750Y+77616D01*
X-1412814Y+68816D01*
X-1490803Y+64495D01*
X-1533233Y+56751D01*
X-1612273Y+32818D01*
X-1621129Y+28082D01*
X-1683740Y-5403D01*
X-1691476Y-11754D01*
X-1745802Y-56358D01*
X-1752779Y-64856D01*
X-1796757Y-118420D01*
X-1834978Y-189887D01*
X-1837890Y-199503D01*
X-1858911Y-268927D01*
X-1866655Y-311357D01*
X-1866655Y-2134947D01*
X-1869964Y-2202106D01*
X-1875614Y-2220767D01*
X-1885288Y-2238856D01*
X-1898054Y-2254404D01*
X-1913599Y-2267168D01*
X-1931688Y-2276842D01*
X-1950350Y-2282492D01*
X-2017509Y-2285801D01*
X-3852801Y-2285801D01*
X-3852801Y-711001D01*
X-4259199Y-711001D01*
X-4259199Y-3301799D01*
X-3852801Y-3301799D01*
X-3852801Y-2742999D01*
X-1796572Y-2742999D01*
X-1752412Y-2735086D01*
X-1671772Y-2710670D01*
X-1598859Y-2671676D01*
X-1591123Y-2665325D01*
X-1535550Y-2619697D01*
X-1483574Y-2556393D01*
X-1444577Y-2483477D01*
X-1420160Y-2402831D01*
X-1412248Y-2358675D01*
X-1412248Y-572302D01*
X-1406940Y-483834D01*
X-1395114Y-444779D01*
X-1375801Y-408667D01*
X-1350219Y-377509D01*
X-1319061Y-351927D01*
X-1282949Y-332614D01*
X-1243894Y-320788D01*
X-1155426Y-315480D01*
X-1123066Y-308715D01*
X-1113453Y-305805D01*
X-1053332Y-287602D01*
X-1044472Y-282864D01*
X-990231Y-253854D01*
X-982497Y-247505D01*
X-935425Y-208857D01*
X-890425Y-154049D01*
X-883920Y-141886D01*
X-856678Y-90946D01*
X-835566Y-21214D01*
X-828801Y+11145D01*
X-828801Y+1759801D01*
X-523999Y+1759801D01*
X-523999Y+1698378D01*
X-518795Y+1682054D01*
X-502172Y+1627149D01*
X-475559Y+1577388D01*
X-469208Y+1569652D01*
X-440047Y+1534135D01*
X-396794Y+1498623D01*
X-347033Y+1472010D01*
X-292128Y+1455387D01*
X-275804Y+1450183D01*
X+566801Y+1450183D01*
X+566801Y-84463D01*
X+375088Y-84463D01*
X+357679Y-94191D01*
X+307803Y-127493D01*
X+274501Y-177369D01*
X+264773Y-194778D01*
X+263188Y-214610D01*
X+243356Y-216195D01*
X+5293Y-216196D01*
X-214809Y-216195D01*
X-227509Y-203495D01*
X-322197Y-203495D01*
X-389152Y-270450D01*
X-389152Y-365138D01*
X-322197Y-432093D01*
X-227509Y-432093D01*
X-214809Y-419393D01*
X+5293Y-419392D01*
X+327524Y-419393D01*
X+356791Y-407339D01*
X+416231Y-367653D01*
X+455917Y-308213D01*
X+464382Y-287661D01*
X+1169959Y-287661D01*
X+1209896Y-288813D01*
X+1211048Y-328750D01*
X+1211048Y-799367D01*
X+1198348Y-812067D01*
X+1198348Y-906755D01*
X+1265303Y-973710D01*
X+1359991Y-973710D01*
X+1420695Y-913006D01*
X+1420012Y-923969D01*
X+1406365Y-969043D01*
X+1384194Y-1010498D01*
X+1354809Y-1046288D01*
X+1319019Y-1075673D01*
X+1277564Y-1097844D01*
X+1232490Y-1111491D01*
X+1137675Y-1117401D01*
X+973199Y-1117401D01*
X+973199Y-304601D01*
X+566801Y-304601D01*
X+566801Y-2387399D01*
X+973199Y-2387399D01*
X+973199Y-1320599D01*
X+1221843Y-1320599D01*
X+1270694Y-1312229D01*
X+1355679Y-1286498D01*
X+1364537Y-1281761D01*
X+1432494Y-1245416D01*
X+1499183Y-1190662D01*
X+1553937Y-1123973D01*
X+1595019Y-1047158D01*
X+1597931Y-1037541D01*
X+1620750Y-962173D01*
X+1629120Y-913322D01*
X+1629120Y-415563D01*
X+1632119Y-315828D01*
X+1640082Y-261908D01*
X+1653188Y-209507D01*
X+1671059Y-159571D01*
X+1693429Y-112321D01*
X+1720067Y-67930D01*
X+1750726Y-26628D01*
X+1785164Y+11357D01*
X+1823149Y+45795D01*
X+1864451Y+76454D01*
X+1908842Y+103092D01*
X+1956092Y+125462D01*
X+1966801Y+129295D01*
X+1966801Y-645399D01*
X+2373199Y-645399D01*
X+2373199Y+1437399D01*
X+1966801Y+1437399D01*
X+1966801Y+342978D01*
X+1946990Y+338023D01*
X+1878204Y+313405D01*
X+1812854Y+282465D01*
X+1751346Y+245555D01*
X+1747343Y+242584D01*
X+1725481Y+226355D01*
X+1694047Y+203022D01*
X+1690358Y+199678D01*
X+1641310Y+155211D01*
X+1593499Y+102474D01*
X+1590533Y+98479D01*
X+1570166Y+71040D01*
X+1550966Y+45175D01*
X+1548399Y+40898D01*
X+1514056Y-16333D01*
X+1483116Y-81683D01*
X+1458498Y-150469D01*
X+1440528Y-222323D01*
X+1439797Y-227271D01*
X+1429528Y-296808D01*
X+1425922Y-331395D01*
X+1425922Y-811043D01*
X+1414246Y-799367D01*
X+1414246Y-244582D01*
X+1408564Y-238900D01*
X+1407884Y-236653D01*
X+1399213Y-208017D01*
X+1380611Y-173233D01*
X+1355753Y-142956D01*
X+1325480Y-118102D01*
X+1290690Y-99494D01*
X+1259809Y-90145D01*
X+1254127Y-84463D01*
X+973199Y-84463D01*
X+973199Y+1450183D01*
X+4313676Y+1450183D01*
X+4326376Y+1437483D01*
X+4421064Y+1437483D01*
X+4488019Y+1504438D01*
X+4488019Y+1599126D01*
X+4421064Y+1666081D01*
X+4326376Y+1666081D01*
X+4313676Y+1653381D01*
X+2594933Y+1653381D01*
X+2594933Y+2031481D01*
X+2597627Y+2092013D01*
X+2601332Y+2104249D01*
X+2607992Y+2116702D01*
X+2616745Y+2127362D01*
X+2625601Y+2134633D01*
X+2625601Y+1759801D01*
X+4708399Y+1759801D01*
X+4708399Y+2085556D01*
X+4731498Y+2104521D01*
X+4760092Y+2119813D01*
X+4790657Y+2129068D01*
X+4870220Y+2133537D01*
X+4894980Y+2133537D01*
X+4858454Y+2089050D01*
X+4823121Y+2022985D01*
X+4801015Y+1949970D01*
X+4793904Y+1914053D01*
X+4793904Y+1829885D01*
X+4793905Y+1633116D01*
X+4793904Y+1436347D01*
X+4790479Y+1367941D01*
X+4784465Y+1348080D01*
X+4774223Y+1328929D01*
X+4760710Y+1312471D01*
X+4744244Y+1298951D01*
X+4725097Y+1288712D01*
X+4705236Y+1282698D01*
X+4636830Y+1279273D01*
X+4571594Y+1279273D01*
X+4558894Y+1291973D01*
X+4464206Y+1291973D01*
X+4397251Y+1225018D01*
X+4397251Y+1130330D01*
X+4464206Y+1063375D01*
X+4558894Y+1063375D01*
X+4571594Y+1076075D01*
X+4720998Y+1076075D01*
X+4743028Y+1081835D01*
X+4752638Y+1084744D01*
X+4803206Y+1100053D01*
X+4820060Y+1109067D01*
X+4857723Y+1129209D01*
X+4905081Y+1168094D01*
X+4943970Y+1215458D01*
X+4973120Y+1269965D01*
X+4976032Y+1279581D01*
X+4991341Y+1330143D01*
X+4997102Y+1352179D01*
X+4997102Y+1436347D01*
X+4997101Y+1633116D01*
X+4997102Y+1829885D01*
X+5001805Y+1911934D01*
X+5011781Y+1944883D01*
X+5028194Y+1975571D01*
X+5049927Y+2002041D01*
X+5076395Y+2023773D01*
X+5107090Y+2040189D01*
X+5140034Y+2050163D01*
X+5173603Y+2052088D01*
X+5152901Y+2031386D01*
X+5152901Y+1894614D01*
X+5211515Y+1836000D01*
X+5152901Y+1777386D01*
X+5152901Y+1640614D01*
X+5211515Y+1582000D01*
X+5152901Y+1523386D01*
X+5152901Y+1386614D01*
X+5211515Y+1328000D01*
X+5152901Y+1269386D01*
X+5152901Y+1132614D01*
X+5211515Y+1074000D01*
X+5152901Y+1015386D01*
X+5152901Y+878614D01*
X+5211515Y+820000D01*
X+5152901Y+761386D01*
X+5152901Y+624614D01*
X+5211515Y+566000D01*
X+5152901Y+507386D01*
X+5152901Y+370614D01*
X+5211515Y+312000D01*
X+5152901Y+253386D01*
X+5152901Y+116614D01*
X+5211515Y+58000D01*
X+5152901Y-614D01*
X+5152901Y-137386D01*
X+5211515Y-196000D01*
X+5186114Y-221401D01*
X+4266043Y-221401D01*
X+4244812Y-227083D01*
X+4235199Y-229993D01*
X+4185361Y-245082D01*
X+4131521Y-273879D01*
X+4123787Y-280228D01*
X+4084733Y-312292D01*
X+4046320Y-359077D01*
X+4017520Y-412928D01*
X+3999524Y-472368D01*
X+3993842Y-493602D01*
X+3990086Y-565562D01*
X+3983036Y-588844D01*
X+3971182Y-611009D01*
X+3955522Y-630081D01*
X+3936450Y-645741D01*
X+3914285Y-657595D01*
X+3891003Y-664645D01*
X+3819043Y-668401D01*
X+2960191Y-668401D01*
X+2947491Y-655701D01*
X+2852803Y-655701D01*
X+2785848Y-722656D01*
X+2785848Y-817344D01*
X+2852803Y-884299D01*
X+2947491Y-884299D01*
X+2960191Y-871599D01*
X+3903211Y-871599D01*
X+3928868Y-865487D01*
X+3992400Y-846250D01*
X+4001256Y-841514D01*
X+4049922Y-815487D01*
X+4099896Y-774455D01*
X+4140928Y-724481D01*
X+4171691Y-666959D01*
X+4174603Y-657343D01*
X+4190928Y-603427D01*
X+4197040Y-577770D01*
X+4200392Y-510148D01*
X+4206178Y-491037D01*
X+4216062Y-472555D01*
X+4229108Y-456666D01*
X+4244994Y-443623D01*
X+4263484Y-433734D01*
X+4282584Y-427951D01*
X+4350211Y-424599D01*
X+5186114Y-424599D01*
X+5211515Y-450000D01*
X+5152901Y-508614D01*
X+5152901Y-645386D01*
X+5211515Y-704000D01*
X+5152901Y-762614D01*
X+5152901Y-899386D01*
X+5211515Y-958000D01*
X+5152901Y-1016614D01*
X+5152901Y-1153386D01*
X+5211515Y-1212000D01*
X+5152901Y-1270614D01*
X+5152901Y-1407386D01*
X+5211515Y-1466000D01*
X+5152901Y-1524614D01*
X+5152901Y-1661386D01*
X+5211515Y-1720000D01*
X+5152901Y-1778614D01*
X+5152901Y-1787583D01*
X+5123889Y-1803100D01*
X+5116158Y-1809447D01*
X+5072528Y-1845269D01*
X+5030359Y-1896630D01*
X+4998735Y-1955759D01*
X+4978960Y-2021077D01*
X+4972660Y-2048657D01*
X+4972660Y-2577557D01*
X+4982388Y-2594966D01*
X+5015690Y-2644842D01*
X+5038094Y-2659801D01*
X+3159001Y-2659801D01*
X+3159001Y-3066199D01*
X+5241799Y-3066199D01*
X+5241799Y-2752453D01*
X+5251347Y-2770306D01*
X+5258673Y-2794501D01*
X+5261894Y-2855560D01*
X+5249819Y-2867635D01*
X+5249819Y-2962323D01*
X+5316774Y-3029278D01*
X+5411462Y-3029278D01*
X+5478417Y-2962323D01*
X+5478417Y-2867635D01*
X+5465717Y-2854935D01*
X+5465717Y-2783248D01*
X+5459510Y-2756622D01*
X+5440003Y-2692194D01*
X+5435265Y-2683334D01*
X+5408806Y-2633862D01*
X+5367202Y-2583189D01*
X+5316529Y-2541585D01*
X+5276355Y-2520099D01*
X+5386386Y-2520099D01*
X+5445000Y-2461485D01*
X+5503614Y-2520099D01*
X+5640386Y-2520099D01*
X+5670911Y-2489574D01*
X+5670911Y-2675641D01*
X+5658211Y-2688341D01*
X+5658211Y-2783029D01*
X+5725166Y-2849984D01*
X+5800402Y-2849984D01*
X+5800402Y-3054150D01*
X+5787702Y-3066850D01*
X+5787702Y-3156530D01*
X-131433Y-3156530D01*
X-136409Y-3156214D01*
X-136725Y-3151238D01*
X-136725Y-3066199D01*
X+644399Y-3066199D01*
X+644399Y-2659801D01*
X-1438399Y-2659801D01*
X-1438399Y-3066199D01*
X-390723Y-3066199D01*
X-390723Y-3256448D01*
X-377312Y-3284581D01*
X-332257Y-3352062D01*
X-264776Y-3397117D01*
X-236643Y-3410528D01*
X+5658211Y-3410528D01*
X+5658211Y-3420353D01*
X+5609900Y-3421984D01*
X-356766Y-3421984D01*
X-368640Y-3382767D01*
X-389872Y-3343065D01*
X-418222Y-3308536D01*
X-452751Y-3280186D01*
X-492447Y-3258957D01*
X-536165Y-3245720D01*
X-540385Y-3241694D01*
X-910896Y-3241694D01*
X-923596Y-3228994D01*
X-1018284Y-3228994D01*
X-1085239Y-3295949D01*
X-1085239Y-3390637D01*
X-1018284Y-3457592D01*
X-923596Y-3457592D01*
X-910896Y-3444892D01*
X-624553Y-3444892D01*
X-573518Y-3446715D01*
X-570568Y-3447609D01*
X-566224Y-3449932D01*
X-562596Y-3452910D01*
X-559618Y-3456538D01*
X-557298Y-3460876D01*
X-556402Y-3463835D01*
X-554578Y-3514867D01*
X-544850Y-3532276D01*
X-511548Y-3582152D01*
X-464389Y-3613640D01*
X-5083640Y-3613640D01*
X-5083640Y+5513640D01*
X+7743640Y+5513640D01*
X+7743640Y-3613640D01*
X+2930399Y-3066199D02*
X+847601Y-3066199D01*
X+847601Y-2659801D01*
X+2930399Y-2659801D01*
X+2930399Y-3066199D01*
X+2373199Y-1153399D02*
X+2373199Y-2390491D01*
X+3712218Y-2390491D01*
X+3801356Y-2385871D01*
X+3829688Y-2377293D01*
X+3856702Y-2362845D01*
X+3879953Y-2343755D01*
X+3899040Y-2320509D01*
X+3913490Y-2293490D01*
X+3922067Y-2265160D01*
X+3926687Y-2176022D01*
X+3926687Y-1801975D01*
X+3819401Y-1694689D01*
X+3819401Y-1505311D01*
X+3953311Y-1371401D01*
X+4142689Y-1371401D01*
X+4276599Y-1505311D01*
X+4276599Y-1694689D01*
X+4180685Y-1790603D01*
X+4180685Y-2281232D01*
X+4173124Y-2312482D01*
X+4149313Y-2391127D01*
X+4143390Y-2402203D01*
X+4111223Y-2462350D01*
X+4060419Y-2524225D01*
X+3998548Y-2575025D01*
X+3927323Y-2613117D01*
X+3848678Y-2636928D01*
X+3817428Y-2644489D01*
X+126336Y-2644489D01*
X+93026Y-2636727D01*
X+81015Y-2633091D01*
X+12471Y-2612337D01*
X+1399Y-2606416D01*
X-60464Y-2573331D01*
X-123819Y-2521313D01*
X-131741Y-2511665D01*
X-175842Y-2457952D01*
X-214848Y-2385017D01*
X-239237Y-2304465D01*
X-246999Y-2271154D01*
X-246999Y-1912605D01*
X-250893Y-1831252D01*
X-257197Y-1810433D01*
X-268112Y-1790023D01*
X-282500Y-1772500D01*
X-300023Y-1758112D01*
X-320433Y-1747197D01*
X-332312Y-1743600D01*
X-427311Y-1838599D01*
X-616689Y-1838599D01*
X-750599Y-1704689D01*
X-750599Y-1515311D01*
X-616689Y-1381401D01*
X-427311Y-1381401D01*
X-325711Y-1483001D01*
X-317395Y-1483001D01*
X-294093Y-1489788D01*
X-277828Y-1494713D01*
X-222790Y-1511377D01*
X-158178Y-1545933D01*
X-102032Y-1592032D01*
X-55933Y-1648178D01*
X-21377Y-1712790D01*
X+212Y-1784093D01*
X+6999Y-1807395D01*
X+6999Y-2165944D01*
X+11807Y-2257106D01*
X+20974Y-2287378D01*
X+36341Y-2316113D01*
X+56644Y-2340841D01*
X+81380Y-2361151D01*
X+110112Y-2376517D01*
X+140383Y-2385682D01*
X+231546Y-2390491D01*
X+1966801Y-2390491D01*
X+1966801Y-848601D01*
X+2373199Y-848601D01*
X+2373199Y-1153399D01*
X-3852801Y+1168601D02*
X-3852801Y-609399D01*
X-4259199Y-609399D01*
X-4259199Y+1473399D01*
X-3852801Y+1473399D01*
X-3852801Y+1168601D01*
X+4135799Y+3013647D02*
X+4135799Y+2866353D01*
X+4031647Y+2762201D01*
X+3884353Y+2762201D01*
X+3831000Y+2815554D01*
X+3777647Y+2762201D01*
X+3630353Y+2762201D01*
X+3577000Y+2815554D01*
X+3523647Y+2762201D01*
X+3376353Y+2762201D01*
X+3272201Y+2866353D01*
X+3272201Y+3013647D01*
X+3376353Y+3117799D01*
X+3523647Y+3117799D01*
X+3577000Y+3064446D01*
X+3630353Y+3117799D01*
X+3777647Y+3117799D01*
X+3831000Y+3064446D01*
X+3884353Y+3117799D01*
X+4031647Y+3117799D01*
X+4135799Y+3013647D01*
X-994201Y+3003647D02*
X-994201Y+2856353D01*
X-1098353Y+2752201D01*
X-1245647Y+2752201D01*
X-1299000Y+2805554D01*
X-1352353Y+2752201D01*
X-1499647Y+2752201D01*
X-1553000Y+2805554D01*
X-1606353Y+2752201D01*
X-1753647Y+2752201D01*
X-1857799Y+2856353D01*
X-1857799Y+3003647D01*
X-1753647Y+3107799D01*
X-1606353Y+3107799D01*
X-1553000Y+3054446D01*
X-1499647Y+3107799D01*
X-1352353Y+3107799D01*
X-1299000Y+3054446D01*
X-1245647Y+3107799D01*
X-1098353Y+3107799D01*
X-994201Y+3003647D01*
X-2254201Y+3003647D02*
X-2254201Y+2856353D01*
X-2358353Y+2752201D01*
X-2505647Y+2752201D01*
X-2559000Y+2805554D01*
X-2612353Y+2752201D01*
X-2759647Y+2752201D01*
X-2813000Y+2805554D01*
X-2866353Y+2752201D01*
X-3013647Y+2752201D01*
X-3117799Y+2856353D01*
X-3117799Y+3003647D01*
X-3013647Y+3107799D01*
X-2866353Y+3107799D01*
X-2813000Y+3054446D01*
X-2759647Y+3107799D01*
X-2612353Y+3107799D01*
X-2559000Y+3054446D01*
X-2505647Y+3107799D01*
X-2358353Y+3107799D01*
X-2254201Y+3003647D01*
X-3572201Y+2993647D02*
X-3572201Y+2846353D01*
X-3676353Y+2742201D01*
X-3823647Y+2742201D01*
X-3877000Y+2795554D01*
X-3930353Y+2742201D01*
X-4077647Y+2742201D01*
X-4131000Y+2795554D01*
X-4184353Y+2742201D01*
X-4331647Y+2742201D01*
X-4435799Y+2846353D01*
X-4435799Y+2993647D01*
X-4331647Y+3097799D01*
X-4184353Y+3097799D01*
X-4131000Y+3044446D01*
X-4077647Y+3097799D01*
X-3930353Y+3097799D01*
X-3877000Y+3044446D01*
X-3823647Y+3097799D01*
X-3676353Y+3097799D01*
X-3572201Y+2993647D01*
X-1258599Y-1704689D02*
X-1258599Y-1515311D01*
X-1124689Y-1381401D01*
X-935311Y-1381401D01*
X-801401Y-1515311D01*
X-801401Y-1704689D01*
X-935311Y-1838599D01*
X-1124689Y-1838599D01*
X-1258599Y-1704689D01*
X-588599Y+3965311D02*
X-588599Y+4154689D01*
X-454689Y+4288599D01*
X-265311Y+4288599D01*
X-131401Y+4154689D01*
X-131401Y+3965311D01*
X-265311Y+3831401D01*
X-454689Y+3831401D01*
X-588599Y+3965311D01*
X-80599Y+3965311D02*
X-80599Y+4154689D01*
X+53311Y+4288599D01*
X+242689Y+4288599D01*
X+376599Y+4154689D01*
X+376599Y+3965311D01*
X+242689Y+3831401D01*
X+53311Y+3831401D01*
X-80599Y+3965311D01*
X-2958599Y-1724689D02*
X-2958599Y-1535311D01*
X-2824689Y-1401401D01*
X-2635311Y-1401401D01*
X-2501401Y-1535311D01*
X-2501401Y-1724689D01*
X-2635311Y-1858599D01*
X-2824689Y-1858599D01*
X-2958599Y-1724689D01*
X-2450599Y-1724689D02*
X-2450599Y-1535311D01*
X-2316689Y-1401401D01*
X-2127311Y-1401401D01*
X-1993401Y-1535311D01*
X-1993401Y-1724689D01*
X-2127311Y-1858599D01*
X-2316689Y-1858599D01*
X-2450599Y-1724689D01*
X+3311401Y-1694689D02*
X+3311401Y-1505311D01*
X+3445311Y-1371401D01*
X+3634689Y-1371401D01*
X+3768599Y-1505311D01*
X+3768599Y-1694689D01*
X+3634689Y-1828599D01*
X+3445311Y-1828599D01*
X+3311401Y-1694689D01*
X-3498643Y+5381899D02*
X-3440528Y+5364305D01*
X-3387761Y+5336084D01*
X-3341884Y+5298417D01*
X-3325894Y+5278941D01*
X-3304218Y+5252541D01*
X-3276000Y+5199778D01*
X-3258699Y+5142636D01*
X-3258699Y+5288699D01*
X-2881301Y+5288699D01*
X-2881301Y+4911301D01*
X-3195030Y+4911301D01*
X-3174141Y+4885859D01*
X-3132075Y+4851321D01*
X-3112487Y+4839567D01*
X-3088735Y+4828321D01*
X-3063569Y+4819315D01*
X-3037046Y+4812681D01*
X-3010530Y+4808765D01*
X-2927395Y+4806999D01*
X-2586486Y+4806999D01*
X-2548386Y+4845099D01*
X-2411614Y+4845099D01*
X-2373514Y+4806999D01*
X-1196486Y+4806999D01*
X-1158386Y+4845099D01*
X-1050138Y+4845099D01*
X-1018964Y+4857944D01*
X-978546Y+4802031D01*
X-924901Y+4748386D01*
X-924901Y+4727820D01*
X-892189Y+4682567D01*
X-924901Y+4649855D01*
X-924901Y+4611614D01*
X-1021614Y+4514901D01*
X-1158386Y+4514901D01*
X-1196486Y+4553001D01*
X-2373514Y+4553001D01*
X-2411614Y+4514901D01*
X-2548386Y+4514901D01*
X-2586486Y+4553001D01*
X-3032605Y+4553001D01*
X-3035272Y+4555668D01*
X-3040124Y+4556384D01*
X-3086525Y+4563236D01*
X-3137361Y+4575951D01*
X-3186107Y+4593396D01*
X-3232457Y+4615341D01*
X-3237819Y+4618558D01*
X-3278804Y+4643151D01*
X-3354609Y+4705391D01*
X-3416849Y+4781196D01*
X-3444659Y+4827543D01*
X-3450114Y+4839063D01*
X-3466604Y+4873893D01*
X-3484049Y+4922639D01*
X-3496764Y+4973475D01*
X-3504332Y+5024728D01*
X-3506999Y+5027395D01*
X-3509612Y+5094847D01*
X-3511820Y+5102137D01*
X-3516397Y+5110696D01*
X-3522353Y+5117950D01*
X-3529608Y+5123907D01*
X-3538160Y+5128480D01*
X-3545457Y+5130690D01*
X-3612907Y+5133303D01*
X-3674179Y+5133303D01*
X-3742207Y+5130637D01*
X-3750072Y+5128255D01*
X-3759121Y+5123416D01*
X-3766805Y+5117107D01*
X-3773114Y+5109423D01*
X-3777953Y+5100374D01*
X-3780335Y+5092509D01*
X-3783001Y+5024481D01*
X-3783001Y+4856199D01*
X-3591301Y+4856199D01*
X-3591301Y+4503801D01*
X-4293001Y+4503801D01*
X-4293001Y+4054447D01*
X-4232201Y+3993647D01*
X-4232201Y+3846353D01*
X-4285554Y+3793000D01*
X-4232201Y+3739647D01*
X-4232201Y+3592353D01*
X-4336353Y+3488201D01*
X-4483647Y+3488201D01*
X-4587799Y+3592353D01*
X-4587799Y+3739647D01*
X-4534446Y+3793000D01*
X-4550163Y+3808717D01*
X-4624613Y+3808717D01*
X-4641972Y+3807430D01*
X-4643259Y+3790071D01*
X-4643259Y+1969347D01*
X-4639169Y+1885891D01*
X-4632248Y+1863032D01*
X-4620378Y+1840838D01*
X-4604723Y+1821771D01*
X-4585646Y+1806108D01*
X-4563451Y+1794238D01*
X-4540596Y+1787318D01*
X-4457140Y+1783228D01*
X-3965459Y+1783227D01*
X-3368569Y+1783228D01*
X-3342980Y+1776218D01*
X-3269570Y+1753992D01*
X-3203053Y+1718417D01*
X-3193387Y+1710481D01*
X-3145262Y+1670968D01*
X-3097810Y+1613172D01*
X-3062239Y+1546662D01*
X-3040011Y+1473244D01*
X-3033001Y+1447660D01*
X-3033001Y+237395D01*
X-3107395Y+163001D01*
X-3212605Y+163001D01*
X-3286999Y+237395D01*
X-3286999Y+1342450D01*
X-3291102Y+1426042D01*
X-3298058Y+1449018D01*
X-3309992Y+1471333D01*
X-3325728Y+1490498D01*
X-3344899Y+1506238D01*
X-3367205Y+1518168D01*
X-3390191Y+1525128D01*
X-3473779Y+1529230D01*
X-3965459Y+1529231D01*
X-4562350Y+1529230D01*
X-4587802Y+1536227D01*
X-4661089Y+1558415D01*
X-4727491Y+1593929D01*
X-4785182Y+1641294D01*
X-4832559Y+1698997D01*
X-4868074Y+1765404D01*
X-4890260Y+1838683D01*
X-4897257Y+1864137D01*
X-4897257Y+3895281D01*
X-4882816Y+3928669D01*
X-4834931Y+4000389D01*
X-4763211Y+4048274D01*
X-4729823Y+4062715D01*
X-4546999Y+4062715D01*
X-4546999Y+4503801D01*
X-4568699Y+4503801D01*
X-4568699Y+4856199D01*
X-4036999Y+4856199D01*
X-4036999Y+5129691D01*
X-4031539Y+5139342D01*
X-4027904Y+5151349D01*
X-4013777Y+5198009D01*
X-3985292Y+5251270D01*
X-3947273Y+5297575D01*
X-3900968Y+5335594D01*
X-3847707Y+5364079D01*
X-3789040Y+5381841D01*
X-3779389Y+5387301D01*
X-3507697Y+5387301D01*
X-3498643Y+5381899D01*
X-278699Y+5021838D02*
X-278699Y+5178162D01*
X-168162Y+5288699D01*
X-11838Y+5288699D01*
X+98699Y+5178162D01*
X+98699Y+5021838D01*
X-11838Y+4911301D01*
X-168162Y+4911301D01*
X-278699Y+5021838D01*
X-2645710Y+3796998D02*
X-2580487Y+3796998D01*
X-2548386Y+3829099D01*
X-2411614Y+3829099D01*
X-2359514Y+3776999D01*
X-2154447Y+3776999D01*
X-2103647Y+3827799D01*
X-1956353Y+3827799D01*
X-1903000Y+3774446D01*
X-1849647Y+3827799D01*
X-1702353Y+3827799D01*
X-1598201Y+3723647D01*
X-1598201Y+3576353D01*
X-1702353Y+3472201D01*
X-1849647Y+3472201D01*
X-1903000Y+3525554D01*
X-1956353Y+3472201D01*
X-2103647Y+3472201D01*
X-2154447Y+3523001D01*
X-2387514Y+3523001D01*
X-2411614Y+3498901D01*
X-2548386Y+3498901D01*
X-2592487Y+3543002D01*
X-2645710Y+3543002D01*
X-2747311Y+3441401D01*
X-2936689Y+3441401D01*
X-3070599Y+3575311D01*
X-3070599Y+3764689D01*
X-2936689Y+3898599D01*
X-2747311Y+3898599D01*
X-2645710Y+3796998D01*
X-1158386Y+3829099D02*
X-1021614Y+3829099D01*
X-924901Y+3732386D01*
X-924901Y+3595614D01*
X-1021614Y+3498901D01*
X-1158386Y+3498901D01*
X-1255099Y+3595614D01*
X-1255099Y+3732386D01*
X-1158386Y+3829099D01*
X-3578599Y+3575311D02*
X-3578599Y+3764689D01*
X-3444689Y+3898599D01*
X-3255311Y+3898599D01*
X-3121401Y+3764689D01*
X-3121401Y+3575311D01*
X-3255311Y+3441401D01*
X-3444689Y+3441401D01*
X-3578599Y+3575311D01*
X-1599783Y+1132117D02*
X-1599783Y+1168941D01*
X-1573745Y+1194979D01*
X-1536921Y+1194979D01*
X-1510883Y+1168941D01*
X-1510883Y+1132117D01*
X-1536921Y+1106079D01*
X-1573745Y+1106079D01*
X-1599783Y+1132117D01*
X+7006366Y+4655558D02*
X+7040818Y+4650471D01*
X+7074901Y+4641945D01*
X+7107287Y+4630355D01*
X+7137875Y+4615873D01*
X+7166580Y+4598648D01*
X+7193269Y+4578837D01*
X+7217807Y+4556590D01*
X+7240054Y+4532052D01*
X+7259870Y+4505357D01*
X+7277088Y+4476665D01*
X+7291572Y+4446071D01*
X+7303162Y+4413684D01*
X+7311688Y+4379601D01*
X+7316775Y+4345149D01*
X+7318923Y+4253983D01*
X+7318923Y-2932100D01*
X+7314116Y-3023240D01*
X+7304959Y-3053485D01*
X+7289599Y-3082205D01*
X+7269309Y-3106916D01*
X+7244598Y-3127206D01*
X+7215878Y-3142566D01*
X+7185633Y-3151723D01*
X+7094493Y-3156530D01*
X+6016300Y-3156530D01*
X+6016300Y-3066850D01*
X+6003600Y-3054150D01*
X+6003600Y-2496905D01*
X+6016300Y-2484205D01*
X+6016300Y-2389517D01*
X+5949345Y-2322562D01*
X+5874109Y-2322562D01*
X+5874109Y-1916659D01*
X+5869099Y-1911649D01*
X+5858215Y-1875706D01*
X+5838600Y-1839029D01*
X+5812397Y-1807114D01*
X+5780477Y-1780908D01*
X+5743804Y-1761295D01*
X+5709345Y-1750860D01*
X+5678485Y-1720000D01*
X+5737099Y-1661386D01*
X+5737099Y-1524614D01*
X+5678485Y-1466000D01*
X+5737099Y-1407386D01*
X+5737099Y-1270614D01*
X+5678485Y-1212000D01*
X+5737099Y-1153386D01*
X+5737099Y-1016614D01*
X+5678485Y-958000D01*
X+5737099Y-899386D01*
X+5737099Y-762614D01*
X+5678485Y-704000D01*
X+5737099Y-645386D01*
X+5737099Y-508614D01*
X+5678485Y-450000D01*
X+5737099Y-391386D01*
X+5737099Y-254614D01*
X+5678485Y-196000D01*
X+5703886Y-170599D01*
X+5776916Y-170599D01*
X+5846203Y-174106D01*
X+5866921Y-180379D01*
X+5886818Y-191020D01*
X+5903931Y-205071D01*
X+5917980Y-222181D01*
X+5928621Y-242078D01*
X+5934894Y-262796D01*
X+5938401Y-332084D01*
X+5938401Y-2106443D01*
X+5944314Y-2130058D01*
X+5962978Y-2191695D01*
X+5967716Y-2200555D01*
X+5992836Y-2247524D01*
X+5999183Y-2255255D01*
X+6032654Y-2296022D01*
X+6081158Y-2335846D01*
X+6136985Y-2365702D01*
X+6152397Y-2370369D01*
X+6198621Y-2384365D01*
X+6222236Y-2390278D01*
X+6792801Y-2390278D01*
X+6792801Y-2423399D01*
X+7199199Y-2423399D01*
X+7199199Y-340601D01*
X+6792801Y-340601D01*
X+6792801Y-1421819D01*
X+6763251Y-1420251D01*
X+6738501Y-1412757D01*
X+6715049Y-1400215D01*
X+6694858Y-1383637D01*
X+6678280Y-1363445D01*
X+6665734Y-1339988D01*
X+6658243Y-1315246D01*
X+6654344Y-1241760D01*
X+6654344Y+330621D01*
X+6651939Y+340482D01*
X+6651211Y+345414D01*
X+6644476Y+391024D01*
X+6640147Y+408329D01*
X+6632260Y+439865D01*
X+6615509Y+486668D01*
X+6594451Y+531146D01*
X+6568026Y+575182D01*
X+6563281Y+580962D01*
X+6508017Y+648272D01*
X+6494526Y+659348D01*
X+6434927Y+708281D01*
X+6390890Y+734708D01*
X+6346411Y+755765D01*
X+6299610Y+772515D01*
X+6268074Y+780402D01*
X+6250769Y+784731D01*
X+6200227Y+792194D01*
X+6190366Y+794599D01*
X+5703886Y+794599D01*
X+5678485Y+820000D01*
X+5737099Y+878614D01*
X+5737099Y+1015386D01*
X+5678485Y+1074000D01*
X+5737099Y+1132614D01*
X+5737099Y+1269386D01*
X+5678485Y+1328000D01*
X+5737099Y+1386614D01*
X+5737099Y+1523386D01*
X+5678485Y+1582000D01*
X+5737099Y+1640614D01*
X+5737099Y+1777386D01*
X+5678485Y+1836000D01*
X+5737099Y+1894614D01*
X+5737099Y+2031386D01*
X+5713618Y+2054867D01*
X+5715635Y+2054867D01*
X+5808654Y+2049127D01*
X+5852025Y+2035996D01*
X+5891970Y+2014632D01*
X+5926445Y+1986326D01*
X+5954757Y+1951845D01*
X+5976119Y+1911902D01*
X+5989250Y+1868531D01*
X+5994990Y+1775512D01*
X+5999574Y+1765558D01*
X+6014413Y+1716546D01*
X+6038194Y+1672080D01*
X+6069935Y+1633423D01*
X+6108592Y+1601682D01*
X+6153058Y+1577901D01*
X+6202070Y+1563062D01*
X+6212024Y+1558478D01*
X+6792801Y+1558478D01*
X+6792801Y-28999D01*
X+7199199Y-28999D01*
X+7199199Y+2561799D01*
X+6792801Y+2561799D01*
X+6792801Y+1968420D01*
X+6461826Y+1968420D01*
X+6449126Y+1981120D01*
X+6354438Y+1981120D01*
X+6287483Y+1914165D01*
X+6287483Y+1819477D01*
X+6345284Y+1761676D01*
X+6296192Y+1761676D01*
X+6239588Y+1764009D01*
X+6231173Y+1766556D01*
X+6222069Y+1771425D01*
X+6214309Y+1777797D01*
X+6207937Y+1785557D01*
X+6203068Y+1794661D01*
X+6200521Y+1803076D01*
X+6198188Y+1859680D01*
X+6189996Y+1906710D01*
X+6164773Y+1990018D01*
X+6124500Y+2065320D01*
X+6070824Y+2130695D01*
X+6030197Y+2164051D01*
X+6043851Y+2168185D01*
X+6121872Y+2209912D01*
X+6129608Y+2216263D01*
X+6189609Y+2265527D01*
X+6245224Y+2333264D01*
X+6249942Y+2342085D01*
X+6286951Y+2411285D01*
X+6313088Y+2497614D01*
X+6321599Y+2547916D01*
X+6321599Y+2719061D01*
X+6395220Y+2719061D01*
X+6462175Y+2786016D01*
X+6462175Y+2880704D01*
X+6449475Y+2893404D01*
X+6449475Y+3865946D01*
X+6445944Y+3898974D01*
X+6445216Y+3903905D01*
X+6435171Y+3971933D01*
X+6417565Y+4042322D01*
X+6393441Y+4109726D01*
X+6363131Y+4173745D01*
X+6326964Y+4234014D01*
X+6285294Y+4290151D01*
X+6238450Y+4341819D01*
X+6234764Y+4345161D01*
X+6186782Y+4388663D01*
X+6182784Y+4391631D01*
X+6130645Y+4430333D01*
X+6126361Y+4432903D01*
X+6126362Y+4432904D01*
X+6070376Y+4466500D01*
X+6065855Y+4468641D01*
X+6006357Y+4496810D01*
X+6001636Y+4498500D01*
X+5938953Y+4520934D01*
X+5868564Y+4538540D01*
X+5795605Y+4549313D01*
X+5762577Y+4552844D01*
X+4154050Y+4552844D01*
X+4077636Y+4559015D01*
X+4064084Y+4561599D01*
X+2187916Y+4561599D01*
X+2156193Y+4554896D01*
X+2146580Y+4551986D01*
X+2087048Y+4533962D01*
X+2024473Y+4500495D01*
X+1970125Y+4455875D01*
X+1925505Y+4401527D01*
X+1920786Y+4392704D01*
X+1892038Y+4338952D01*
X+1871104Y+4269807D01*
X+1864401Y+4238084D01*
X+1864401Y+4213199D01*
X+1330999Y+4213199D01*
X+1330999Y+4377001D01*
X+1336868Y+4479456D01*
X+1349306Y+4520537D01*
X+1369780Y+4558819D01*
X+1396880Y+4591825D01*
X+1429886Y+4618925D01*
X+1468166Y+4639398D01*
X+1509249Y+4651837D01*
X+1611704Y+4657706D01*
X+6915200Y+4657706D01*
X+7006366Y+4655558D01*
D22*
X-1032000Y-3066199D02*
X-1032000Y-2863000D01*
X-1032000Y-2659801D02*
X-1032000Y-2863000D01*
X-778000Y-3066199D02*
X-778000Y-2863000D01*
X-778000Y-2659801D02*
X-778000Y-2863000D01*
X-1438400Y+1759801D02*
X-1438400Y+1963000D01*
X-1438400Y+2166199D02*
X-1438400Y+1963000D01*
X+2373199Y-239000D02*
X+2170000Y-239000D01*
X+1966801Y-239000D02*
X+2170000Y-239000D01*
X+2373199Y+15000D02*
X+2170000Y+15000D01*
X+1966801Y+15000D02*
X+2170000Y+15000D01*
X+7199199Y+885400D02*
X+6996000Y+885400D01*
X+6792801Y+885400D02*
X+6996000Y+885400D01*
X+566801Y-711000D02*
X+770000Y-711000D01*
X+973199Y-711000D02*
X+770000Y-711000D01*
X+566801Y-965000D02*
X+770000Y-965000D01*
X+973199Y-965000D02*
X+770000Y-965000D01*
X-4259199Y-1625400D02*
X-4056000Y-1625400D01*
X-3852801Y-1625400D02*
X-4056000Y-1625400D01*
X+1458000Y+3806801D02*
X+1458000Y+4010000D01*
X+1458000Y+4213199D02*
X+1458000Y+4010000D01*
X+3954000Y+3816801D02*
X+3954000Y+4020000D01*
X+3954000Y+4223199D02*
X+3954000Y+4020000D01*
X+4716000Y+3816801D02*
X+4716000Y+4020000D01*
X+4716000Y+4223199D02*
X+4716000Y+4020000D01*
X+5435799Y+2940000D02*
X+5258000Y+2940000D01*
X+5258000Y+2762201D02*
X+5258000Y+2940000D01*
X+5258000Y+3117799D02*
X+5258000Y+2940000D01*
X+4135799Y+2940000D02*
X+3958000Y+2940000D01*
X+3958000Y+2762201D02*
X+3958000Y+2940000D01*
X+3958000Y+3117799D02*
X+3958000Y+2940000D01*
X+2825799Y+2930000D02*
X+2648000Y+2930000D01*
X+2648000Y+2752201D02*
X+2648000Y+2930000D01*
X+2648000Y+3107799D02*
X+2648000Y+2930000D01*
X+1555799Y+2930000D02*
X+1378000Y+2930000D01*
X+1378000Y+2752201D02*
X+1378000Y+2930000D01*
X+1378000Y+3107799D02*
X+1378000Y+2930000D01*
X+275799Y+2920000D02*
X+98000Y+2920000D01*
X+98000Y+2742201D02*
X+98000Y+2920000D01*
X+98000Y+3097799D02*
X+98000Y+2920000D01*
X-994201Y+2930000D02*
X-1172000Y+2930000D01*
X-1172000Y+2752201D02*
X-1172000Y+2930000D01*
X-1172000Y+3107799D02*
X-1172000Y+2930000D01*
X-2254201Y+2930000D02*
X-2432000Y+2930000D01*
X-2432000Y+2752201D02*
X-2432000Y+2930000D01*
X-2432000Y+3107799D02*
X-2432000Y+2930000D01*
X-3572201Y+2920000D02*
X-3750000Y+2920000D01*
X-3750000Y+2742201D02*
X-3750000Y+2920000D01*
X-3750000Y+3097799D02*
X-3750000Y+2920000D01*
X-1258599Y-1610000D02*
X-1030000Y-1610000D01*
X-801401Y-1610000D02*
X-1030000Y-1610000D01*
X-1030000Y-1838599D02*
X-1030000Y-1610000D01*
X-1030000Y-1381401D02*
X-1030000Y-1610000D01*
X-80599Y+4060000D02*
X+148000Y+4060000D01*
X+376599Y+4060000D02*
X+148000Y+4060000D01*
X+148000Y+3831401D02*
X+148000Y+4060000D01*
X+148000Y+4288599D02*
X+148000Y+4060000D01*
X-2450599Y-1630000D02*
X-2222000Y-1630000D01*
X-1993401Y-1630000D02*
X-2222000Y-1630000D01*
X-2222000Y-1858599D02*
X-2222000Y-1630000D01*
X-2222000Y-1401401D02*
X-2222000Y-1630000D01*
X+3311401Y-1600000D02*
X+3540000Y-1600000D01*
X+3768599Y-1600000D02*
X+3540000Y-1600000D01*
X+3540000Y-1828599D02*
X+3540000Y-1600000D01*
X+3540000Y-1371401D02*
X+3540000Y-1600000D01*
X-4080000Y+4503801D02*
X-4080000Y+4680000D01*
X-4080000Y+4856199D02*
X-4080000Y+4680000D01*
X-3591301Y+4680000D02*
X-3740000Y+4680000D01*
X-3740000Y+4503801D02*
X-3740000Y+4680000D01*
X-3740000Y+4856199D02*
X-3740000Y+4680000D01*
X-4410000Y+3488201D02*
X-4410000Y+3666000D01*
X-4587799Y+3666000D02*
X-4410000Y+3666000D01*
X-4232201Y+3666000D02*
X-4410000Y+3666000D01*
X-278699Y+5100000D02*
X-90000Y+5100000D01*
X+98699Y+5100000D02*
X-90000Y+5100000D01*
X-90000Y+4911301D02*
X-90000Y+5100000D01*
X-90000Y+5288699D02*
X-90000Y+5100000D01*
X-1598201Y+3650000D02*
X-1776000Y+3650000D01*
X-1776000Y+3472201D02*
X-1776000Y+3650000D01*
X-1776000Y+3827799D02*
X-1776000Y+3650000D01*
X-1090000Y+3829099D02*
X-1090000Y+3664000D01*
X-1090000Y+3498901D02*
X-1090000Y+3664000D01*
X-1255099Y+3664000D02*
X-1090000Y+3664000D01*
X-924901Y+3664000D02*
X-1090000Y+3664000D01*
D14*
X+5318000Y+1963000D03*
X+5572000Y+1963000D03*
X+5318000Y+1709000D03*
X+5572000Y+1709000D03*
X+5318000Y+1455000D03*
X+5572000Y+1455000D03*
X+5318000Y+1201000D03*
X+5572000Y+1201000D03*
X+5318000Y+947000D03*
X+5572000Y+947000D03*
X+5318000Y+693000D03*
X+5572000Y+693000D03*
X+5318000Y+439000D03*
X+5572000Y+439000D03*
X+5318000Y+185000D03*
X+5572000Y+185000D03*
X+5318000Y-69000D03*
X+5572000Y-69000D03*
X+5318000Y-323000D03*
X+5572000Y-323000D03*
X+5318000Y-577000D03*
X+5572000Y-577000D03*
X+5318000Y-831000D03*
X+5572000Y-831000D03*
X+5318000Y-1085000D03*
X+5572000Y-1085000D03*
X+5318000Y-1339000D03*
X+5572000Y-1339000D03*
X+5318000Y-1593000D03*
X+5572000Y-1593000D03*
X+5318000Y-1847000D03*
X+5572000Y-1847000D03*
X+5318000Y-2101000D03*
X+5572000Y-2101000D03*
X+5318000Y-2355000D03*
X+5572000Y-2355000D03*
D15*
X+3311400Y-2863000D03*
X+3565400Y-2863000D03*
X+3819400Y-2863000D03*
X+4073400Y-2863000D03*
X+4327400Y-2863000D03*
X+4581400Y-2863000D03*
X+4835400Y-2863000D03*
X+5089400Y-2863000D03*
X+1000000Y-2863000D03*
X+1254000Y-2863000D03*
X+1508000Y-2863000D03*
X+1762000Y-2863000D03*
X+2016000Y-2863000D03*
X+2270000Y-2863000D03*
X+2524000Y-2863000D03*
X+2778000Y-2863000D03*
X-1286000Y-2863000D03*
X-1032000Y-2863000D03*
X-778000Y-2863000D03*
X-524000Y-2863000D03*
X-270000Y-2863000D03*
X-16000Y-2863000D03*
X+238000Y-2863000D03*
X+492000Y-2863000D03*
X+2778000Y+1963000D03*
X+3032000Y+1963000D03*
X+3286000Y+1963000D03*
X+3540000Y+1963000D03*
X+3794000Y+1963000D03*
X+4048000Y+1963000D03*
X+4302000Y+1963000D03*
X+4556000Y+1963000D03*
X+492000Y+1963000D03*
X+746000Y+1963000D03*
X+1000000Y+1963000D03*
X+1254000Y+1963000D03*
X+1508000Y+1963000D03*
X+1762000Y+1963000D03*
X+2016000Y+1963000D03*
X+2270000Y+1963000D03*
X-2200400Y+1963000D03*
X-1946400Y+1963000D03*
X-1692400Y+1963000D03*
X-1438400Y+1963000D03*
X-1184400Y+1963000D03*
X-930400Y+1963000D03*
X-676400Y+1963000D03*
X-422400Y+1963000D03*
X-168400Y+1963000D03*
X+85600Y+1963000D03*
D16*
X+2170000Y-2271000D03*
X+2170000Y-2017000D03*
X+2170000Y-1763000D03*
X+2170000Y-1509000D03*
X+2170000Y-1255000D03*
X+2170000Y-1001000D03*
X+2170000Y-493000D03*
X+2170000Y-239000D03*
X+2170000Y+15000D03*
X+2170000Y+269000D03*
X+2170000Y+523000D03*
X+2170000Y+777000D03*
X+2170000Y+1031000D03*
X+2170000Y+1285000D03*
X+6996000Y-2271000D03*
X+6996000Y-2017000D03*
X+6996000Y-1763000D03*
X+6996000Y-1509000D03*
X+6996000Y-1255000D03*
X+6996000Y-1001000D03*
X+6996000Y-747000D03*
X+6996000Y-493000D03*
X+6996000Y+123400D03*
X+6996000Y+377400D03*
X+6996000Y+631400D03*
X+6996000Y+885400D03*
X+6996000Y+1139400D03*
X+6996000Y+1393400D03*
X+6996000Y+1647400D03*
X+6996000Y+1901400D03*
X+6996000Y+2155400D03*
X+6996000Y+2409400D03*
X+770000Y+1321000D03*
X+770000Y+1067000D03*
X+770000Y+813000D03*
X+770000Y+559000D03*
X+770000Y+305000D03*
X+770000Y+51000D03*
X+770000Y-457000D03*
X+770000Y-711000D03*
X+770000Y-965000D03*
X+770000Y-1219000D03*
X+770000Y-1473000D03*
X+770000Y-1727000D03*
X+770000Y-1981000D03*
X+770000Y-2235000D03*
X-4056000Y+1321000D03*
X-4056000Y+1067000D03*
X-4056000Y+813000D03*
X-4056000Y+559000D03*
X-4056000Y+305000D03*
X-4056000Y+51000D03*
X-4056000Y-203000D03*
X-4056000Y-457000D03*
X-4056000Y-863400D03*
X-4056000Y-1117400D03*
X-4056000Y-1371400D03*
X-4056000Y-1625400D03*
X-4056000Y-1879400D03*
X-4056000Y-2133400D03*
X-4056000Y-2387400D03*
X-4056000Y-2641400D03*
X-4056000Y-2895400D03*
X-4056000Y-3149400D03*
D15*
X+1204000Y+4010000D03*
X+1458000Y+4010000D03*
X+1712000Y+4010000D03*
X+1966000Y+4010000D03*
X+2220000Y+4010000D03*
X+2474000Y+4010000D03*
X+3700000Y+4020000D03*
X+3954000Y+4020000D03*
X+4208000Y+4020000D03*
X+4462000Y+4020000D03*
X+4716000Y+4020000D03*
X+4970000Y+4020000D03*
X+5224000Y+4020000D03*
X+5478000Y+4020000D03*
D17*
X+4750000Y+2940000D03*
X+5004000Y+2940000D03*
X+5258000Y+2940000D03*
X+3450000Y+2940000D03*
X+3704000Y+2940000D03*
X+3958000Y+2940000D03*
X+2140000Y+2930000D03*
X+2394000Y+2930000D03*
X+2648000Y+2930000D03*
X+870000Y+2930000D03*
X+1124000Y+2930000D03*
X+1378000Y+2930000D03*
X-410000Y+2920000D03*
X-156000Y+2920000D03*
X+98000Y+2920000D03*
X-1680000Y+2930000D03*
X-1426000Y+2930000D03*
X-1172000Y+2930000D03*
X-2940000Y+2930000D03*
X-2686000Y+2930000D03*
X-2432000Y+2930000D03*
X-4258000Y+2920000D03*
X-4004000Y+2920000D03*
X-3750000Y+2920000D03*
D18*
X-1030000Y-1610000D03*
X-522000Y-1610000D03*
X-360000Y+4060000D03*
X+148000Y+4060000D03*
X-2730000Y-1630000D03*
X-2222000Y-1630000D03*
X+3540000Y-1600000D03*
X+4048000Y-1600000D03*
D19*
X-4420000Y+4680000D03*
D70*
X-4250000Y+4680000D03*
X-4080000Y+4680000D03*
X-3910000Y+4680000D03*
X-3740000Y+4680000D03*
D17*
X-4410000Y+3920000D03*
X-4410000Y+3666000D03*
D71*
X-3070000Y+5100000D03*
D20*
X-90000Y+5100000D03*
D17*
X-2030000Y+3650000D03*
X-1776000Y+3650000D03*
D14*
X-2480000Y+3664000D03*
X-2480000Y+4680000D03*
X-1090000Y+4680000D03*
X-1090000Y+3664000D03*
D18*
X-3350000Y+3670000D03*
X-2842000Y+3670000D03*
D21*
X-5170000Y-3700000D02*
X+7830000Y-3700000D01*
X+7830000Y+5600000D01*
X-5170000Y+5600000D01*
X-5170000Y-3700000D01*
M02*
